G04 #@! TF.GenerationSoftware,KiCad,Pcbnew,5.1.5+dfsg1-2~bpo10+1*
G04 #@! TF.CreationDate,2020-03-24T15:05:50+01:00*
G04 #@! TF.ProjectId,snickerdoodle-hdmi-breakout,736e6963-6b65-4726-946f-6f646c652d68,rev?*
G04 #@! TF.SameCoordinates,Original*
G04 #@! TF.FileFunction,Legend,Top*
G04 #@! TF.FilePolarity,Positive*
%FSLAX46Y46*%
G04 Gerber Fmt 4.6, Leading zero omitted, Abs format (unit mm)*
G04 Created by KiCad (PCBNEW 5.1.5+dfsg1-2~bpo10+1) date 2020-03-24 15:05:50*
%MOMM*%
%LPD*%
G04 APERTURE LIST*
%ADD10C,0.100000*%
%ADD11C,0.120000*%
%ADD12C,0.200000*%
%ADD13C,0.150000*%
G04 APERTURE END LIST*
D10*
X139440000Y-112020000D02*
X138740000Y-112020000D01*
X139440000Y-111270000D02*
X139440000Y-112020000D01*
X126090000Y-112020000D02*
X125140000Y-111070000D01*
X127990000Y-112020000D02*
X126090000Y-112020000D01*
X139440000Y-99420000D02*
X139440000Y-100270000D01*
X138740000Y-99420000D02*
X139440000Y-99420000D01*
X125040000Y-99420000D02*
X125740000Y-99420000D01*
X125040000Y-100270000D02*
X125040000Y-99420000D01*
D11*
X143480000Y-119450000D02*
X144080000Y-119450000D01*
X143480000Y-120050000D02*
X144080000Y-120050000D01*
X176610000Y-112200000D02*
X176610000Y-112800000D01*
X176010000Y-112200000D02*
X176010000Y-112800000D01*
X188119475Y-103959474D02*
G75*
G02X188144600Y-102760000I25125J599474D01*
G01*
X188995125Y-102760526D02*
X188144875Y-102760526D01*
X188995125Y-102760526D02*
G75*
G02X188970000Y-103960000I-25125J-599474D01*
G01*
X188970000Y-103960000D02*
X188170000Y-103960000D01*
X186290000Y-116770000D02*
X186290000Y-118270000D01*
X183070000Y-115270000D02*
X183070000Y-118270000D01*
D12*
X185792956Y-113960000D02*
G75*
G03X185792956Y-113960000I-102956J0D01*
G01*
D11*
X181440000Y-115630000D02*
X180840000Y-115630000D01*
X181440000Y-115030000D02*
X180840000Y-115030000D01*
D10*
X158990000Y-107035000D02*
X159290000Y-107035000D01*
X158990000Y-107410000D02*
X158990000Y-107035000D01*
X162290000Y-107035000D02*
X162290000Y-107485000D01*
X161990000Y-107035000D02*
X162290000Y-107035000D01*
X162065000Y-107035000D02*
X161940000Y-107035000D01*
X162290000Y-108685000D02*
X161940000Y-108685000D01*
X162290000Y-108210000D02*
X162290000Y-108685000D01*
X159315000Y-108685000D02*
X159315000Y-109460000D01*
X159265000Y-108685000D02*
X159315000Y-108685000D01*
X158990000Y-108310000D02*
X159265000Y-108685000D01*
X158990000Y-108035000D02*
X158990000Y-108310000D01*
X159770000Y-106595000D02*
X159470000Y-106595000D01*
X159770000Y-106220000D02*
X159770000Y-106595000D01*
X156470000Y-106595000D02*
X156470000Y-106145000D01*
X156770000Y-106595000D02*
X156470000Y-106595000D01*
X156695000Y-106595000D02*
X156820000Y-106595000D01*
X156470000Y-104945000D02*
X156820000Y-104945000D01*
X156470000Y-105420000D02*
X156470000Y-104945000D01*
X159445000Y-104945000D02*
X159445000Y-104170000D01*
X159495000Y-104945000D02*
X159445000Y-104945000D01*
X159770000Y-105320000D02*
X159495000Y-104945000D01*
X159770000Y-105595000D02*
X159770000Y-105320000D01*
D11*
X148963333Y-103240000D02*
X148963333Y-104940000D01*
X149763333Y-103240000D02*
X148963333Y-103240000D01*
X149963333Y-103240000D02*
X149763333Y-103240000D01*
X149963333Y-103340000D02*
X149963333Y-103240000D01*
X149963333Y-103440000D02*
X149963333Y-103340000D01*
X149963333Y-103440000D02*
X149963333Y-104940000D01*
X146420000Y-103240000D02*
X146420000Y-104940000D01*
X147220000Y-103240000D02*
X146420000Y-103240000D01*
X147420000Y-103240000D02*
X147220000Y-103240000D01*
X147420000Y-103340000D02*
X147420000Y-103240000D01*
X147420000Y-103440000D02*
X147420000Y-103340000D01*
X147420000Y-103440000D02*
X147420000Y-104940000D01*
X154050000Y-103240000D02*
X154050000Y-104940000D01*
X154850000Y-103240000D02*
X154050000Y-103240000D01*
X155050000Y-103240000D02*
X154850000Y-103240000D01*
X155050000Y-103340000D02*
X155050000Y-103240000D01*
X155050000Y-103440000D02*
X155050000Y-103340000D01*
X155050000Y-103440000D02*
X155050000Y-104940000D01*
X151506666Y-103240000D02*
X151506666Y-104940000D01*
X152306666Y-103240000D02*
X151506666Y-103240000D01*
X152506666Y-103240000D02*
X152306666Y-103240000D01*
X152506666Y-103340000D02*
X152506666Y-103240000D01*
X152506666Y-103440000D02*
X152506666Y-103340000D01*
X152506666Y-103440000D02*
X152506666Y-104940000D01*
X181860000Y-112560000D02*
X181860000Y-111960000D01*
X183460000Y-112580000D02*
X183460000Y-111980000D01*
X179710000Y-112560000D02*
X179710000Y-111960000D01*
X181310000Y-112580000D02*
X181310000Y-111980000D01*
X177520000Y-112570000D02*
X177520000Y-111970000D01*
X179120000Y-112590000D02*
X179120000Y-111990000D01*
X186430000Y-119530000D02*
X187030000Y-119530000D01*
X186410000Y-121130000D02*
X187010000Y-121130000D01*
D12*
X155250000Y-118290000D02*
G75*
G03X155250000Y-118290000I-100000J0D01*
G01*
D10*
X160675000Y-119670000D02*
X160675000Y-119370000D01*
X161050000Y-119670000D02*
X160675000Y-119670000D01*
X160675000Y-116370000D02*
X161125000Y-116370000D01*
X160675000Y-116670000D02*
X160675000Y-116370000D01*
X160675000Y-116595000D02*
X160675000Y-116720000D01*
X162325000Y-116370000D02*
X162325000Y-116720000D01*
X161850000Y-116370000D02*
X162325000Y-116370000D01*
X162325000Y-119345000D02*
X163100000Y-119345000D01*
X162325000Y-119395000D02*
X162325000Y-119345000D01*
X161950000Y-119670000D02*
X162325000Y-119395000D01*
X161675000Y-119670000D02*
X161950000Y-119670000D01*
X144850000Y-110640000D02*
X144350000Y-110640000D01*
X144850000Y-110740000D02*
X144350000Y-110740000D01*
X143350000Y-110635000D02*
X143800000Y-110635000D01*
X143350000Y-110735000D02*
X143800000Y-110735000D01*
X143350000Y-108885000D02*
X143600000Y-108885000D01*
X143350000Y-109235000D02*
X143350000Y-108885000D01*
X143350000Y-110835000D02*
X143800000Y-110835000D01*
X143350000Y-110485000D02*
X143350000Y-110835000D01*
X144850000Y-108885000D02*
X144850000Y-109235000D01*
X144500000Y-108885000D02*
X144850000Y-108885000D01*
X144850000Y-110485000D02*
X144850000Y-110835000D01*
X144850000Y-110840000D02*
X144350000Y-110840000D01*
X144350000Y-110840000D02*
X144350000Y-110640000D01*
X143800000Y-110840000D02*
X143800000Y-110640000D01*
D13*
X125646666Y-112356666D02*
X125646666Y-112856666D01*
X125613333Y-112956666D01*
X125546666Y-113023333D01*
X125446666Y-113056666D01*
X125380000Y-113056666D01*
X125946666Y-112423333D02*
X125980000Y-112390000D01*
X126046666Y-112356666D01*
X126213333Y-112356666D01*
X126280000Y-112390000D01*
X126313333Y-112423333D01*
X126346666Y-112490000D01*
X126346666Y-112556666D01*
X126313333Y-112656666D01*
X125913333Y-113056666D01*
X126346666Y-113056666D01*
X162176666Y-112496666D02*
X162576666Y-112496666D01*
X162376666Y-113196666D02*
X162376666Y-112496666D01*
X162810000Y-113196666D02*
X162810000Y-112496666D01*
X163076666Y-112496666D01*
X163143333Y-112530000D01*
X163176666Y-112563333D01*
X163210000Y-112630000D01*
X163210000Y-112730000D01*
X163176666Y-112796666D01*
X163143333Y-112830000D01*
X163076666Y-112863333D01*
X162810000Y-112863333D01*
X163810000Y-112496666D02*
X163676666Y-112496666D01*
X163610000Y-112530000D01*
X163576666Y-112563333D01*
X163510000Y-112663333D01*
X163476666Y-112796666D01*
X163476666Y-113063333D01*
X163510000Y-113130000D01*
X163543333Y-113163333D01*
X163610000Y-113196666D01*
X163743333Y-113196666D01*
X163810000Y-113163333D01*
X163843333Y-113130000D01*
X163876666Y-113063333D01*
X163876666Y-112896666D01*
X163843333Y-112830000D01*
X163810000Y-112796666D01*
X163743333Y-112763333D01*
X163610000Y-112763333D01*
X163543333Y-112796666D01*
X163510000Y-112830000D01*
X163476666Y-112896666D01*
X163866666Y-111586666D02*
X164266666Y-111586666D01*
X164066666Y-112286666D02*
X164066666Y-111586666D01*
X164500000Y-112286666D02*
X164500000Y-111586666D01*
X164766666Y-111586666D01*
X164833333Y-111620000D01*
X164866666Y-111653333D01*
X164900000Y-111720000D01*
X164900000Y-111820000D01*
X164866666Y-111886666D01*
X164833333Y-111920000D01*
X164766666Y-111953333D01*
X164500000Y-111953333D01*
X165533333Y-111586666D02*
X165200000Y-111586666D01*
X165166666Y-111920000D01*
X165200000Y-111886666D01*
X165266666Y-111853333D01*
X165433333Y-111853333D01*
X165500000Y-111886666D01*
X165533333Y-111920000D01*
X165566666Y-111986666D01*
X165566666Y-112153333D01*
X165533333Y-112220000D01*
X165500000Y-112253333D01*
X165433333Y-112286666D01*
X165266666Y-112286666D01*
X165200000Y-112253333D01*
X165166666Y-112220000D01*
X142106666Y-102423333D02*
X142106666Y-102023333D01*
X142806666Y-102223333D02*
X142106666Y-102223333D01*
X142806666Y-101790000D02*
X142106666Y-101790000D01*
X142106666Y-101523333D01*
X142140000Y-101456666D01*
X142173333Y-101423333D01*
X142240000Y-101390000D01*
X142340000Y-101390000D01*
X142406666Y-101423333D01*
X142440000Y-101456666D01*
X142473333Y-101523333D01*
X142473333Y-101790000D01*
X142340000Y-100790000D02*
X142806666Y-100790000D01*
X142073333Y-100956666D02*
X142573333Y-101123333D01*
X142573333Y-100690000D01*
X142956666Y-107863333D02*
X142956666Y-107463333D01*
X143656666Y-107663333D02*
X142956666Y-107663333D01*
X143656666Y-107230000D02*
X142956666Y-107230000D01*
X142956666Y-106963333D01*
X142990000Y-106896666D01*
X143023333Y-106863333D01*
X143090000Y-106830000D01*
X143190000Y-106830000D01*
X143256666Y-106863333D01*
X143290000Y-106896666D01*
X143323333Y-106963333D01*
X143323333Y-107230000D01*
X142956666Y-106596666D02*
X142956666Y-106163333D01*
X143223333Y-106396666D01*
X143223333Y-106296666D01*
X143256666Y-106230000D01*
X143290000Y-106196666D01*
X143356666Y-106163333D01*
X143523333Y-106163333D01*
X143590000Y-106196666D01*
X143623333Y-106230000D01*
X143656666Y-106296666D01*
X143656666Y-106496666D01*
X143623333Y-106563333D01*
X143590000Y-106596666D01*
X143846666Y-102363333D02*
X143846666Y-101963333D01*
X144546666Y-102163333D02*
X143846666Y-102163333D01*
X144546666Y-101730000D02*
X143846666Y-101730000D01*
X143846666Y-101463333D01*
X143880000Y-101396666D01*
X143913333Y-101363333D01*
X143980000Y-101330000D01*
X144080000Y-101330000D01*
X144146666Y-101363333D01*
X144180000Y-101396666D01*
X144213333Y-101463333D01*
X144213333Y-101730000D01*
X143913333Y-101063333D02*
X143880000Y-101030000D01*
X143846666Y-100963333D01*
X143846666Y-100796666D01*
X143880000Y-100730000D01*
X143913333Y-100696666D01*
X143980000Y-100663333D01*
X144046666Y-100663333D01*
X144146666Y-100696666D01*
X144546666Y-101096666D01*
X144546666Y-100663333D01*
X144706666Y-107863333D02*
X144706666Y-107463333D01*
X145406666Y-107663333D02*
X144706666Y-107663333D01*
X145406666Y-107230000D02*
X144706666Y-107230000D01*
X144706666Y-106963333D01*
X144740000Y-106896666D01*
X144773333Y-106863333D01*
X144840000Y-106830000D01*
X144940000Y-106830000D01*
X145006666Y-106863333D01*
X145040000Y-106896666D01*
X145073333Y-106963333D01*
X145073333Y-107230000D01*
X145406666Y-106163333D02*
X145406666Y-106563333D01*
X145406666Y-106363333D02*
X144706666Y-106363333D01*
X144806666Y-106430000D01*
X144873333Y-106496666D01*
X144906666Y-106563333D01*
X156181428Y-117535714D02*
X155895714Y-117735714D01*
X156181428Y-117878571D02*
X155581428Y-117878571D01*
X155581428Y-117650000D01*
X155610000Y-117592857D01*
X155638571Y-117564285D01*
X155695714Y-117535714D01*
X155781428Y-117535714D01*
X155838571Y-117564285D01*
X155867142Y-117592857D01*
X155895714Y-117650000D01*
X155895714Y-117878571D01*
X156181428Y-116964285D02*
X156181428Y-117307142D01*
X156181428Y-117135714D02*
X155581428Y-117135714D01*
X155667142Y-117192857D01*
X155724285Y-117250000D01*
X155752857Y-117307142D01*
X155781428Y-116450000D02*
X156181428Y-116450000D01*
X155552857Y-116592857D02*
X155981428Y-116735714D01*
X155981428Y-116364285D01*
X157221428Y-117535714D02*
X156935714Y-117735714D01*
X157221428Y-117878571D02*
X156621428Y-117878571D01*
X156621428Y-117650000D01*
X156650000Y-117592857D01*
X156678571Y-117564285D01*
X156735714Y-117535714D01*
X156821428Y-117535714D01*
X156878571Y-117564285D01*
X156907142Y-117592857D01*
X156935714Y-117650000D01*
X156935714Y-117878571D01*
X157221428Y-116964285D02*
X157221428Y-117307142D01*
X157221428Y-117135714D02*
X156621428Y-117135714D01*
X156707142Y-117192857D01*
X156764285Y-117250000D01*
X156792857Y-117307142D01*
X156621428Y-116764285D02*
X156621428Y-116392857D01*
X156850000Y-116592857D01*
X156850000Y-116507142D01*
X156878571Y-116450000D01*
X156907142Y-116421428D01*
X156964285Y-116392857D01*
X157107142Y-116392857D01*
X157164285Y-116421428D01*
X157192857Y-116450000D01*
X157221428Y-116507142D01*
X157221428Y-116678571D01*
X157192857Y-116735714D01*
X157164285Y-116764285D01*
X143010000Y-118507142D02*
X142810000Y-118507142D01*
X142810000Y-118821428D02*
X142810000Y-118221428D01*
X143095714Y-118221428D01*
X143524285Y-118507142D02*
X143610000Y-118535714D01*
X143638571Y-118564285D01*
X143667142Y-118621428D01*
X143667142Y-118707142D01*
X143638571Y-118764285D01*
X143610000Y-118792857D01*
X143552857Y-118821428D01*
X143324285Y-118821428D01*
X143324285Y-118221428D01*
X143524285Y-118221428D01*
X143581428Y-118250000D01*
X143610000Y-118278571D01*
X143638571Y-118335714D01*
X143638571Y-118392857D01*
X143610000Y-118450000D01*
X143581428Y-118478571D01*
X143524285Y-118507142D01*
X143324285Y-118507142D01*
X144238571Y-118821428D02*
X143895714Y-118821428D01*
X144067142Y-118821428D02*
X144067142Y-118221428D01*
X144010000Y-118307142D01*
X143952857Y-118364285D01*
X143895714Y-118392857D01*
X176551428Y-110575714D02*
X176265714Y-110775714D01*
X176551428Y-110918571D02*
X175951428Y-110918571D01*
X175951428Y-110690000D01*
X175980000Y-110632857D01*
X176008571Y-110604285D01*
X176065714Y-110575714D01*
X176151428Y-110575714D01*
X176208571Y-110604285D01*
X176237142Y-110632857D01*
X176265714Y-110690000D01*
X176265714Y-110918571D01*
X176551428Y-110004285D02*
X176551428Y-110347142D01*
X176551428Y-110175714D02*
X175951428Y-110175714D01*
X176037142Y-110232857D01*
X176094285Y-110290000D01*
X176122857Y-110347142D01*
X176008571Y-109775714D02*
X175980000Y-109747142D01*
X175951428Y-109690000D01*
X175951428Y-109547142D01*
X175980000Y-109490000D01*
X176008571Y-109461428D01*
X176065714Y-109432857D01*
X176122857Y-109432857D01*
X176208571Y-109461428D01*
X176551428Y-109804285D01*
X176551428Y-109432857D01*
X188290000Y-104321428D02*
X188290000Y-104750000D01*
X188261428Y-104835714D01*
X188204285Y-104892857D01*
X188118571Y-104921428D01*
X188061428Y-104921428D01*
X188518571Y-104321428D02*
X188890000Y-104321428D01*
X188690000Y-104550000D01*
X188775714Y-104550000D01*
X188832857Y-104578571D01*
X188861428Y-104607142D01*
X188890000Y-104664285D01*
X188890000Y-104807142D01*
X188861428Y-104864285D01*
X188832857Y-104892857D01*
X188775714Y-104921428D01*
X188604285Y-104921428D01*
X188547142Y-104892857D01*
X188518571Y-104864285D01*
X181762857Y-117641428D02*
X181762857Y-118127142D01*
X181791428Y-118184285D01*
X181820000Y-118212857D01*
X181877142Y-118241428D01*
X181991428Y-118241428D01*
X182048571Y-118212857D01*
X182077142Y-118184285D01*
X182105714Y-118127142D01*
X182105714Y-117641428D01*
X182362857Y-117698571D02*
X182391428Y-117670000D01*
X182448571Y-117641428D01*
X182591428Y-117641428D01*
X182648571Y-117670000D01*
X182677142Y-117698571D01*
X182705714Y-117755714D01*
X182705714Y-117812857D01*
X182677142Y-117898571D01*
X182334285Y-118241428D01*
X182705714Y-118241428D01*
X182421428Y-120725714D02*
X182135714Y-120925714D01*
X182421428Y-121068571D02*
X181821428Y-121068571D01*
X181821428Y-120840000D01*
X181850000Y-120782857D01*
X181878571Y-120754285D01*
X181935714Y-120725714D01*
X182021428Y-120725714D01*
X182078571Y-120754285D01*
X182107142Y-120782857D01*
X182135714Y-120840000D01*
X182135714Y-121068571D01*
X182421428Y-120154285D02*
X182421428Y-120497142D01*
X182421428Y-120325714D02*
X181821428Y-120325714D01*
X181907142Y-120382857D01*
X181964285Y-120440000D01*
X181992857Y-120497142D01*
X182421428Y-119582857D02*
X182421428Y-119925714D01*
X182421428Y-119754285D02*
X181821428Y-119754285D01*
X181907142Y-119811428D01*
X181964285Y-119868571D01*
X181992857Y-119925714D01*
X185701428Y-112895714D02*
X185415714Y-113095714D01*
X185701428Y-113238571D02*
X185101428Y-113238571D01*
X185101428Y-113010000D01*
X185130000Y-112952857D01*
X185158571Y-112924285D01*
X185215714Y-112895714D01*
X185301428Y-112895714D01*
X185358571Y-112924285D01*
X185387142Y-112952857D01*
X185415714Y-113010000D01*
X185415714Y-113238571D01*
X185701428Y-112324285D02*
X185701428Y-112667142D01*
X185701428Y-112495714D02*
X185101428Y-112495714D01*
X185187142Y-112552857D01*
X185244285Y-112610000D01*
X185272857Y-112667142D01*
X185101428Y-111952857D02*
X185101428Y-111895714D01*
X185130000Y-111838571D01*
X185158571Y-111810000D01*
X185215714Y-111781428D01*
X185330000Y-111752857D01*
X185472857Y-111752857D01*
X185587142Y-111781428D01*
X185644285Y-111810000D01*
X185672857Y-111838571D01*
X185701428Y-111895714D01*
X185701428Y-111952857D01*
X185672857Y-112010000D01*
X185644285Y-112038571D01*
X185587142Y-112067142D01*
X185472857Y-112095714D01*
X185330000Y-112095714D01*
X185215714Y-112067142D01*
X185158571Y-112038571D01*
X185130000Y-112010000D01*
X185101428Y-111952857D01*
X180490000Y-116811428D02*
X180290000Y-116525714D01*
X180147142Y-116811428D02*
X180147142Y-116211428D01*
X180375714Y-116211428D01*
X180432857Y-116240000D01*
X180461428Y-116268571D01*
X180490000Y-116325714D01*
X180490000Y-116411428D01*
X180461428Y-116468571D01*
X180432857Y-116497142D01*
X180375714Y-116525714D01*
X180147142Y-116525714D01*
X180775714Y-116811428D02*
X180890000Y-116811428D01*
X180947142Y-116782857D01*
X180975714Y-116754285D01*
X181032857Y-116668571D01*
X181061428Y-116554285D01*
X181061428Y-116325714D01*
X181032857Y-116268571D01*
X181004285Y-116240000D01*
X180947142Y-116211428D01*
X180832857Y-116211428D01*
X180775714Y-116240000D01*
X180747142Y-116268571D01*
X180718571Y-116325714D01*
X180718571Y-116468571D01*
X180747142Y-116525714D01*
X180775714Y-116554285D01*
X180832857Y-116582857D01*
X180947142Y-116582857D01*
X181004285Y-116554285D01*
X181032857Y-116525714D01*
X181061428Y-116468571D01*
X149651428Y-108910000D02*
X149365714Y-109110000D01*
X149651428Y-109252857D02*
X149051428Y-109252857D01*
X149051428Y-109024285D01*
X149080000Y-108967142D01*
X149108571Y-108938571D01*
X149165714Y-108910000D01*
X149251428Y-108910000D01*
X149308571Y-108938571D01*
X149337142Y-108967142D01*
X149365714Y-109024285D01*
X149365714Y-109252857D01*
X149308571Y-108567142D02*
X149280000Y-108624285D01*
X149251428Y-108652857D01*
X149194285Y-108681428D01*
X149165714Y-108681428D01*
X149108571Y-108652857D01*
X149080000Y-108624285D01*
X149051428Y-108567142D01*
X149051428Y-108452857D01*
X149080000Y-108395714D01*
X149108571Y-108367142D01*
X149165714Y-108338571D01*
X149194285Y-108338571D01*
X149251428Y-108367142D01*
X149280000Y-108395714D01*
X149308571Y-108452857D01*
X149308571Y-108567142D01*
X149337142Y-108624285D01*
X149365714Y-108652857D01*
X149422857Y-108681428D01*
X149537142Y-108681428D01*
X149594285Y-108652857D01*
X149622857Y-108624285D01*
X149651428Y-108567142D01*
X149651428Y-108452857D01*
X149622857Y-108395714D01*
X149594285Y-108367142D01*
X149537142Y-108338571D01*
X149422857Y-108338571D01*
X149365714Y-108367142D01*
X149337142Y-108395714D01*
X149308571Y-108452857D01*
X147141428Y-108910000D02*
X146855714Y-109110000D01*
X147141428Y-109252857D02*
X146541428Y-109252857D01*
X146541428Y-109024285D01*
X146570000Y-108967142D01*
X146598571Y-108938571D01*
X146655714Y-108910000D01*
X146741428Y-108910000D01*
X146798571Y-108938571D01*
X146827142Y-108967142D01*
X146855714Y-109024285D01*
X146855714Y-109252857D01*
X146541428Y-108710000D02*
X146541428Y-108310000D01*
X147141428Y-108567142D01*
X154841428Y-108910000D02*
X154555714Y-109110000D01*
X154841428Y-109252857D02*
X154241428Y-109252857D01*
X154241428Y-109024285D01*
X154270000Y-108967142D01*
X154298571Y-108938571D01*
X154355714Y-108910000D01*
X154441428Y-108910000D01*
X154498571Y-108938571D01*
X154527142Y-108967142D01*
X154555714Y-109024285D01*
X154555714Y-109252857D01*
X154241428Y-108395714D02*
X154241428Y-108510000D01*
X154270000Y-108567142D01*
X154298571Y-108595714D01*
X154384285Y-108652857D01*
X154498571Y-108681428D01*
X154727142Y-108681428D01*
X154784285Y-108652857D01*
X154812857Y-108624285D01*
X154841428Y-108567142D01*
X154841428Y-108452857D01*
X154812857Y-108395714D01*
X154784285Y-108367142D01*
X154727142Y-108338571D01*
X154584285Y-108338571D01*
X154527142Y-108367142D01*
X154498571Y-108395714D01*
X154470000Y-108452857D01*
X154470000Y-108567142D01*
X154498571Y-108624285D01*
X154527142Y-108652857D01*
X154584285Y-108681428D01*
X152281428Y-108910000D02*
X151995714Y-109110000D01*
X152281428Y-109252857D02*
X151681428Y-109252857D01*
X151681428Y-109024285D01*
X151710000Y-108967142D01*
X151738571Y-108938571D01*
X151795714Y-108910000D01*
X151881428Y-108910000D01*
X151938571Y-108938571D01*
X151967142Y-108967142D01*
X151995714Y-109024285D01*
X151995714Y-109252857D01*
X151681428Y-108367142D02*
X151681428Y-108652857D01*
X151967142Y-108681428D01*
X151938571Y-108652857D01*
X151910000Y-108595714D01*
X151910000Y-108452857D01*
X151938571Y-108395714D01*
X151967142Y-108367142D01*
X152024285Y-108338571D01*
X152167142Y-108338571D01*
X152224285Y-108367142D01*
X152252857Y-108395714D01*
X152281428Y-108452857D01*
X152281428Y-108595714D01*
X152252857Y-108652857D01*
X152224285Y-108681428D01*
X158321428Y-118920000D02*
X158035714Y-119120000D01*
X158321428Y-119262857D02*
X157721428Y-119262857D01*
X157721428Y-119034285D01*
X157750000Y-118977142D01*
X157778571Y-118948571D01*
X157835714Y-118920000D01*
X157921428Y-118920000D01*
X157978571Y-118948571D01*
X158007142Y-118977142D01*
X158035714Y-119034285D01*
X158035714Y-119262857D01*
X157721428Y-118720000D02*
X157721428Y-118348571D01*
X157950000Y-118548571D01*
X157950000Y-118462857D01*
X157978571Y-118405714D01*
X158007142Y-118377142D01*
X158064285Y-118348571D01*
X158207142Y-118348571D01*
X158264285Y-118377142D01*
X158292857Y-118405714D01*
X158321428Y-118462857D01*
X158321428Y-118634285D01*
X158292857Y-118691428D01*
X158264285Y-118720000D01*
X157982857Y-108788571D02*
X157925714Y-108760000D01*
X157868571Y-108702857D01*
X157782857Y-108617142D01*
X157725714Y-108588571D01*
X157668571Y-108588571D01*
X157697142Y-108731428D02*
X157640000Y-108702857D01*
X157582857Y-108645714D01*
X157554285Y-108531428D01*
X157554285Y-108331428D01*
X157582857Y-108217142D01*
X157640000Y-108160000D01*
X157697142Y-108131428D01*
X157811428Y-108131428D01*
X157868571Y-108160000D01*
X157925714Y-108217142D01*
X157954285Y-108331428D01*
X157954285Y-108531428D01*
X157925714Y-108645714D01*
X157868571Y-108702857D01*
X157811428Y-108731428D01*
X157697142Y-108731428D01*
X158154285Y-108131428D02*
X158525714Y-108131428D01*
X158325714Y-108360000D01*
X158411428Y-108360000D01*
X158468571Y-108388571D01*
X158497142Y-108417142D01*
X158525714Y-108474285D01*
X158525714Y-108617142D01*
X158497142Y-108674285D01*
X158468571Y-108702857D01*
X158411428Y-108731428D01*
X158240000Y-108731428D01*
X158182857Y-108702857D01*
X158154285Y-108674285D01*
X160642857Y-105278571D02*
X160585714Y-105250000D01*
X160528571Y-105192857D01*
X160442857Y-105107142D01*
X160385714Y-105078571D01*
X160328571Y-105078571D01*
X160357142Y-105221428D02*
X160300000Y-105192857D01*
X160242857Y-105135714D01*
X160214285Y-105021428D01*
X160214285Y-104821428D01*
X160242857Y-104707142D01*
X160300000Y-104650000D01*
X160357142Y-104621428D01*
X160471428Y-104621428D01*
X160528571Y-104650000D01*
X160585714Y-104707142D01*
X160614285Y-104821428D01*
X160614285Y-105021428D01*
X160585714Y-105135714D01*
X160528571Y-105192857D01*
X160471428Y-105221428D01*
X160357142Y-105221428D01*
X160842857Y-104678571D02*
X160871428Y-104650000D01*
X160928571Y-104621428D01*
X161071428Y-104621428D01*
X161128571Y-104650000D01*
X161157142Y-104678571D01*
X161185714Y-104735714D01*
X161185714Y-104792857D01*
X161157142Y-104878571D01*
X160814285Y-105221428D01*
X161185714Y-105221428D01*
X187320000Y-114301428D02*
X187034285Y-114301428D01*
X187034285Y-113701428D01*
X187834285Y-114301428D02*
X187491428Y-114301428D01*
X187662857Y-114301428D02*
X187662857Y-113701428D01*
X187605714Y-113787142D01*
X187548571Y-113844285D01*
X187491428Y-113872857D01*
X149734761Y-102211428D02*
X149734761Y-102497142D01*
X149134761Y-102497142D01*
X149420475Y-102011428D02*
X149420475Y-101811428D01*
X149734761Y-101725714D02*
X149734761Y-102011428D01*
X149134761Y-102011428D01*
X149134761Y-101725714D01*
X149734761Y-101468571D02*
X149134761Y-101468571D01*
X149134761Y-101325714D01*
X149163333Y-101240000D01*
X149220475Y-101182857D01*
X149277618Y-101154285D01*
X149391904Y-101125714D01*
X149477618Y-101125714D01*
X149591904Y-101154285D01*
X149649047Y-101182857D01*
X149706190Y-101240000D01*
X149734761Y-101325714D01*
X149734761Y-101468571D01*
X149191904Y-100897142D02*
X149163333Y-100868571D01*
X149134761Y-100811428D01*
X149134761Y-100668571D01*
X149163333Y-100611428D01*
X149191904Y-100582857D01*
X149249047Y-100554285D01*
X149306190Y-100554285D01*
X149391904Y-100582857D01*
X149734761Y-100925714D01*
X149734761Y-100554285D01*
X147191428Y-102211428D02*
X147191428Y-102497142D01*
X146591428Y-102497142D01*
X146877142Y-102011428D02*
X146877142Y-101811428D01*
X147191428Y-101725714D02*
X147191428Y-102011428D01*
X146591428Y-102011428D01*
X146591428Y-101725714D01*
X147191428Y-101468571D02*
X146591428Y-101468571D01*
X146591428Y-101325714D01*
X146620000Y-101240000D01*
X146677142Y-101182857D01*
X146734285Y-101154285D01*
X146848571Y-101125714D01*
X146934285Y-101125714D01*
X147048571Y-101154285D01*
X147105714Y-101182857D01*
X147162857Y-101240000D01*
X147191428Y-101325714D01*
X147191428Y-101468571D01*
X147191428Y-100554285D02*
X147191428Y-100897142D01*
X147191428Y-100725714D02*
X146591428Y-100725714D01*
X146677142Y-100782857D01*
X146734285Y-100840000D01*
X146762857Y-100897142D01*
X154221428Y-102554286D02*
X154221428Y-102182857D01*
X154450000Y-102382857D01*
X154450000Y-102297143D01*
X154478571Y-102240000D01*
X154507142Y-102211429D01*
X154564285Y-102182857D01*
X154707142Y-102182857D01*
X154764285Y-102211429D01*
X154792857Y-102240000D01*
X154821428Y-102297143D01*
X154821428Y-102468571D01*
X154792857Y-102525714D01*
X154764285Y-102554286D01*
X154221428Y-102011429D02*
X154821428Y-101811429D01*
X154221428Y-101611429D01*
X154221428Y-101468571D02*
X154221428Y-101097143D01*
X154450000Y-101297143D01*
X154450000Y-101211429D01*
X154478571Y-101154286D01*
X154507142Y-101125714D01*
X154564285Y-101097143D01*
X154707142Y-101097143D01*
X154764285Y-101125714D01*
X154792857Y-101154286D01*
X154821428Y-101211429D01*
X154821428Y-101382857D01*
X154792857Y-101440000D01*
X154764285Y-101468571D01*
X151678094Y-102211429D02*
X151678094Y-102497143D01*
X151963808Y-102525714D01*
X151935237Y-102497143D01*
X151906666Y-102440000D01*
X151906666Y-102297143D01*
X151935237Y-102240000D01*
X151963808Y-102211429D01*
X152020951Y-102182857D01*
X152163808Y-102182857D01*
X152220951Y-102211429D01*
X152249523Y-102240000D01*
X152278094Y-102297143D01*
X152278094Y-102440000D01*
X152249523Y-102497143D01*
X152220951Y-102525714D01*
X151678094Y-102011429D02*
X152278094Y-101811429D01*
X151678094Y-101611429D01*
X151678094Y-101297143D02*
X151678094Y-101240000D01*
X151706666Y-101182857D01*
X151735237Y-101154286D01*
X151792380Y-101125714D01*
X151906666Y-101097143D01*
X152049523Y-101097143D01*
X152163808Y-101125714D01*
X152220951Y-101154286D01*
X152249523Y-101182857D01*
X152278094Y-101240000D01*
X152278094Y-101297143D01*
X152249523Y-101354286D01*
X152220951Y-101382857D01*
X152163808Y-101411429D01*
X152049523Y-101440000D01*
X151906666Y-101440000D01*
X151792380Y-101411429D01*
X151735237Y-101382857D01*
X151706666Y-101354286D01*
X151678094Y-101297143D01*
X182894285Y-109680000D02*
X182922857Y-109708571D01*
X182951428Y-109794285D01*
X182951428Y-109851428D01*
X182922857Y-109937142D01*
X182865714Y-109994285D01*
X182808571Y-110022857D01*
X182694285Y-110051428D01*
X182608571Y-110051428D01*
X182494285Y-110022857D01*
X182437142Y-109994285D01*
X182380000Y-109937142D01*
X182351428Y-109851428D01*
X182351428Y-109794285D01*
X182380000Y-109708571D01*
X182408571Y-109680000D01*
X182608571Y-109337142D02*
X182580000Y-109394285D01*
X182551428Y-109422857D01*
X182494285Y-109451428D01*
X182465714Y-109451428D01*
X182408571Y-109422857D01*
X182380000Y-109394285D01*
X182351428Y-109337142D01*
X182351428Y-109222857D01*
X182380000Y-109165714D01*
X182408571Y-109137142D01*
X182465714Y-109108571D01*
X182494285Y-109108571D01*
X182551428Y-109137142D01*
X182580000Y-109165714D01*
X182608571Y-109222857D01*
X182608571Y-109337142D01*
X182637142Y-109394285D01*
X182665714Y-109422857D01*
X182722857Y-109451428D01*
X182837142Y-109451428D01*
X182894285Y-109422857D01*
X182922857Y-109394285D01*
X182951428Y-109337142D01*
X182951428Y-109222857D01*
X182922857Y-109165714D01*
X182894285Y-109137142D01*
X182837142Y-109108571D01*
X182722857Y-109108571D01*
X182665714Y-109137142D01*
X182637142Y-109165714D01*
X182608571Y-109222857D01*
X180744285Y-109680000D02*
X180772857Y-109708571D01*
X180801428Y-109794285D01*
X180801428Y-109851428D01*
X180772857Y-109937142D01*
X180715714Y-109994285D01*
X180658571Y-110022857D01*
X180544285Y-110051428D01*
X180458571Y-110051428D01*
X180344285Y-110022857D01*
X180287142Y-109994285D01*
X180230000Y-109937142D01*
X180201428Y-109851428D01*
X180201428Y-109794285D01*
X180230000Y-109708571D01*
X180258571Y-109680000D01*
X180201428Y-109480000D02*
X180201428Y-109080000D01*
X180801428Y-109337142D01*
X178524285Y-109680000D02*
X178552857Y-109708571D01*
X178581428Y-109794285D01*
X178581428Y-109851428D01*
X178552857Y-109937142D01*
X178495714Y-109994285D01*
X178438571Y-110022857D01*
X178324285Y-110051428D01*
X178238571Y-110051428D01*
X178124285Y-110022857D01*
X178067142Y-109994285D01*
X178010000Y-109937142D01*
X177981428Y-109851428D01*
X177981428Y-109794285D01*
X178010000Y-109708571D01*
X178038571Y-109680000D01*
X177981428Y-109165714D02*
X177981428Y-109280000D01*
X178010000Y-109337142D01*
X178038571Y-109365714D01*
X178124285Y-109422857D01*
X178238571Y-109451428D01*
X178467142Y-109451428D01*
X178524285Y-109422857D01*
X178552857Y-109394285D01*
X178581428Y-109337142D01*
X178581428Y-109222857D01*
X178552857Y-109165714D01*
X178524285Y-109137142D01*
X178467142Y-109108571D01*
X178324285Y-109108571D01*
X178267142Y-109137142D01*
X178238571Y-109165714D01*
X178210000Y-109222857D01*
X178210000Y-109337142D01*
X178238571Y-109394285D01*
X178267142Y-109422857D01*
X178324285Y-109451428D01*
X181414285Y-120710000D02*
X181442857Y-120738571D01*
X181471428Y-120824285D01*
X181471428Y-120881428D01*
X181442857Y-120967142D01*
X181385714Y-121024285D01*
X181328571Y-121052857D01*
X181214285Y-121081428D01*
X181128571Y-121081428D01*
X181014285Y-121052857D01*
X180957142Y-121024285D01*
X180900000Y-120967142D01*
X180871428Y-120881428D01*
X180871428Y-120824285D01*
X180900000Y-120738571D01*
X180928571Y-120710000D01*
X180871428Y-120167142D02*
X180871428Y-120452857D01*
X181157142Y-120481428D01*
X181128571Y-120452857D01*
X181100000Y-120395714D01*
X181100000Y-120252857D01*
X181128571Y-120195714D01*
X181157142Y-120167142D01*
X181214285Y-120138571D01*
X181357142Y-120138571D01*
X181414285Y-120167142D01*
X181442857Y-120195714D01*
X181471428Y-120252857D01*
X181471428Y-120395714D01*
X181442857Y-120452857D01*
X181414285Y-120481428D01*
X189310000Y-120554285D02*
X189281428Y-120582857D01*
X189195714Y-120611428D01*
X189138571Y-120611428D01*
X189052857Y-120582857D01*
X188995714Y-120525714D01*
X188967142Y-120468571D01*
X188938571Y-120354285D01*
X188938571Y-120268571D01*
X188967142Y-120154285D01*
X188995714Y-120097142D01*
X189052857Y-120040000D01*
X189138571Y-120011428D01*
X189195714Y-120011428D01*
X189281428Y-120040000D01*
X189310000Y-120068571D01*
X189824285Y-120211428D02*
X189824285Y-120611428D01*
X189681428Y-119982857D02*
X189538571Y-120411428D01*
X189910000Y-120411428D01*
X146892857Y-118981428D02*
X146892857Y-119467142D01*
X146921428Y-119524285D01*
X146950000Y-119552857D01*
X147007142Y-119581428D01*
X147121428Y-119581428D01*
X147178571Y-119552857D01*
X147207142Y-119524285D01*
X147235714Y-119467142D01*
X147235714Y-118981428D01*
X147835714Y-119581428D02*
X147492857Y-119581428D01*
X147664285Y-119581428D02*
X147664285Y-118981428D01*
X147607142Y-119067142D01*
X147550000Y-119124285D01*
X147492857Y-119152857D01*
X152921428Y-120680000D02*
X152635714Y-120880000D01*
X152921428Y-121022857D02*
X152321428Y-121022857D01*
X152321428Y-120794285D01*
X152350000Y-120737142D01*
X152378571Y-120708571D01*
X152435714Y-120680000D01*
X152521428Y-120680000D01*
X152578571Y-120708571D01*
X152607142Y-120737142D01*
X152635714Y-120794285D01*
X152635714Y-121022857D01*
X152521428Y-120165714D02*
X152921428Y-120165714D01*
X152292857Y-120308571D02*
X152721428Y-120451428D01*
X152721428Y-120080000D01*
X163010000Y-115631428D02*
X162810000Y-115345714D01*
X162667142Y-115631428D02*
X162667142Y-115031428D01*
X162895714Y-115031428D01*
X162952857Y-115060000D01*
X162981428Y-115088571D01*
X163010000Y-115145714D01*
X163010000Y-115231428D01*
X162981428Y-115288571D01*
X162952857Y-115317142D01*
X162895714Y-115345714D01*
X162667142Y-115345714D01*
X163238571Y-115088571D02*
X163267142Y-115060000D01*
X163324285Y-115031428D01*
X163467142Y-115031428D01*
X163524285Y-115060000D01*
X163552857Y-115088571D01*
X163581428Y-115145714D01*
X163581428Y-115202857D01*
X163552857Y-115288571D01*
X163210000Y-115631428D01*
X163581428Y-115631428D01*
X163050000Y-121021428D02*
X162850000Y-120735714D01*
X162707142Y-121021428D02*
X162707142Y-120421428D01*
X162935714Y-120421428D01*
X162992857Y-120450000D01*
X163021428Y-120478571D01*
X163050000Y-120535714D01*
X163050000Y-120621428D01*
X163021428Y-120678571D01*
X162992857Y-120707142D01*
X162935714Y-120735714D01*
X162707142Y-120735714D01*
X163621428Y-121021428D02*
X163278571Y-121021428D01*
X163450000Y-121021428D02*
X163450000Y-120421428D01*
X163392857Y-120507142D01*
X163335714Y-120564285D01*
X163278571Y-120592857D01*
X164082857Y-119648571D02*
X164025714Y-119620000D01*
X163968571Y-119562857D01*
X163882857Y-119477142D01*
X163825714Y-119448571D01*
X163768571Y-119448571D01*
X163797142Y-119591428D02*
X163740000Y-119562857D01*
X163682857Y-119505714D01*
X163654285Y-119391428D01*
X163654285Y-119191428D01*
X163682857Y-119077142D01*
X163740000Y-119020000D01*
X163797142Y-118991428D01*
X163911428Y-118991428D01*
X163968571Y-119020000D01*
X164025714Y-119077142D01*
X164054285Y-119191428D01*
X164054285Y-119391428D01*
X164025714Y-119505714D01*
X163968571Y-119562857D01*
X163911428Y-119591428D01*
X163797142Y-119591428D01*
X164625714Y-119591428D02*
X164282857Y-119591428D01*
X164454285Y-119591428D02*
X164454285Y-118991428D01*
X164397142Y-119077142D01*
X164340000Y-119134285D01*
X164282857Y-119162857D01*
X142971428Y-109792857D02*
X142371428Y-109792857D01*
X142371428Y-109650000D01*
X142400000Y-109564285D01*
X142457142Y-109507142D01*
X142514285Y-109478571D01*
X142628571Y-109450000D01*
X142714285Y-109450000D01*
X142828571Y-109478571D01*
X142885714Y-109507142D01*
X142942857Y-109564285D01*
X142971428Y-109650000D01*
X142971428Y-109792857D01*
X142971428Y-108878571D02*
X142971428Y-109221428D01*
X142971428Y-109050000D02*
X142371428Y-109050000D01*
X142457142Y-109107142D01*
X142514285Y-109164285D01*
X142542857Y-109221428D01*
X146004285Y-112280000D02*
X146032857Y-112308571D01*
X146061428Y-112394285D01*
X146061428Y-112451428D01*
X146032857Y-112537142D01*
X145975714Y-112594285D01*
X145918571Y-112622857D01*
X145804285Y-112651428D01*
X145718571Y-112651428D01*
X145604285Y-112622857D01*
X145547142Y-112594285D01*
X145490000Y-112537142D01*
X145461428Y-112451428D01*
X145461428Y-112394285D01*
X145490000Y-112308571D01*
X145518571Y-112280000D01*
X145461428Y-112080000D02*
X145461428Y-111708571D01*
X145690000Y-111908571D01*
X145690000Y-111822857D01*
X145718571Y-111765714D01*
X145747142Y-111737142D01*
X145804285Y-111708571D01*
X145947142Y-111708571D01*
X146004285Y-111737142D01*
X146032857Y-111765714D01*
X146061428Y-111822857D01*
X146061428Y-111994285D01*
X146032857Y-112051428D01*
X146004285Y-112080000D01*
X157634285Y-110360000D02*
X157662857Y-110388571D01*
X157691428Y-110474285D01*
X157691428Y-110531428D01*
X157662857Y-110617142D01*
X157605714Y-110674285D01*
X157548571Y-110702857D01*
X157434285Y-110731428D01*
X157348571Y-110731428D01*
X157234285Y-110702857D01*
X157177142Y-110674285D01*
X157120000Y-110617142D01*
X157091428Y-110531428D01*
X157091428Y-110474285D01*
X157120000Y-110388571D01*
X157148571Y-110360000D01*
X157148571Y-110131428D02*
X157120000Y-110102857D01*
X157091428Y-110045714D01*
X157091428Y-109902857D01*
X157120000Y-109845714D01*
X157148571Y-109817142D01*
X157205714Y-109788571D01*
X157262857Y-109788571D01*
X157348571Y-109817142D01*
X157691428Y-110160000D01*
X157691428Y-109788571D01*
X157614285Y-112630000D02*
X157642857Y-112658571D01*
X157671428Y-112744285D01*
X157671428Y-112801428D01*
X157642857Y-112887142D01*
X157585714Y-112944285D01*
X157528571Y-112972857D01*
X157414285Y-113001428D01*
X157328571Y-113001428D01*
X157214285Y-112972857D01*
X157157142Y-112944285D01*
X157100000Y-112887142D01*
X157071428Y-112801428D01*
X157071428Y-112744285D01*
X157100000Y-112658571D01*
X157128571Y-112630000D01*
X157671428Y-112058571D02*
X157671428Y-112401428D01*
X157671428Y-112230000D02*
X157071428Y-112230000D01*
X157157142Y-112287142D01*
X157214285Y-112344285D01*
X157242857Y-112401428D01*
M02*
