G04 #@! TF.GenerationSoftware,KiCad,Pcbnew,5.1.5+dfsg1-2~bpo10+1*
G04 #@! TF.CreationDate,2020-03-26T22:11:47+01:00*
G04 #@! TF.ProjectId,snickerdoodle-hdmi-breakout,736e6963-6b65-4726-946f-6f646c652d68,rev?*
G04 #@! TF.SameCoordinates,Original*
G04 #@! TF.FileFunction,Copper,L2,Inr*
G04 #@! TF.FilePolarity,Positive*
%FSLAX46Y46*%
G04 Gerber Fmt 4.6, Leading zero omitted, Abs format (unit mm)*
G04 Created by KiCad (PCBNEW 5.1.5+dfsg1-2~bpo10+1) date 2020-03-26 22:11:47*
%MOMM*%
%LPD*%
G04 APERTURE LIST*
%ADD10O,1.500000X3.300000*%
%ADD11O,1.500000X2.700000*%
%ADD12C,0.600000*%
%ADD13C,0.150000*%
G04 APERTURE END LIST*
D10*
X124990000Y-109670000D03*
X139490000Y-109670000D03*
D11*
X139490000Y-103670000D03*
X124990000Y-103670000D03*
D12*
X183147000Y-116490000D03*
X183157000Y-117180000D03*
X186267000Y-116710000D03*
X146490000Y-111800000D03*
X158100000Y-109470000D03*
X149420000Y-115050000D03*
X144470000Y-120870000D03*
X154780000Y-119340000D03*
X164110000Y-117430000D03*
X159440000Y-120310000D03*
X155140000Y-113590000D03*
X185490000Y-110970000D03*
X149220000Y-110740000D03*
X150490000Y-105520000D03*
X155590000Y-107575000D03*
X164470000Y-110820000D03*
X162120000Y-107020000D03*
X161610000Y-110660000D03*
X172080000Y-110940000D03*
X181020000Y-109860000D03*
X180110000Y-120510000D03*
X158080000Y-104720000D03*
X135390000Y-112610000D03*
X191520000Y-120180000D03*
X191520000Y-120940000D03*
X191520000Y-117860000D03*
X191520000Y-118630000D03*
X191520000Y-119410000D03*
X164079999Y-121239999D03*
X145820000Y-103820000D03*
X190070000Y-103350000D03*
X147830000Y-121235010D03*
X140480000Y-105360000D03*
X136750000Y-105390000D03*
X139800000Y-105950000D03*
X135390000Y-106050000D03*
X139760000Y-106800000D03*
X134750000Y-106600000D03*
X140300000Y-107560000D03*
X133750000Y-107480000D03*
X149560000Y-111640000D03*
X149410000Y-119240000D03*
X150210000Y-119240000D03*
X150800000Y-117060000D03*
X151600000Y-117060000D03*
X151217306Y-115038637D03*
X151217306Y-114238637D03*
X150360000Y-111640000D03*
X143450000Y-103052331D03*
X150510000Y-104580000D03*
X145210000Y-102840000D03*
X145956697Y-106720000D03*
X158990000Y-117370000D03*
X156880000Y-120210000D03*
X160640000Y-111500000D03*
X155840000Y-120200000D03*
X161930000Y-111500000D03*
X161920000Y-103720000D03*
X161290000Y-103140000D03*
X187230000Y-103360000D03*
X157100000Y-107360000D03*
X148520000Y-107031976D03*
X150320000Y-106500000D03*
X160483768Y-105736232D03*
X184257000Y-119120000D03*
X184400000Y-111230000D03*
D13*
G36*
X191995001Y-117535916D02*
G01*
X191966632Y-117493459D01*
X191886541Y-117413368D01*
X191792365Y-117350442D01*
X191687721Y-117307097D01*
X191576633Y-117285000D01*
X191463367Y-117285000D01*
X191352279Y-117307097D01*
X191247635Y-117350442D01*
X191153459Y-117413368D01*
X191073368Y-117493459D01*
X191010442Y-117587635D01*
X190967097Y-117692279D01*
X190945000Y-117803367D01*
X190945000Y-117916633D01*
X190967097Y-118027721D01*
X191010442Y-118132365D01*
X191073368Y-118226541D01*
X191091827Y-118245000D01*
X191073368Y-118263459D01*
X191010442Y-118357635D01*
X190967097Y-118462279D01*
X190945000Y-118573367D01*
X190945000Y-118686633D01*
X190967097Y-118797721D01*
X191010442Y-118902365D01*
X191073368Y-118996541D01*
X191096827Y-119020000D01*
X191073368Y-119043459D01*
X191010442Y-119137635D01*
X190967097Y-119242279D01*
X190945000Y-119353367D01*
X190945000Y-119466633D01*
X190967097Y-119577721D01*
X191010442Y-119682365D01*
X191073368Y-119776541D01*
X191091827Y-119795000D01*
X191073368Y-119813459D01*
X191010442Y-119907635D01*
X190967097Y-120012279D01*
X190945000Y-120123367D01*
X190945000Y-120236633D01*
X190967097Y-120347721D01*
X191010442Y-120452365D01*
X191073368Y-120546541D01*
X191086827Y-120560000D01*
X191073368Y-120573459D01*
X191010442Y-120667635D01*
X190967097Y-120772279D01*
X190945000Y-120883367D01*
X190945000Y-120996633D01*
X190967097Y-121107721D01*
X191010442Y-121212365D01*
X191073368Y-121306541D01*
X191153459Y-121386632D01*
X191247635Y-121449558D01*
X191352279Y-121492903D01*
X191463367Y-121515000D01*
X191576633Y-121515000D01*
X191687721Y-121492903D01*
X191792365Y-121449558D01*
X191886541Y-121386632D01*
X191966632Y-121306541D01*
X191995001Y-121264084D01*
X191995001Y-121825000D01*
X123125000Y-121825000D01*
X123125000Y-121178377D01*
X147255000Y-121178377D01*
X147255000Y-121291643D01*
X147277097Y-121402731D01*
X147320442Y-121507375D01*
X147383368Y-121601551D01*
X147463459Y-121681642D01*
X147557635Y-121744568D01*
X147662279Y-121787913D01*
X147773367Y-121810010D01*
X147886633Y-121810010D01*
X147997721Y-121787913D01*
X148102365Y-121744568D01*
X148196541Y-121681642D01*
X148276632Y-121601551D01*
X148339558Y-121507375D01*
X148382903Y-121402731D01*
X148405000Y-121291643D01*
X148405000Y-121183366D01*
X163504999Y-121183366D01*
X163504999Y-121296632D01*
X163527096Y-121407720D01*
X163570441Y-121512364D01*
X163633367Y-121606540D01*
X163713458Y-121686631D01*
X163807634Y-121749557D01*
X163912278Y-121792902D01*
X164023366Y-121814999D01*
X164136632Y-121814999D01*
X164247720Y-121792902D01*
X164352364Y-121749557D01*
X164446540Y-121686631D01*
X164526631Y-121606540D01*
X164589557Y-121512364D01*
X164632902Y-121407720D01*
X164654999Y-121296632D01*
X164654999Y-121183366D01*
X164632902Y-121072278D01*
X164589557Y-120967634D01*
X164526631Y-120873458D01*
X164446540Y-120793367D01*
X164352364Y-120730441D01*
X164247720Y-120687096D01*
X164136632Y-120664999D01*
X164023366Y-120664999D01*
X163912278Y-120687096D01*
X163807634Y-120730441D01*
X163713458Y-120793367D01*
X163633367Y-120873458D01*
X163570441Y-120967634D01*
X163527096Y-121072278D01*
X163504999Y-121183366D01*
X148405000Y-121183366D01*
X148405000Y-121178377D01*
X148382903Y-121067289D01*
X148339558Y-120962645D01*
X148276632Y-120868469D01*
X148196541Y-120788378D01*
X148102365Y-120725452D01*
X147997721Y-120682107D01*
X147886633Y-120660010D01*
X147773367Y-120660010D01*
X147662279Y-120682107D01*
X147557635Y-120725452D01*
X147463459Y-120788378D01*
X147383368Y-120868469D01*
X147320442Y-120962645D01*
X147277097Y-121067289D01*
X147255000Y-121178377D01*
X123125000Y-121178377D01*
X123125000Y-120143367D01*
X155265000Y-120143367D01*
X155265000Y-120256633D01*
X155287097Y-120367721D01*
X155330442Y-120472365D01*
X155393368Y-120566541D01*
X155473459Y-120646632D01*
X155567635Y-120709558D01*
X155672279Y-120752903D01*
X155783367Y-120775000D01*
X155896633Y-120775000D01*
X156007721Y-120752903D01*
X156112365Y-120709558D01*
X156206541Y-120646632D01*
X156286632Y-120566541D01*
X156349558Y-120472365D01*
X156357929Y-120452156D01*
X156370442Y-120482365D01*
X156433368Y-120576541D01*
X156513459Y-120656632D01*
X156607635Y-120719558D01*
X156712279Y-120762903D01*
X156823367Y-120785000D01*
X156936633Y-120785000D01*
X157047721Y-120762903D01*
X157152365Y-120719558D01*
X157246541Y-120656632D01*
X157326632Y-120576541D01*
X157389558Y-120482365D01*
X157432903Y-120377721D01*
X157455000Y-120266633D01*
X157455000Y-120153367D01*
X157432903Y-120042279D01*
X157389558Y-119937635D01*
X157326632Y-119843459D01*
X157246541Y-119763368D01*
X157152365Y-119700442D01*
X157047721Y-119657097D01*
X156936633Y-119635000D01*
X156823367Y-119635000D01*
X156712279Y-119657097D01*
X156607635Y-119700442D01*
X156513459Y-119763368D01*
X156433368Y-119843459D01*
X156370442Y-119937635D01*
X156362071Y-119957844D01*
X156349558Y-119927635D01*
X156286632Y-119833459D01*
X156206541Y-119753368D01*
X156112365Y-119690442D01*
X156007721Y-119647097D01*
X155896633Y-119625000D01*
X155783367Y-119625000D01*
X155672279Y-119647097D01*
X155567635Y-119690442D01*
X155473459Y-119753368D01*
X155393368Y-119833459D01*
X155330442Y-119927635D01*
X155287097Y-120032279D01*
X155265000Y-120143367D01*
X123125000Y-120143367D01*
X123125000Y-119183367D01*
X148835000Y-119183367D01*
X148835000Y-119296633D01*
X148857097Y-119407721D01*
X148900442Y-119512365D01*
X148963368Y-119606541D01*
X149043459Y-119686632D01*
X149137635Y-119749558D01*
X149242279Y-119792903D01*
X149353367Y-119815000D01*
X149466633Y-119815000D01*
X149577721Y-119792903D01*
X149682365Y-119749558D01*
X149776541Y-119686632D01*
X149810000Y-119653173D01*
X149843459Y-119686632D01*
X149937635Y-119749558D01*
X150042279Y-119792903D01*
X150153367Y-119815000D01*
X150266633Y-119815000D01*
X150377721Y-119792903D01*
X150482365Y-119749558D01*
X150576541Y-119686632D01*
X150656632Y-119606541D01*
X150719558Y-119512365D01*
X150762903Y-119407721D01*
X150785000Y-119296633D01*
X150785000Y-119183367D01*
X150762903Y-119072279D01*
X150759212Y-119063367D01*
X183682000Y-119063367D01*
X183682000Y-119176633D01*
X183704097Y-119287721D01*
X183747442Y-119392365D01*
X183810368Y-119486541D01*
X183890459Y-119566632D01*
X183984635Y-119629558D01*
X184089279Y-119672903D01*
X184200367Y-119695000D01*
X184313633Y-119695000D01*
X184424721Y-119672903D01*
X184529365Y-119629558D01*
X184623541Y-119566632D01*
X184703632Y-119486541D01*
X184766558Y-119392365D01*
X184809903Y-119287721D01*
X184832000Y-119176633D01*
X184832000Y-119063367D01*
X184809903Y-118952279D01*
X184766558Y-118847635D01*
X184703632Y-118753459D01*
X184623541Y-118673368D01*
X184529365Y-118610442D01*
X184424721Y-118567097D01*
X184313633Y-118545000D01*
X184200367Y-118545000D01*
X184089279Y-118567097D01*
X183984635Y-118610442D01*
X183890459Y-118673368D01*
X183810368Y-118753459D01*
X183747442Y-118847635D01*
X183704097Y-118952279D01*
X183682000Y-119063367D01*
X150759212Y-119063367D01*
X150719558Y-118967635D01*
X150656632Y-118873459D01*
X150576541Y-118793368D01*
X150482365Y-118730442D01*
X150377721Y-118687097D01*
X150266633Y-118665000D01*
X150153367Y-118665000D01*
X150042279Y-118687097D01*
X149937635Y-118730442D01*
X149843459Y-118793368D01*
X149810000Y-118826827D01*
X149776541Y-118793368D01*
X149682365Y-118730442D01*
X149577721Y-118687097D01*
X149466633Y-118665000D01*
X149353367Y-118665000D01*
X149242279Y-118687097D01*
X149137635Y-118730442D01*
X149043459Y-118793368D01*
X148963368Y-118873459D01*
X148900442Y-118967635D01*
X148857097Y-119072279D01*
X148835000Y-119183367D01*
X123125000Y-119183367D01*
X123125000Y-117003367D01*
X150225000Y-117003367D01*
X150225000Y-117116633D01*
X150247097Y-117227721D01*
X150290442Y-117332365D01*
X150353368Y-117426541D01*
X150433459Y-117506632D01*
X150527635Y-117569558D01*
X150632279Y-117612903D01*
X150743367Y-117635000D01*
X150856633Y-117635000D01*
X150967721Y-117612903D01*
X151072365Y-117569558D01*
X151166541Y-117506632D01*
X151200000Y-117473173D01*
X151233459Y-117506632D01*
X151327635Y-117569558D01*
X151432279Y-117612903D01*
X151543367Y-117635000D01*
X151656633Y-117635000D01*
X151767721Y-117612903D01*
X151872365Y-117569558D01*
X151966541Y-117506632D01*
X152046632Y-117426541D01*
X152109558Y-117332365D01*
X152117427Y-117313367D01*
X158415000Y-117313367D01*
X158415000Y-117426633D01*
X158437097Y-117537721D01*
X158480442Y-117642365D01*
X158543368Y-117736541D01*
X158623459Y-117816632D01*
X158717635Y-117879558D01*
X158822279Y-117922903D01*
X158933367Y-117945000D01*
X159046633Y-117945000D01*
X159157721Y-117922903D01*
X159262365Y-117879558D01*
X159356541Y-117816632D01*
X159436632Y-117736541D01*
X159499558Y-117642365D01*
X159542903Y-117537721D01*
X159565000Y-117426633D01*
X159565000Y-117313367D01*
X159542903Y-117202279D01*
X159499558Y-117097635D01*
X159436632Y-117003459D01*
X159356541Y-116923368D01*
X159262365Y-116860442D01*
X159157721Y-116817097D01*
X159046633Y-116795000D01*
X158933367Y-116795000D01*
X158822279Y-116817097D01*
X158717635Y-116860442D01*
X158623459Y-116923368D01*
X158543368Y-117003459D01*
X158480442Y-117097635D01*
X158437097Y-117202279D01*
X158415000Y-117313367D01*
X152117427Y-117313367D01*
X152152903Y-117227721D01*
X152175000Y-117116633D01*
X152175000Y-117003367D01*
X152152903Y-116892279D01*
X152109558Y-116787635D01*
X152046632Y-116693459D01*
X151966541Y-116613368D01*
X151872365Y-116550442D01*
X151767721Y-116507097D01*
X151656633Y-116485000D01*
X151543367Y-116485000D01*
X151432279Y-116507097D01*
X151327635Y-116550442D01*
X151233459Y-116613368D01*
X151200000Y-116646827D01*
X151166541Y-116613368D01*
X151072365Y-116550442D01*
X150967721Y-116507097D01*
X150856633Y-116485000D01*
X150743367Y-116485000D01*
X150632279Y-116507097D01*
X150527635Y-116550442D01*
X150433459Y-116613368D01*
X150353368Y-116693459D01*
X150290442Y-116787635D01*
X150247097Y-116892279D01*
X150225000Y-117003367D01*
X123125000Y-117003367D01*
X123125000Y-114182004D01*
X150642306Y-114182004D01*
X150642306Y-114295270D01*
X150664403Y-114406358D01*
X150707748Y-114511002D01*
X150770674Y-114605178D01*
X150804133Y-114638637D01*
X150770674Y-114672096D01*
X150707748Y-114766272D01*
X150664403Y-114870916D01*
X150642306Y-114982004D01*
X150642306Y-115095270D01*
X150664403Y-115206358D01*
X150707748Y-115311002D01*
X150770674Y-115405178D01*
X150850765Y-115485269D01*
X150944941Y-115548195D01*
X151049585Y-115591540D01*
X151160673Y-115613637D01*
X151273939Y-115613637D01*
X151385027Y-115591540D01*
X151489671Y-115548195D01*
X151583847Y-115485269D01*
X151663938Y-115405178D01*
X151726864Y-115311002D01*
X151770209Y-115206358D01*
X151792306Y-115095270D01*
X151792306Y-114982004D01*
X151770209Y-114870916D01*
X151726864Y-114766272D01*
X151663938Y-114672096D01*
X151630479Y-114638637D01*
X151663938Y-114605178D01*
X151726864Y-114511002D01*
X151770209Y-114406358D01*
X151792306Y-114295270D01*
X151792306Y-114182004D01*
X151770209Y-114070916D01*
X151726864Y-113966272D01*
X151663938Y-113872096D01*
X151583847Y-113792005D01*
X151489671Y-113729079D01*
X151385027Y-113685734D01*
X151273939Y-113663637D01*
X151160673Y-113663637D01*
X151049585Y-113685734D01*
X150944941Y-113729079D01*
X150850765Y-113792005D01*
X150770674Y-113872096D01*
X150707748Y-113966272D01*
X150664403Y-114070916D01*
X150642306Y-114182004D01*
X123125000Y-114182004D01*
X123125000Y-108719650D01*
X123965000Y-108719650D01*
X123965001Y-110620351D01*
X123979832Y-110770935D01*
X124038443Y-110964148D01*
X124133621Y-111142215D01*
X124261710Y-111298291D01*
X124417786Y-111426380D01*
X124595853Y-111521558D01*
X124789066Y-111580169D01*
X124990000Y-111599959D01*
X125190935Y-111580169D01*
X125384148Y-111521558D01*
X125562215Y-111426380D01*
X125718291Y-111298291D01*
X125846380Y-111142215D01*
X125941558Y-110964148D01*
X126000169Y-110770935D01*
X126015000Y-110620351D01*
X126015000Y-108719649D01*
X126000169Y-108569065D01*
X125941558Y-108375852D01*
X125846380Y-108197785D01*
X125718291Y-108041709D01*
X125562215Y-107913620D01*
X125384147Y-107818442D01*
X125190934Y-107759831D01*
X124990000Y-107740041D01*
X124789065Y-107759831D01*
X124595852Y-107818442D01*
X124417785Y-107913620D01*
X124261709Y-108041709D01*
X124133620Y-108197785D01*
X124038442Y-108375853D01*
X123979831Y-108569066D01*
X123965000Y-108719650D01*
X123125000Y-108719650D01*
X123125000Y-107423367D01*
X133175000Y-107423367D01*
X133175000Y-107536633D01*
X133197097Y-107647721D01*
X133240442Y-107752365D01*
X133303368Y-107846541D01*
X133383459Y-107926632D01*
X133477635Y-107989558D01*
X133582279Y-108032903D01*
X133693367Y-108055000D01*
X133806633Y-108055000D01*
X133917721Y-108032903D01*
X134022365Y-107989558D01*
X134116541Y-107926632D01*
X134196632Y-107846541D01*
X134259558Y-107752365D01*
X134302903Y-107647721D01*
X134325000Y-107536633D01*
X134325000Y-107423367D01*
X134302903Y-107312279D01*
X134259558Y-107207635D01*
X134196632Y-107113459D01*
X134116541Y-107033368D01*
X134022365Y-106970442D01*
X133917721Y-106927097D01*
X133806633Y-106905000D01*
X133693367Y-106905000D01*
X133582279Y-106927097D01*
X133477635Y-106970442D01*
X133383459Y-107033368D01*
X133303368Y-107113459D01*
X133240442Y-107207635D01*
X133197097Y-107312279D01*
X133175000Y-107423367D01*
X123125000Y-107423367D01*
X123125000Y-106543367D01*
X134175000Y-106543367D01*
X134175000Y-106656633D01*
X134197097Y-106767721D01*
X134240442Y-106872365D01*
X134303368Y-106966541D01*
X134383459Y-107046632D01*
X134477635Y-107109558D01*
X134582279Y-107152903D01*
X134693367Y-107175000D01*
X134806633Y-107175000D01*
X134917721Y-107152903D01*
X135022365Y-107109558D01*
X135116541Y-107046632D01*
X135196632Y-106966541D01*
X135259558Y-106872365D01*
X135302903Y-106767721D01*
X135325000Y-106656633D01*
X135325000Y-106623336D01*
X135333367Y-106625000D01*
X135446633Y-106625000D01*
X135557721Y-106602903D01*
X135662365Y-106559558D01*
X135756541Y-106496632D01*
X135836632Y-106416541D01*
X135899558Y-106322365D01*
X135942903Y-106217721D01*
X135965000Y-106106633D01*
X135965000Y-105993367D01*
X135942903Y-105882279D01*
X135899558Y-105777635D01*
X135836632Y-105683459D01*
X135756541Y-105603368D01*
X135662365Y-105540442D01*
X135557721Y-105497097D01*
X135446633Y-105475000D01*
X135333367Y-105475000D01*
X135222279Y-105497097D01*
X135117635Y-105540442D01*
X135023459Y-105603368D01*
X134943368Y-105683459D01*
X134880442Y-105777635D01*
X134837097Y-105882279D01*
X134815000Y-105993367D01*
X134815000Y-106026664D01*
X134806633Y-106025000D01*
X134693367Y-106025000D01*
X134582279Y-106047097D01*
X134477635Y-106090442D01*
X134383459Y-106153368D01*
X134303368Y-106233459D01*
X134240442Y-106327635D01*
X134197097Y-106432279D01*
X134175000Y-106543367D01*
X123125000Y-106543367D01*
X123125000Y-105333367D01*
X136175000Y-105333367D01*
X136175000Y-105446633D01*
X136197097Y-105557721D01*
X136240442Y-105662365D01*
X136303368Y-105756541D01*
X136383459Y-105836632D01*
X136477635Y-105899558D01*
X136582279Y-105942903D01*
X136693367Y-105965000D01*
X136806633Y-105965000D01*
X136917721Y-105942903D01*
X137022365Y-105899558D01*
X137116541Y-105836632D01*
X137196632Y-105756541D01*
X137259558Y-105662365D01*
X137302903Y-105557721D01*
X137325000Y-105446633D01*
X137325000Y-105333367D01*
X137302903Y-105222279D01*
X137259558Y-105117635D01*
X137196632Y-105023459D01*
X137116541Y-104943368D01*
X137022365Y-104880442D01*
X136917721Y-104837097D01*
X136806633Y-104815000D01*
X136693367Y-104815000D01*
X136582279Y-104837097D01*
X136477635Y-104880442D01*
X136383459Y-104943368D01*
X136303368Y-105023459D01*
X136240442Y-105117635D01*
X136197097Y-105222279D01*
X136175000Y-105333367D01*
X123125000Y-105333367D01*
X123125000Y-103019650D01*
X123965000Y-103019650D01*
X123965001Y-104320351D01*
X123979832Y-104470935D01*
X124038443Y-104664148D01*
X124133621Y-104842215D01*
X124261710Y-104998291D01*
X124417786Y-105126380D01*
X124595853Y-105221558D01*
X124789066Y-105280169D01*
X124990000Y-105299959D01*
X125190935Y-105280169D01*
X125384148Y-105221558D01*
X125562215Y-105126380D01*
X125718291Y-104998291D01*
X125846380Y-104842215D01*
X125941558Y-104664148D01*
X126000169Y-104470935D01*
X126015000Y-104320351D01*
X126015000Y-103019650D01*
X138465000Y-103019650D01*
X138465001Y-104320351D01*
X138479832Y-104470935D01*
X138538443Y-104664148D01*
X138633621Y-104842215D01*
X138761710Y-104998291D01*
X138917786Y-105126380D01*
X139095853Y-105221558D01*
X139289066Y-105280169D01*
X139490000Y-105299959D01*
X139690935Y-105280169D01*
X139884148Y-105221558D01*
X139925690Y-105199354D01*
X139905000Y-105303367D01*
X139905000Y-105384621D01*
X139856633Y-105375000D01*
X139743367Y-105375000D01*
X139632279Y-105397097D01*
X139527635Y-105440442D01*
X139433459Y-105503368D01*
X139353368Y-105583459D01*
X139290442Y-105677635D01*
X139247097Y-105782279D01*
X139225000Y-105893367D01*
X139225000Y-106006633D01*
X139247097Y-106117721D01*
X139290442Y-106222365D01*
X139353368Y-106316541D01*
X139391827Y-106355000D01*
X139313368Y-106433459D01*
X139250442Y-106527635D01*
X139207097Y-106632279D01*
X139185000Y-106743367D01*
X139185000Y-106856633D01*
X139207097Y-106967721D01*
X139250442Y-107072365D01*
X139313368Y-107166541D01*
X139393459Y-107246632D01*
X139487635Y-107309558D01*
X139592279Y-107352903D01*
X139703367Y-107375000D01*
X139754254Y-107375000D01*
X139747097Y-107392279D01*
X139725000Y-107503367D01*
X139725000Y-107616633D01*
X139747097Y-107727721D01*
X139770380Y-107783931D01*
X139690934Y-107759831D01*
X139490000Y-107740041D01*
X139289065Y-107759831D01*
X139095852Y-107818442D01*
X138917785Y-107913620D01*
X138761709Y-108041709D01*
X138633620Y-108197785D01*
X138538442Y-108375853D01*
X138479831Y-108569066D01*
X138465000Y-108719650D01*
X138465001Y-110620351D01*
X138479832Y-110770935D01*
X138538443Y-110964148D01*
X138633621Y-111142215D01*
X138761710Y-111298291D01*
X138917786Y-111426380D01*
X139095853Y-111521558D01*
X139289066Y-111580169D01*
X139490000Y-111599959D01*
X139658464Y-111583367D01*
X148985000Y-111583367D01*
X148985000Y-111696633D01*
X149007097Y-111807721D01*
X149050442Y-111912365D01*
X149113368Y-112006541D01*
X149193459Y-112086632D01*
X149287635Y-112149558D01*
X149392279Y-112192903D01*
X149503367Y-112215000D01*
X149616633Y-112215000D01*
X149727721Y-112192903D01*
X149832365Y-112149558D01*
X149926541Y-112086632D01*
X149960000Y-112053173D01*
X149993459Y-112086632D01*
X150087635Y-112149558D01*
X150192279Y-112192903D01*
X150303367Y-112215000D01*
X150416633Y-112215000D01*
X150527721Y-112192903D01*
X150632365Y-112149558D01*
X150726541Y-112086632D01*
X150806632Y-112006541D01*
X150869558Y-111912365D01*
X150912903Y-111807721D01*
X150935000Y-111696633D01*
X150935000Y-111583367D01*
X150912903Y-111472279D01*
X150900928Y-111443367D01*
X160065000Y-111443367D01*
X160065000Y-111556633D01*
X160087097Y-111667721D01*
X160130442Y-111772365D01*
X160193368Y-111866541D01*
X160273459Y-111946632D01*
X160367635Y-112009558D01*
X160472279Y-112052903D01*
X160583367Y-112075000D01*
X160696633Y-112075000D01*
X160807721Y-112052903D01*
X160912365Y-112009558D01*
X161006541Y-111946632D01*
X161086632Y-111866541D01*
X161149558Y-111772365D01*
X161192903Y-111667721D01*
X161215000Y-111556633D01*
X161215000Y-111443367D01*
X161355000Y-111443367D01*
X161355000Y-111556633D01*
X161377097Y-111667721D01*
X161420442Y-111772365D01*
X161483368Y-111866541D01*
X161563459Y-111946632D01*
X161657635Y-112009558D01*
X161762279Y-112052903D01*
X161873367Y-112075000D01*
X161986633Y-112075000D01*
X162097721Y-112052903D01*
X162202365Y-112009558D01*
X162296541Y-111946632D01*
X162376632Y-111866541D01*
X162439558Y-111772365D01*
X162482903Y-111667721D01*
X162505000Y-111556633D01*
X162505000Y-111443367D01*
X162482903Y-111332279D01*
X162439558Y-111227635D01*
X162403298Y-111173367D01*
X183825000Y-111173367D01*
X183825000Y-111286633D01*
X183847097Y-111397721D01*
X183890442Y-111502365D01*
X183953368Y-111596541D01*
X184033459Y-111676632D01*
X184127635Y-111739558D01*
X184232279Y-111782903D01*
X184343367Y-111805000D01*
X184456633Y-111805000D01*
X184567721Y-111782903D01*
X184672365Y-111739558D01*
X184766541Y-111676632D01*
X184846632Y-111596541D01*
X184909558Y-111502365D01*
X184952903Y-111397721D01*
X184975000Y-111286633D01*
X184975000Y-111173367D01*
X184952903Y-111062279D01*
X184909558Y-110957635D01*
X184846632Y-110863459D01*
X184766541Y-110783368D01*
X184672365Y-110720442D01*
X184567721Y-110677097D01*
X184456633Y-110655000D01*
X184343367Y-110655000D01*
X184232279Y-110677097D01*
X184127635Y-110720442D01*
X184033459Y-110783368D01*
X183953368Y-110863459D01*
X183890442Y-110957635D01*
X183847097Y-111062279D01*
X183825000Y-111173367D01*
X162403298Y-111173367D01*
X162376632Y-111133459D01*
X162296541Y-111053368D01*
X162202365Y-110990442D01*
X162097721Y-110947097D01*
X161986633Y-110925000D01*
X161873367Y-110925000D01*
X161762279Y-110947097D01*
X161657635Y-110990442D01*
X161563459Y-111053368D01*
X161483368Y-111133459D01*
X161420442Y-111227635D01*
X161377097Y-111332279D01*
X161355000Y-111443367D01*
X161215000Y-111443367D01*
X161192903Y-111332279D01*
X161149558Y-111227635D01*
X161086632Y-111133459D01*
X161006541Y-111053368D01*
X160912365Y-110990442D01*
X160807721Y-110947097D01*
X160696633Y-110925000D01*
X160583367Y-110925000D01*
X160472279Y-110947097D01*
X160367635Y-110990442D01*
X160273459Y-111053368D01*
X160193368Y-111133459D01*
X160130442Y-111227635D01*
X160087097Y-111332279D01*
X160065000Y-111443367D01*
X150900928Y-111443367D01*
X150869558Y-111367635D01*
X150806632Y-111273459D01*
X150726541Y-111193368D01*
X150632365Y-111130442D01*
X150527721Y-111087097D01*
X150416633Y-111065000D01*
X150303367Y-111065000D01*
X150192279Y-111087097D01*
X150087635Y-111130442D01*
X149993459Y-111193368D01*
X149960000Y-111226827D01*
X149926541Y-111193368D01*
X149832365Y-111130442D01*
X149727721Y-111087097D01*
X149616633Y-111065000D01*
X149503367Y-111065000D01*
X149392279Y-111087097D01*
X149287635Y-111130442D01*
X149193459Y-111193368D01*
X149113368Y-111273459D01*
X149050442Y-111367635D01*
X149007097Y-111472279D01*
X148985000Y-111583367D01*
X139658464Y-111583367D01*
X139690935Y-111580169D01*
X139884148Y-111521558D01*
X140062215Y-111426380D01*
X140218291Y-111298291D01*
X140346380Y-111142215D01*
X140441558Y-110964148D01*
X140500169Y-110770935D01*
X140515000Y-110620351D01*
X140515000Y-108719649D01*
X140500169Y-108569065D01*
X140441558Y-108375852D01*
X140346380Y-108197785D01*
X140294853Y-108135000D01*
X140356633Y-108135000D01*
X140467721Y-108112903D01*
X140572365Y-108069558D01*
X140666541Y-108006632D01*
X140746632Y-107926541D01*
X140809558Y-107832365D01*
X140852903Y-107727721D01*
X140875000Y-107616633D01*
X140875000Y-107503367D01*
X140852903Y-107392279D01*
X140809558Y-107287635D01*
X140746632Y-107193459D01*
X140666541Y-107113368D01*
X140572365Y-107050442D01*
X140467721Y-107007097D01*
X140356633Y-106985000D01*
X140305746Y-106985000D01*
X140312903Y-106967721D01*
X140335000Y-106856633D01*
X140335000Y-106743367D01*
X140319087Y-106663367D01*
X145381697Y-106663367D01*
X145381697Y-106776633D01*
X145403794Y-106887721D01*
X145447139Y-106992365D01*
X145510065Y-107086541D01*
X145590156Y-107166632D01*
X145684332Y-107229558D01*
X145788976Y-107272903D01*
X145900064Y-107295000D01*
X146013330Y-107295000D01*
X146124418Y-107272903D01*
X146229062Y-107229558D01*
X146323238Y-107166632D01*
X146403329Y-107086541D01*
X146466255Y-106992365D01*
X146473305Y-106975343D01*
X147945000Y-106975343D01*
X147945000Y-107088609D01*
X147967097Y-107199697D01*
X148010442Y-107304341D01*
X148073368Y-107398517D01*
X148153459Y-107478608D01*
X148247635Y-107541534D01*
X148352279Y-107584879D01*
X148463367Y-107606976D01*
X148576633Y-107606976D01*
X148687721Y-107584879D01*
X148792365Y-107541534D01*
X148886541Y-107478608D01*
X148966632Y-107398517D01*
X149029558Y-107304341D01*
X149029961Y-107303367D01*
X156525000Y-107303367D01*
X156525000Y-107416633D01*
X156547097Y-107527721D01*
X156590442Y-107632365D01*
X156653368Y-107726541D01*
X156733459Y-107806632D01*
X156827635Y-107869558D01*
X156932279Y-107912903D01*
X157043367Y-107935000D01*
X157156633Y-107935000D01*
X157267721Y-107912903D01*
X157372365Y-107869558D01*
X157466541Y-107806632D01*
X157546632Y-107726541D01*
X157609558Y-107632365D01*
X157652903Y-107527721D01*
X157675000Y-107416633D01*
X157675000Y-107303367D01*
X157652903Y-107192279D01*
X157609558Y-107087635D01*
X157546632Y-106993459D01*
X157466541Y-106913368D01*
X157372365Y-106850442D01*
X157267721Y-106807097D01*
X157156633Y-106785000D01*
X157043367Y-106785000D01*
X156932279Y-106807097D01*
X156827635Y-106850442D01*
X156733459Y-106913368D01*
X156653368Y-106993459D01*
X156590442Y-107087635D01*
X156547097Y-107192279D01*
X156525000Y-107303367D01*
X149029961Y-107303367D01*
X149072903Y-107199697D01*
X149095000Y-107088609D01*
X149095000Y-106975343D01*
X149072903Y-106864255D01*
X149029558Y-106759611D01*
X148966632Y-106665435D01*
X148886541Y-106585344D01*
X148792365Y-106522418D01*
X148687721Y-106479073D01*
X148576633Y-106456976D01*
X148463367Y-106456976D01*
X148352279Y-106479073D01*
X148247635Y-106522418D01*
X148153459Y-106585344D01*
X148073368Y-106665435D01*
X148010442Y-106759611D01*
X147967097Y-106864255D01*
X147945000Y-106975343D01*
X146473305Y-106975343D01*
X146509600Y-106887721D01*
X146531697Y-106776633D01*
X146531697Y-106663367D01*
X146509600Y-106552279D01*
X146466255Y-106447635D01*
X146463404Y-106443367D01*
X149745000Y-106443367D01*
X149745000Y-106556633D01*
X149767097Y-106667721D01*
X149810442Y-106772365D01*
X149873368Y-106866541D01*
X149953459Y-106946632D01*
X150047635Y-107009558D01*
X150152279Y-107052903D01*
X150263367Y-107075000D01*
X150376633Y-107075000D01*
X150487721Y-107052903D01*
X150592365Y-107009558D01*
X150686541Y-106946632D01*
X150766632Y-106866541D01*
X150829558Y-106772365D01*
X150872903Y-106667721D01*
X150895000Y-106556633D01*
X150895000Y-106443367D01*
X150872903Y-106332279D01*
X150829558Y-106227635D01*
X150766632Y-106133459D01*
X150686541Y-106053368D01*
X150592365Y-105990442D01*
X150487721Y-105947097D01*
X150376633Y-105925000D01*
X150263367Y-105925000D01*
X150152279Y-105947097D01*
X150047635Y-105990442D01*
X149953459Y-106053368D01*
X149873368Y-106133459D01*
X149810442Y-106227635D01*
X149767097Y-106332279D01*
X149745000Y-106443367D01*
X146463404Y-106443367D01*
X146403329Y-106353459D01*
X146323238Y-106273368D01*
X146229062Y-106210442D01*
X146124418Y-106167097D01*
X146013330Y-106145000D01*
X145900064Y-106145000D01*
X145788976Y-106167097D01*
X145684332Y-106210442D01*
X145590156Y-106273368D01*
X145510065Y-106353459D01*
X145447139Y-106447635D01*
X145403794Y-106552279D01*
X145381697Y-106663367D01*
X140319087Y-106663367D01*
X140312903Y-106632279D01*
X140269558Y-106527635D01*
X140206632Y-106433459D01*
X140168173Y-106395000D01*
X140246632Y-106316541D01*
X140309558Y-106222365D01*
X140352903Y-106117721D01*
X140375000Y-106006633D01*
X140375000Y-105925379D01*
X140423367Y-105935000D01*
X140536633Y-105935000D01*
X140647721Y-105912903D01*
X140752365Y-105869558D01*
X140846541Y-105806632D01*
X140926632Y-105726541D01*
X140957997Y-105679599D01*
X159908768Y-105679599D01*
X159908768Y-105792865D01*
X159930865Y-105903953D01*
X159974210Y-106008597D01*
X160037136Y-106102773D01*
X160117227Y-106182864D01*
X160211403Y-106245790D01*
X160316047Y-106289135D01*
X160427135Y-106311232D01*
X160540401Y-106311232D01*
X160651489Y-106289135D01*
X160756133Y-106245790D01*
X160850309Y-106182864D01*
X160930400Y-106102773D01*
X160993326Y-106008597D01*
X161036671Y-105903953D01*
X161058768Y-105792865D01*
X161058768Y-105679599D01*
X161036671Y-105568511D01*
X160993326Y-105463867D01*
X160930400Y-105369691D01*
X160850309Y-105289600D01*
X160756133Y-105226674D01*
X160651489Y-105183329D01*
X160540401Y-105161232D01*
X160427135Y-105161232D01*
X160316047Y-105183329D01*
X160211403Y-105226674D01*
X160117227Y-105289600D01*
X160037136Y-105369691D01*
X159974210Y-105463867D01*
X159930865Y-105568511D01*
X159908768Y-105679599D01*
X140957997Y-105679599D01*
X140989558Y-105632365D01*
X141032903Y-105527721D01*
X141055000Y-105416633D01*
X141055000Y-105303367D01*
X141032903Y-105192279D01*
X140989558Y-105087635D01*
X140926632Y-104993459D01*
X140846541Y-104913368D01*
X140752365Y-104850442D01*
X140647721Y-104807097D01*
X140536633Y-104785000D01*
X140423367Y-104785000D01*
X140371441Y-104795329D01*
X140441558Y-104664148D01*
X140484263Y-104523367D01*
X149935000Y-104523367D01*
X149935000Y-104636633D01*
X149957097Y-104747721D01*
X150000442Y-104852365D01*
X150063368Y-104946541D01*
X150143459Y-105026632D01*
X150237635Y-105089558D01*
X150342279Y-105132903D01*
X150453367Y-105155000D01*
X150566633Y-105155000D01*
X150677721Y-105132903D01*
X150782365Y-105089558D01*
X150876541Y-105026632D01*
X150956632Y-104946541D01*
X151019558Y-104852365D01*
X151062903Y-104747721D01*
X151085000Y-104636633D01*
X151085000Y-104523367D01*
X151062903Y-104412279D01*
X151019558Y-104307635D01*
X150956632Y-104213459D01*
X150876541Y-104133368D01*
X150782365Y-104070442D01*
X150677721Y-104027097D01*
X150566633Y-104005000D01*
X150453367Y-104005000D01*
X150342279Y-104027097D01*
X150237635Y-104070442D01*
X150143459Y-104133368D01*
X150063368Y-104213459D01*
X150000442Y-104307635D01*
X149957097Y-104412279D01*
X149935000Y-104523367D01*
X140484263Y-104523367D01*
X140500169Y-104470935D01*
X140515000Y-104320351D01*
X140515000Y-103763367D01*
X145245000Y-103763367D01*
X145245000Y-103876633D01*
X145267097Y-103987721D01*
X145310442Y-104092365D01*
X145373368Y-104186541D01*
X145453459Y-104266632D01*
X145547635Y-104329558D01*
X145652279Y-104372903D01*
X145763367Y-104395000D01*
X145876633Y-104395000D01*
X145987721Y-104372903D01*
X146092365Y-104329558D01*
X146186541Y-104266632D01*
X146266632Y-104186541D01*
X146329558Y-104092365D01*
X146372903Y-103987721D01*
X146395000Y-103876633D01*
X146395000Y-103763367D01*
X146372903Y-103652279D01*
X146329558Y-103547635D01*
X146266632Y-103453459D01*
X146186541Y-103373368D01*
X146092365Y-103310442D01*
X145987721Y-103267097D01*
X145876633Y-103245000D01*
X145763367Y-103245000D01*
X145652279Y-103267097D01*
X145547635Y-103310442D01*
X145453459Y-103373368D01*
X145373368Y-103453459D01*
X145310442Y-103547635D01*
X145267097Y-103652279D01*
X145245000Y-103763367D01*
X140515000Y-103763367D01*
X140515000Y-103019649D01*
X140512642Y-102995698D01*
X142875000Y-102995698D01*
X142875000Y-103108964D01*
X142897097Y-103220052D01*
X142940442Y-103324696D01*
X143003368Y-103418872D01*
X143083459Y-103498963D01*
X143177635Y-103561889D01*
X143282279Y-103605234D01*
X143393367Y-103627331D01*
X143506633Y-103627331D01*
X143617721Y-103605234D01*
X143722365Y-103561889D01*
X143816541Y-103498963D01*
X143896632Y-103418872D01*
X143959558Y-103324696D01*
X144002903Y-103220052D01*
X144025000Y-103108964D01*
X144025000Y-102995698D01*
X144002903Y-102884610D01*
X143960967Y-102783367D01*
X144635000Y-102783367D01*
X144635000Y-102896633D01*
X144657097Y-103007721D01*
X144700442Y-103112365D01*
X144763368Y-103206541D01*
X144843459Y-103286632D01*
X144937635Y-103349558D01*
X145042279Y-103392903D01*
X145153367Y-103415000D01*
X145266633Y-103415000D01*
X145377721Y-103392903D01*
X145482365Y-103349558D01*
X145576541Y-103286632D01*
X145656632Y-103206541D01*
X145719558Y-103112365D01*
X145731569Y-103083367D01*
X160715000Y-103083367D01*
X160715000Y-103196633D01*
X160737097Y-103307721D01*
X160780442Y-103412365D01*
X160843368Y-103506541D01*
X160923459Y-103586632D01*
X161017635Y-103649558D01*
X161122279Y-103692903D01*
X161233367Y-103715000D01*
X161345000Y-103715000D01*
X161345000Y-103776633D01*
X161367097Y-103887721D01*
X161410442Y-103992365D01*
X161473368Y-104086541D01*
X161553459Y-104166632D01*
X161647635Y-104229558D01*
X161752279Y-104272903D01*
X161863367Y-104295000D01*
X161976633Y-104295000D01*
X162087721Y-104272903D01*
X162192365Y-104229558D01*
X162286541Y-104166632D01*
X162366632Y-104086541D01*
X162429558Y-103992365D01*
X162472903Y-103887721D01*
X162495000Y-103776633D01*
X162495000Y-103663367D01*
X162472903Y-103552279D01*
X162429558Y-103447635D01*
X162366632Y-103353459D01*
X162316540Y-103303367D01*
X186655000Y-103303367D01*
X186655000Y-103416633D01*
X186677097Y-103527721D01*
X186720442Y-103632365D01*
X186783368Y-103726541D01*
X186863459Y-103806632D01*
X186957635Y-103869558D01*
X187062279Y-103912903D01*
X187173367Y-103935000D01*
X187286633Y-103935000D01*
X187397721Y-103912903D01*
X187502365Y-103869558D01*
X187596541Y-103806632D01*
X187676632Y-103726541D01*
X187739558Y-103632365D01*
X187782903Y-103527721D01*
X187805000Y-103416633D01*
X187805000Y-103303367D01*
X187803011Y-103293367D01*
X189495000Y-103293367D01*
X189495000Y-103406633D01*
X189517097Y-103517721D01*
X189560442Y-103622365D01*
X189623368Y-103716541D01*
X189703459Y-103796632D01*
X189797635Y-103859558D01*
X189902279Y-103902903D01*
X190013367Y-103925000D01*
X190126633Y-103925000D01*
X190237721Y-103902903D01*
X190342365Y-103859558D01*
X190436541Y-103796632D01*
X190516632Y-103716541D01*
X190579558Y-103622365D01*
X190622903Y-103517721D01*
X190645000Y-103406633D01*
X190645000Y-103293367D01*
X190622903Y-103182279D01*
X190579558Y-103077635D01*
X190516632Y-102983459D01*
X190436541Y-102903368D01*
X190342365Y-102840442D01*
X190237721Y-102797097D01*
X190126633Y-102775000D01*
X190013367Y-102775000D01*
X189902279Y-102797097D01*
X189797635Y-102840442D01*
X189703459Y-102903368D01*
X189623368Y-102983459D01*
X189560442Y-103077635D01*
X189517097Y-103182279D01*
X189495000Y-103293367D01*
X187803011Y-103293367D01*
X187782903Y-103192279D01*
X187739558Y-103087635D01*
X187676632Y-102993459D01*
X187596541Y-102913368D01*
X187502365Y-102850442D01*
X187397721Y-102807097D01*
X187286633Y-102785000D01*
X187173367Y-102785000D01*
X187062279Y-102807097D01*
X186957635Y-102850442D01*
X186863459Y-102913368D01*
X186783368Y-102993459D01*
X186720442Y-103087635D01*
X186677097Y-103192279D01*
X186655000Y-103303367D01*
X162316540Y-103303367D01*
X162286541Y-103273368D01*
X162192365Y-103210442D01*
X162087721Y-103167097D01*
X161976633Y-103145000D01*
X161865000Y-103145000D01*
X161865000Y-103083367D01*
X161842903Y-102972279D01*
X161799558Y-102867635D01*
X161736632Y-102773459D01*
X161656541Y-102693368D01*
X161562365Y-102630442D01*
X161457721Y-102587097D01*
X161346633Y-102565000D01*
X161233367Y-102565000D01*
X161122279Y-102587097D01*
X161017635Y-102630442D01*
X160923459Y-102693368D01*
X160843368Y-102773459D01*
X160780442Y-102867635D01*
X160737097Y-102972279D01*
X160715000Y-103083367D01*
X145731569Y-103083367D01*
X145762903Y-103007721D01*
X145785000Y-102896633D01*
X145785000Y-102783367D01*
X145762903Y-102672279D01*
X145719558Y-102567635D01*
X145656632Y-102473459D01*
X145576541Y-102393368D01*
X145482365Y-102330442D01*
X145377721Y-102287097D01*
X145266633Y-102265000D01*
X145153367Y-102265000D01*
X145042279Y-102287097D01*
X144937635Y-102330442D01*
X144843459Y-102393368D01*
X144763368Y-102473459D01*
X144700442Y-102567635D01*
X144657097Y-102672279D01*
X144635000Y-102783367D01*
X143960967Y-102783367D01*
X143959558Y-102779966D01*
X143896632Y-102685790D01*
X143816541Y-102605699D01*
X143722365Y-102542773D01*
X143617721Y-102499428D01*
X143506633Y-102477331D01*
X143393367Y-102477331D01*
X143282279Y-102499428D01*
X143177635Y-102542773D01*
X143083459Y-102605699D01*
X143003368Y-102685790D01*
X142940442Y-102779966D01*
X142897097Y-102884610D01*
X142875000Y-102995698D01*
X140512642Y-102995698D01*
X140500169Y-102869065D01*
X140441558Y-102675852D01*
X140346380Y-102497785D01*
X140218291Y-102341709D01*
X140062215Y-102213620D01*
X139884147Y-102118442D01*
X139690934Y-102059831D01*
X139490000Y-102040041D01*
X139289065Y-102059831D01*
X139095852Y-102118442D01*
X138917785Y-102213620D01*
X138761709Y-102341709D01*
X138633620Y-102497785D01*
X138538442Y-102675853D01*
X138479831Y-102869066D01*
X138465000Y-103019650D01*
X126015000Y-103019650D01*
X126015000Y-103019649D01*
X126000169Y-102869065D01*
X125941558Y-102675852D01*
X125846380Y-102497785D01*
X125718291Y-102341709D01*
X125562215Y-102213620D01*
X125384147Y-102118442D01*
X125190934Y-102059831D01*
X124990000Y-102040041D01*
X124789065Y-102059831D01*
X124595852Y-102118442D01*
X124417785Y-102213620D01*
X124261709Y-102341709D01*
X124133620Y-102497785D01*
X124038442Y-102675853D01*
X123979831Y-102869066D01*
X123965000Y-103019650D01*
X123125000Y-103019650D01*
X123125000Y-99565000D01*
X191995000Y-99565000D01*
X191995001Y-117535916D01*
G37*
X191995001Y-117535916D02*
X191966632Y-117493459D01*
X191886541Y-117413368D01*
X191792365Y-117350442D01*
X191687721Y-117307097D01*
X191576633Y-117285000D01*
X191463367Y-117285000D01*
X191352279Y-117307097D01*
X191247635Y-117350442D01*
X191153459Y-117413368D01*
X191073368Y-117493459D01*
X191010442Y-117587635D01*
X190967097Y-117692279D01*
X190945000Y-117803367D01*
X190945000Y-117916633D01*
X190967097Y-118027721D01*
X191010442Y-118132365D01*
X191073368Y-118226541D01*
X191091827Y-118245000D01*
X191073368Y-118263459D01*
X191010442Y-118357635D01*
X190967097Y-118462279D01*
X190945000Y-118573367D01*
X190945000Y-118686633D01*
X190967097Y-118797721D01*
X191010442Y-118902365D01*
X191073368Y-118996541D01*
X191096827Y-119020000D01*
X191073368Y-119043459D01*
X191010442Y-119137635D01*
X190967097Y-119242279D01*
X190945000Y-119353367D01*
X190945000Y-119466633D01*
X190967097Y-119577721D01*
X191010442Y-119682365D01*
X191073368Y-119776541D01*
X191091827Y-119795000D01*
X191073368Y-119813459D01*
X191010442Y-119907635D01*
X190967097Y-120012279D01*
X190945000Y-120123367D01*
X190945000Y-120236633D01*
X190967097Y-120347721D01*
X191010442Y-120452365D01*
X191073368Y-120546541D01*
X191086827Y-120560000D01*
X191073368Y-120573459D01*
X191010442Y-120667635D01*
X190967097Y-120772279D01*
X190945000Y-120883367D01*
X190945000Y-120996633D01*
X190967097Y-121107721D01*
X191010442Y-121212365D01*
X191073368Y-121306541D01*
X191153459Y-121386632D01*
X191247635Y-121449558D01*
X191352279Y-121492903D01*
X191463367Y-121515000D01*
X191576633Y-121515000D01*
X191687721Y-121492903D01*
X191792365Y-121449558D01*
X191886541Y-121386632D01*
X191966632Y-121306541D01*
X191995001Y-121264084D01*
X191995001Y-121825000D01*
X123125000Y-121825000D01*
X123125000Y-121178377D01*
X147255000Y-121178377D01*
X147255000Y-121291643D01*
X147277097Y-121402731D01*
X147320442Y-121507375D01*
X147383368Y-121601551D01*
X147463459Y-121681642D01*
X147557635Y-121744568D01*
X147662279Y-121787913D01*
X147773367Y-121810010D01*
X147886633Y-121810010D01*
X147997721Y-121787913D01*
X148102365Y-121744568D01*
X148196541Y-121681642D01*
X148276632Y-121601551D01*
X148339558Y-121507375D01*
X148382903Y-121402731D01*
X148405000Y-121291643D01*
X148405000Y-121183366D01*
X163504999Y-121183366D01*
X163504999Y-121296632D01*
X163527096Y-121407720D01*
X163570441Y-121512364D01*
X163633367Y-121606540D01*
X163713458Y-121686631D01*
X163807634Y-121749557D01*
X163912278Y-121792902D01*
X164023366Y-121814999D01*
X164136632Y-121814999D01*
X164247720Y-121792902D01*
X164352364Y-121749557D01*
X164446540Y-121686631D01*
X164526631Y-121606540D01*
X164589557Y-121512364D01*
X164632902Y-121407720D01*
X164654999Y-121296632D01*
X164654999Y-121183366D01*
X164632902Y-121072278D01*
X164589557Y-120967634D01*
X164526631Y-120873458D01*
X164446540Y-120793367D01*
X164352364Y-120730441D01*
X164247720Y-120687096D01*
X164136632Y-120664999D01*
X164023366Y-120664999D01*
X163912278Y-120687096D01*
X163807634Y-120730441D01*
X163713458Y-120793367D01*
X163633367Y-120873458D01*
X163570441Y-120967634D01*
X163527096Y-121072278D01*
X163504999Y-121183366D01*
X148405000Y-121183366D01*
X148405000Y-121178377D01*
X148382903Y-121067289D01*
X148339558Y-120962645D01*
X148276632Y-120868469D01*
X148196541Y-120788378D01*
X148102365Y-120725452D01*
X147997721Y-120682107D01*
X147886633Y-120660010D01*
X147773367Y-120660010D01*
X147662279Y-120682107D01*
X147557635Y-120725452D01*
X147463459Y-120788378D01*
X147383368Y-120868469D01*
X147320442Y-120962645D01*
X147277097Y-121067289D01*
X147255000Y-121178377D01*
X123125000Y-121178377D01*
X123125000Y-120143367D01*
X155265000Y-120143367D01*
X155265000Y-120256633D01*
X155287097Y-120367721D01*
X155330442Y-120472365D01*
X155393368Y-120566541D01*
X155473459Y-120646632D01*
X155567635Y-120709558D01*
X155672279Y-120752903D01*
X155783367Y-120775000D01*
X155896633Y-120775000D01*
X156007721Y-120752903D01*
X156112365Y-120709558D01*
X156206541Y-120646632D01*
X156286632Y-120566541D01*
X156349558Y-120472365D01*
X156357929Y-120452156D01*
X156370442Y-120482365D01*
X156433368Y-120576541D01*
X156513459Y-120656632D01*
X156607635Y-120719558D01*
X156712279Y-120762903D01*
X156823367Y-120785000D01*
X156936633Y-120785000D01*
X157047721Y-120762903D01*
X157152365Y-120719558D01*
X157246541Y-120656632D01*
X157326632Y-120576541D01*
X157389558Y-120482365D01*
X157432903Y-120377721D01*
X157455000Y-120266633D01*
X157455000Y-120153367D01*
X157432903Y-120042279D01*
X157389558Y-119937635D01*
X157326632Y-119843459D01*
X157246541Y-119763368D01*
X157152365Y-119700442D01*
X157047721Y-119657097D01*
X156936633Y-119635000D01*
X156823367Y-119635000D01*
X156712279Y-119657097D01*
X156607635Y-119700442D01*
X156513459Y-119763368D01*
X156433368Y-119843459D01*
X156370442Y-119937635D01*
X156362071Y-119957844D01*
X156349558Y-119927635D01*
X156286632Y-119833459D01*
X156206541Y-119753368D01*
X156112365Y-119690442D01*
X156007721Y-119647097D01*
X155896633Y-119625000D01*
X155783367Y-119625000D01*
X155672279Y-119647097D01*
X155567635Y-119690442D01*
X155473459Y-119753368D01*
X155393368Y-119833459D01*
X155330442Y-119927635D01*
X155287097Y-120032279D01*
X155265000Y-120143367D01*
X123125000Y-120143367D01*
X123125000Y-119183367D01*
X148835000Y-119183367D01*
X148835000Y-119296633D01*
X148857097Y-119407721D01*
X148900442Y-119512365D01*
X148963368Y-119606541D01*
X149043459Y-119686632D01*
X149137635Y-119749558D01*
X149242279Y-119792903D01*
X149353367Y-119815000D01*
X149466633Y-119815000D01*
X149577721Y-119792903D01*
X149682365Y-119749558D01*
X149776541Y-119686632D01*
X149810000Y-119653173D01*
X149843459Y-119686632D01*
X149937635Y-119749558D01*
X150042279Y-119792903D01*
X150153367Y-119815000D01*
X150266633Y-119815000D01*
X150377721Y-119792903D01*
X150482365Y-119749558D01*
X150576541Y-119686632D01*
X150656632Y-119606541D01*
X150719558Y-119512365D01*
X150762903Y-119407721D01*
X150785000Y-119296633D01*
X150785000Y-119183367D01*
X150762903Y-119072279D01*
X150759212Y-119063367D01*
X183682000Y-119063367D01*
X183682000Y-119176633D01*
X183704097Y-119287721D01*
X183747442Y-119392365D01*
X183810368Y-119486541D01*
X183890459Y-119566632D01*
X183984635Y-119629558D01*
X184089279Y-119672903D01*
X184200367Y-119695000D01*
X184313633Y-119695000D01*
X184424721Y-119672903D01*
X184529365Y-119629558D01*
X184623541Y-119566632D01*
X184703632Y-119486541D01*
X184766558Y-119392365D01*
X184809903Y-119287721D01*
X184832000Y-119176633D01*
X184832000Y-119063367D01*
X184809903Y-118952279D01*
X184766558Y-118847635D01*
X184703632Y-118753459D01*
X184623541Y-118673368D01*
X184529365Y-118610442D01*
X184424721Y-118567097D01*
X184313633Y-118545000D01*
X184200367Y-118545000D01*
X184089279Y-118567097D01*
X183984635Y-118610442D01*
X183890459Y-118673368D01*
X183810368Y-118753459D01*
X183747442Y-118847635D01*
X183704097Y-118952279D01*
X183682000Y-119063367D01*
X150759212Y-119063367D01*
X150719558Y-118967635D01*
X150656632Y-118873459D01*
X150576541Y-118793368D01*
X150482365Y-118730442D01*
X150377721Y-118687097D01*
X150266633Y-118665000D01*
X150153367Y-118665000D01*
X150042279Y-118687097D01*
X149937635Y-118730442D01*
X149843459Y-118793368D01*
X149810000Y-118826827D01*
X149776541Y-118793368D01*
X149682365Y-118730442D01*
X149577721Y-118687097D01*
X149466633Y-118665000D01*
X149353367Y-118665000D01*
X149242279Y-118687097D01*
X149137635Y-118730442D01*
X149043459Y-118793368D01*
X148963368Y-118873459D01*
X148900442Y-118967635D01*
X148857097Y-119072279D01*
X148835000Y-119183367D01*
X123125000Y-119183367D01*
X123125000Y-117003367D01*
X150225000Y-117003367D01*
X150225000Y-117116633D01*
X150247097Y-117227721D01*
X150290442Y-117332365D01*
X150353368Y-117426541D01*
X150433459Y-117506632D01*
X150527635Y-117569558D01*
X150632279Y-117612903D01*
X150743367Y-117635000D01*
X150856633Y-117635000D01*
X150967721Y-117612903D01*
X151072365Y-117569558D01*
X151166541Y-117506632D01*
X151200000Y-117473173D01*
X151233459Y-117506632D01*
X151327635Y-117569558D01*
X151432279Y-117612903D01*
X151543367Y-117635000D01*
X151656633Y-117635000D01*
X151767721Y-117612903D01*
X151872365Y-117569558D01*
X151966541Y-117506632D01*
X152046632Y-117426541D01*
X152109558Y-117332365D01*
X152117427Y-117313367D01*
X158415000Y-117313367D01*
X158415000Y-117426633D01*
X158437097Y-117537721D01*
X158480442Y-117642365D01*
X158543368Y-117736541D01*
X158623459Y-117816632D01*
X158717635Y-117879558D01*
X158822279Y-117922903D01*
X158933367Y-117945000D01*
X159046633Y-117945000D01*
X159157721Y-117922903D01*
X159262365Y-117879558D01*
X159356541Y-117816632D01*
X159436632Y-117736541D01*
X159499558Y-117642365D01*
X159542903Y-117537721D01*
X159565000Y-117426633D01*
X159565000Y-117313367D01*
X159542903Y-117202279D01*
X159499558Y-117097635D01*
X159436632Y-117003459D01*
X159356541Y-116923368D01*
X159262365Y-116860442D01*
X159157721Y-116817097D01*
X159046633Y-116795000D01*
X158933367Y-116795000D01*
X158822279Y-116817097D01*
X158717635Y-116860442D01*
X158623459Y-116923368D01*
X158543368Y-117003459D01*
X158480442Y-117097635D01*
X158437097Y-117202279D01*
X158415000Y-117313367D01*
X152117427Y-117313367D01*
X152152903Y-117227721D01*
X152175000Y-117116633D01*
X152175000Y-117003367D01*
X152152903Y-116892279D01*
X152109558Y-116787635D01*
X152046632Y-116693459D01*
X151966541Y-116613368D01*
X151872365Y-116550442D01*
X151767721Y-116507097D01*
X151656633Y-116485000D01*
X151543367Y-116485000D01*
X151432279Y-116507097D01*
X151327635Y-116550442D01*
X151233459Y-116613368D01*
X151200000Y-116646827D01*
X151166541Y-116613368D01*
X151072365Y-116550442D01*
X150967721Y-116507097D01*
X150856633Y-116485000D01*
X150743367Y-116485000D01*
X150632279Y-116507097D01*
X150527635Y-116550442D01*
X150433459Y-116613368D01*
X150353368Y-116693459D01*
X150290442Y-116787635D01*
X150247097Y-116892279D01*
X150225000Y-117003367D01*
X123125000Y-117003367D01*
X123125000Y-114182004D01*
X150642306Y-114182004D01*
X150642306Y-114295270D01*
X150664403Y-114406358D01*
X150707748Y-114511002D01*
X150770674Y-114605178D01*
X150804133Y-114638637D01*
X150770674Y-114672096D01*
X150707748Y-114766272D01*
X150664403Y-114870916D01*
X150642306Y-114982004D01*
X150642306Y-115095270D01*
X150664403Y-115206358D01*
X150707748Y-115311002D01*
X150770674Y-115405178D01*
X150850765Y-115485269D01*
X150944941Y-115548195D01*
X151049585Y-115591540D01*
X151160673Y-115613637D01*
X151273939Y-115613637D01*
X151385027Y-115591540D01*
X151489671Y-115548195D01*
X151583847Y-115485269D01*
X151663938Y-115405178D01*
X151726864Y-115311002D01*
X151770209Y-115206358D01*
X151792306Y-115095270D01*
X151792306Y-114982004D01*
X151770209Y-114870916D01*
X151726864Y-114766272D01*
X151663938Y-114672096D01*
X151630479Y-114638637D01*
X151663938Y-114605178D01*
X151726864Y-114511002D01*
X151770209Y-114406358D01*
X151792306Y-114295270D01*
X151792306Y-114182004D01*
X151770209Y-114070916D01*
X151726864Y-113966272D01*
X151663938Y-113872096D01*
X151583847Y-113792005D01*
X151489671Y-113729079D01*
X151385027Y-113685734D01*
X151273939Y-113663637D01*
X151160673Y-113663637D01*
X151049585Y-113685734D01*
X150944941Y-113729079D01*
X150850765Y-113792005D01*
X150770674Y-113872096D01*
X150707748Y-113966272D01*
X150664403Y-114070916D01*
X150642306Y-114182004D01*
X123125000Y-114182004D01*
X123125000Y-108719650D01*
X123965000Y-108719650D01*
X123965001Y-110620351D01*
X123979832Y-110770935D01*
X124038443Y-110964148D01*
X124133621Y-111142215D01*
X124261710Y-111298291D01*
X124417786Y-111426380D01*
X124595853Y-111521558D01*
X124789066Y-111580169D01*
X124990000Y-111599959D01*
X125190935Y-111580169D01*
X125384148Y-111521558D01*
X125562215Y-111426380D01*
X125718291Y-111298291D01*
X125846380Y-111142215D01*
X125941558Y-110964148D01*
X126000169Y-110770935D01*
X126015000Y-110620351D01*
X126015000Y-108719649D01*
X126000169Y-108569065D01*
X125941558Y-108375852D01*
X125846380Y-108197785D01*
X125718291Y-108041709D01*
X125562215Y-107913620D01*
X125384147Y-107818442D01*
X125190934Y-107759831D01*
X124990000Y-107740041D01*
X124789065Y-107759831D01*
X124595852Y-107818442D01*
X124417785Y-107913620D01*
X124261709Y-108041709D01*
X124133620Y-108197785D01*
X124038442Y-108375853D01*
X123979831Y-108569066D01*
X123965000Y-108719650D01*
X123125000Y-108719650D01*
X123125000Y-107423367D01*
X133175000Y-107423367D01*
X133175000Y-107536633D01*
X133197097Y-107647721D01*
X133240442Y-107752365D01*
X133303368Y-107846541D01*
X133383459Y-107926632D01*
X133477635Y-107989558D01*
X133582279Y-108032903D01*
X133693367Y-108055000D01*
X133806633Y-108055000D01*
X133917721Y-108032903D01*
X134022365Y-107989558D01*
X134116541Y-107926632D01*
X134196632Y-107846541D01*
X134259558Y-107752365D01*
X134302903Y-107647721D01*
X134325000Y-107536633D01*
X134325000Y-107423367D01*
X134302903Y-107312279D01*
X134259558Y-107207635D01*
X134196632Y-107113459D01*
X134116541Y-107033368D01*
X134022365Y-106970442D01*
X133917721Y-106927097D01*
X133806633Y-106905000D01*
X133693367Y-106905000D01*
X133582279Y-106927097D01*
X133477635Y-106970442D01*
X133383459Y-107033368D01*
X133303368Y-107113459D01*
X133240442Y-107207635D01*
X133197097Y-107312279D01*
X133175000Y-107423367D01*
X123125000Y-107423367D01*
X123125000Y-106543367D01*
X134175000Y-106543367D01*
X134175000Y-106656633D01*
X134197097Y-106767721D01*
X134240442Y-106872365D01*
X134303368Y-106966541D01*
X134383459Y-107046632D01*
X134477635Y-107109558D01*
X134582279Y-107152903D01*
X134693367Y-107175000D01*
X134806633Y-107175000D01*
X134917721Y-107152903D01*
X135022365Y-107109558D01*
X135116541Y-107046632D01*
X135196632Y-106966541D01*
X135259558Y-106872365D01*
X135302903Y-106767721D01*
X135325000Y-106656633D01*
X135325000Y-106623336D01*
X135333367Y-106625000D01*
X135446633Y-106625000D01*
X135557721Y-106602903D01*
X135662365Y-106559558D01*
X135756541Y-106496632D01*
X135836632Y-106416541D01*
X135899558Y-106322365D01*
X135942903Y-106217721D01*
X135965000Y-106106633D01*
X135965000Y-105993367D01*
X135942903Y-105882279D01*
X135899558Y-105777635D01*
X135836632Y-105683459D01*
X135756541Y-105603368D01*
X135662365Y-105540442D01*
X135557721Y-105497097D01*
X135446633Y-105475000D01*
X135333367Y-105475000D01*
X135222279Y-105497097D01*
X135117635Y-105540442D01*
X135023459Y-105603368D01*
X134943368Y-105683459D01*
X134880442Y-105777635D01*
X134837097Y-105882279D01*
X134815000Y-105993367D01*
X134815000Y-106026664D01*
X134806633Y-106025000D01*
X134693367Y-106025000D01*
X134582279Y-106047097D01*
X134477635Y-106090442D01*
X134383459Y-106153368D01*
X134303368Y-106233459D01*
X134240442Y-106327635D01*
X134197097Y-106432279D01*
X134175000Y-106543367D01*
X123125000Y-106543367D01*
X123125000Y-105333367D01*
X136175000Y-105333367D01*
X136175000Y-105446633D01*
X136197097Y-105557721D01*
X136240442Y-105662365D01*
X136303368Y-105756541D01*
X136383459Y-105836632D01*
X136477635Y-105899558D01*
X136582279Y-105942903D01*
X136693367Y-105965000D01*
X136806633Y-105965000D01*
X136917721Y-105942903D01*
X137022365Y-105899558D01*
X137116541Y-105836632D01*
X137196632Y-105756541D01*
X137259558Y-105662365D01*
X137302903Y-105557721D01*
X137325000Y-105446633D01*
X137325000Y-105333367D01*
X137302903Y-105222279D01*
X137259558Y-105117635D01*
X137196632Y-105023459D01*
X137116541Y-104943368D01*
X137022365Y-104880442D01*
X136917721Y-104837097D01*
X136806633Y-104815000D01*
X136693367Y-104815000D01*
X136582279Y-104837097D01*
X136477635Y-104880442D01*
X136383459Y-104943368D01*
X136303368Y-105023459D01*
X136240442Y-105117635D01*
X136197097Y-105222279D01*
X136175000Y-105333367D01*
X123125000Y-105333367D01*
X123125000Y-103019650D01*
X123965000Y-103019650D01*
X123965001Y-104320351D01*
X123979832Y-104470935D01*
X124038443Y-104664148D01*
X124133621Y-104842215D01*
X124261710Y-104998291D01*
X124417786Y-105126380D01*
X124595853Y-105221558D01*
X124789066Y-105280169D01*
X124990000Y-105299959D01*
X125190935Y-105280169D01*
X125384148Y-105221558D01*
X125562215Y-105126380D01*
X125718291Y-104998291D01*
X125846380Y-104842215D01*
X125941558Y-104664148D01*
X126000169Y-104470935D01*
X126015000Y-104320351D01*
X126015000Y-103019650D01*
X138465000Y-103019650D01*
X138465001Y-104320351D01*
X138479832Y-104470935D01*
X138538443Y-104664148D01*
X138633621Y-104842215D01*
X138761710Y-104998291D01*
X138917786Y-105126380D01*
X139095853Y-105221558D01*
X139289066Y-105280169D01*
X139490000Y-105299959D01*
X139690935Y-105280169D01*
X139884148Y-105221558D01*
X139925690Y-105199354D01*
X139905000Y-105303367D01*
X139905000Y-105384621D01*
X139856633Y-105375000D01*
X139743367Y-105375000D01*
X139632279Y-105397097D01*
X139527635Y-105440442D01*
X139433459Y-105503368D01*
X139353368Y-105583459D01*
X139290442Y-105677635D01*
X139247097Y-105782279D01*
X139225000Y-105893367D01*
X139225000Y-106006633D01*
X139247097Y-106117721D01*
X139290442Y-106222365D01*
X139353368Y-106316541D01*
X139391827Y-106355000D01*
X139313368Y-106433459D01*
X139250442Y-106527635D01*
X139207097Y-106632279D01*
X139185000Y-106743367D01*
X139185000Y-106856633D01*
X139207097Y-106967721D01*
X139250442Y-107072365D01*
X139313368Y-107166541D01*
X139393459Y-107246632D01*
X139487635Y-107309558D01*
X139592279Y-107352903D01*
X139703367Y-107375000D01*
X139754254Y-107375000D01*
X139747097Y-107392279D01*
X139725000Y-107503367D01*
X139725000Y-107616633D01*
X139747097Y-107727721D01*
X139770380Y-107783931D01*
X139690934Y-107759831D01*
X139490000Y-107740041D01*
X139289065Y-107759831D01*
X139095852Y-107818442D01*
X138917785Y-107913620D01*
X138761709Y-108041709D01*
X138633620Y-108197785D01*
X138538442Y-108375853D01*
X138479831Y-108569066D01*
X138465000Y-108719650D01*
X138465001Y-110620351D01*
X138479832Y-110770935D01*
X138538443Y-110964148D01*
X138633621Y-111142215D01*
X138761710Y-111298291D01*
X138917786Y-111426380D01*
X139095853Y-111521558D01*
X139289066Y-111580169D01*
X139490000Y-111599959D01*
X139658464Y-111583367D01*
X148985000Y-111583367D01*
X148985000Y-111696633D01*
X149007097Y-111807721D01*
X149050442Y-111912365D01*
X149113368Y-112006541D01*
X149193459Y-112086632D01*
X149287635Y-112149558D01*
X149392279Y-112192903D01*
X149503367Y-112215000D01*
X149616633Y-112215000D01*
X149727721Y-112192903D01*
X149832365Y-112149558D01*
X149926541Y-112086632D01*
X149960000Y-112053173D01*
X149993459Y-112086632D01*
X150087635Y-112149558D01*
X150192279Y-112192903D01*
X150303367Y-112215000D01*
X150416633Y-112215000D01*
X150527721Y-112192903D01*
X150632365Y-112149558D01*
X150726541Y-112086632D01*
X150806632Y-112006541D01*
X150869558Y-111912365D01*
X150912903Y-111807721D01*
X150935000Y-111696633D01*
X150935000Y-111583367D01*
X150912903Y-111472279D01*
X150900928Y-111443367D01*
X160065000Y-111443367D01*
X160065000Y-111556633D01*
X160087097Y-111667721D01*
X160130442Y-111772365D01*
X160193368Y-111866541D01*
X160273459Y-111946632D01*
X160367635Y-112009558D01*
X160472279Y-112052903D01*
X160583367Y-112075000D01*
X160696633Y-112075000D01*
X160807721Y-112052903D01*
X160912365Y-112009558D01*
X161006541Y-111946632D01*
X161086632Y-111866541D01*
X161149558Y-111772365D01*
X161192903Y-111667721D01*
X161215000Y-111556633D01*
X161215000Y-111443367D01*
X161355000Y-111443367D01*
X161355000Y-111556633D01*
X161377097Y-111667721D01*
X161420442Y-111772365D01*
X161483368Y-111866541D01*
X161563459Y-111946632D01*
X161657635Y-112009558D01*
X161762279Y-112052903D01*
X161873367Y-112075000D01*
X161986633Y-112075000D01*
X162097721Y-112052903D01*
X162202365Y-112009558D01*
X162296541Y-111946632D01*
X162376632Y-111866541D01*
X162439558Y-111772365D01*
X162482903Y-111667721D01*
X162505000Y-111556633D01*
X162505000Y-111443367D01*
X162482903Y-111332279D01*
X162439558Y-111227635D01*
X162403298Y-111173367D01*
X183825000Y-111173367D01*
X183825000Y-111286633D01*
X183847097Y-111397721D01*
X183890442Y-111502365D01*
X183953368Y-111596541D01*
X184033459Y-111676632D01*
X184127635Y-111739558D01*
X184232279Y-111782903D01*
X184343367Y-111805000D01*
X184456633Y-111805000D01*
X184567721Y-111782903D01*
X184672365Y-111739558D01*
X184766541Y-111676632D01*
X184846632Y-111596541D01*
X184909558Y-111502365D01*
X184952903Y-111397721D01*
X184975000Y-111286633D01*
X184975000Y-111173367D01*
X184952903Y-111062279D01*
X184909558Y-110957635D01*
X184846632Y-110863459D01*
X184766541Y-110783368D01*
X184672365Y-110720442D01*
X184567721Y-110677097D01*
X184456633Y-110655000D01*
X184343367Y-110655000D01*
X184232279Y-110677097D01*
X184127635Y-110720442D01*
X184033459Y-110783368D01*
X183953368Y-110863459D01*
X183890442Y-110957635D01*
X183847097Y-111062279D01*
X183825000Y-111173367D01*
X162403298Y-111173367D01*
X162376632Y-111133459D01*
X162296541Y-111053368D01*
X162202365Y-110990442D01*
X162097721Y-110947097D01*
X161986633Y-110925000D01*
X161873367Y-110925000D01*
X161762279Y-110947097D01*
X161657635Y-110990442D01*
X161563459Y-111053368D01*
X161483368Y-111133459D01*
X161420442Y-111227635D01*
X161377097Y-111332279D01*
X161355000Y-111443367D01*
X161215000Y-111443367D01*
X161192903Y-111332279D01*
X161149558Y-111227635D01*
X161086632Y-111133459D01*
X161006541Y-111053368D01*
X160912365Y-110990442D01*
X160807721Y-110947097D01*
X160696633Y-110925000D01*
X160583367Y-110925000D01*
X160472279Y-110947097D01*
X160367635Y-110990442D01*
X160273459Y-111053368D01*
X160193368Y-111133459D01*
X160130442Y-111227635D01*
X160087097Y-111332279D01*
X160065000Y-111443367D01*
X150900928Y-111443367D01*
X150869558Y-111367635D01*
X150806632Y-111273459D01*
X150726541Y-111193368D01*
X150632365Y-111130442D01*
X150527721Y-111087097D01*
X150416633Y-111065000D01*
X150303367Y-111065000D01*
X150192279Y-111087097D01*
X150087635Y-111130442D01*
X149993459Y-111193368D01*
X149960000Y-111226827D01*
X149926541Y-111193368D01*
X149832365Y-111130442D01*
X149727721Y-111087097D01*
X149616633Y-111065000D01*
X149503367Y-111065000D01*
X149392279Y-111087097D01*
X149287635Y-111130442D01*
X149193459Y-111193368D01*
X149113368Y-111273459D01*
X149050442Y-111367635D01*
X149007097Y-111472279D01*
X148985000Y-111583367D01*
X139658464Y-111583367D01*
X139690935Y-111580169D01*
X139884148Y-111521558D01*
X140062215Y-111426380D01*
X140218291Y-111298291D01*
X140346380Y-111142215D01*
X140441558Y-110964148D01*
X140500169Y-110770935D01*
X140515000Y-110620351D01*
X140515000Y-108719649D01*
X140500169Y-108569065D01*
X140441558Y-108375852D01*
X140346380Y-108197785D01*
X140294853Y-108135000D01*
X140356633Y-108135000D01*
X140467721Y-108112903D01*
X140572365Y-108069558D01*
X140666541Y-108006632D01*
X140746632Y-107926541D01*
X140809558Y-107832365D01*
X140852903Y-107727721D01*
X140875000Y-107616633D01*
X140875000Y-107503367D01*
X140852903Y-107392279D01*
X140809558Y-107287635D01*
X140746632Y-107193459D01*
X140666541Y-107113368D01*
X140572365Y-107050442D01*
X140467721Y-107007097D01*
X140356633Y-106985000D01*
X140305746Y-106985000D01*
X140312903Y-106967721D01*
X140335000Y-106856633D01*
X140335000Y-106743367D01*
X140319087Y-106663367D01*
X145381697Y-106663367D01*
X145381697Y-106776633D01*
X145403794Y-106887721D01*
X145447139Y-106992365D01*
X145510065Y-107086541D01*
X145590156Y-107166632D01*
X145684332Y-107229558D01*
X145788976Y-107272903D01*
X145900064Y-107295000D01*
X146013330Y-107295000D01*
X146124418Y-107272903D01*
X146229062Y-107229558D01*
X146323238Y-107166632D01*
X146403329Y-107086541D01*
X146466255Y-106992365D01*
X146473305Y-106975343D01*
X147945000Y-106975343D01*
X147945000Y-107088609D01*
X147967097Y-107199697D01*
X148010442Y-107304341D01*
X148073368Y-107398517D01*
X148153459Y-107478608D01*
X148247635Y-107541534D01*
X148352279Y-107584879D01*
X148463367Y-107606976D01*
X148576633Y-107606976D01*
X148687721Y-107584879D01*
X148792365Y-107541534D01*
X148886541Y-107478608D01*
X148966632Y-107398517D01*
X149029558Y-107304341D01*
X149029961Y-107303367D01*
X156525000Y-107303367D01*
X156525000Y-107416633D01*
X156547097Y-107527721D01*
X156590442Y-107632365D01*
X156653368Y-107726541D01*
X156733459Y-107806632D01*
X156827635Y-107869558D01*
X156932279Y-107912903D01*
X157043367Y-107935000D01*
X157156633Y-107935000D01*
X157267721Y-107912903D01*
X157372365Y-107869558D01*
X157466541Y-107806632D01*
X157546632Y-107726541D01*
X157609558Y-107632365D01*
X157652903Y-107527721D01*
X157675000Y-107416633D01*
X157675000Y-107303367D01*
X157652903Y-107192279D01*
X157609558Y-107087635D01*
X157546632Y-106993459D01*
X157466541Y-106913368D01*
X157372365Y-106850442D01*
X157267721Y-106807097D01*
X157156633Y-106785000D01*
X157043367Y-106785000D01*
X156932279Y-106807097D01*
X156827635Y-106850442D01*
X156733459Y-106913368D01*
X156653368Y-106993459D01*
X156590442Y-107087635D01*
X156547097Y-107192279D01*
X156525000Y-107303367D01*
X149029961Y-107303367D01*
X149072903Y-107199697D01*
X149095000Y-107088609D01*
X149095000Y-106975343D01*
X149072903Y-106864255D01*
X149029558Y-106759611D01*
X148966632Y-106665435D01*
X148886541Y-106585344D01*
X148792365Y-106522418D01*
X148687721Y-106479073D01*
X148576633Y-106456976D01*
X148463367Y-106456976D01*
X148352279Y-106479073D01*
X148247635Y-106522418D01*
X148153459Y-106585344D01*
X148073368Y-106665435D01*
X148010442Y-106759611D01*
X147967097Y-106864255D01*
X147945000Y-106975343D01*
X146473305Y-106975343D01*
X146509600Y-106887721D01*
X146531697Y-106776633D01*
X146531697Y-106663367D01*
X146509600Y-106552279D01*
X146466255Y-106447635D01*
X146463404Y-106443367D01*
X149745000Y-106443367D01*
X149745000Y-106556633D01*
X149767097Y-106667721D01*
X149810442Y-106772365D01*
X149873368Y-106866541D01*
X149953459Y-106946632D01*
X150047635Y-107009558D01*
X150152279Y-107052903D01*
X150263367Y-107075000D01*
X150376633Y-107075000D01*
X150487721Y-107052903D01*
X150592365Y-107009558D01*
X150686541Y-106946632D01*
X150766632Y-106866541D01*
X150829558Y-106772365D01*
X150872903Y-106667721D01*
X150895000Y-106556633D01*
X150895000Y-106443367D01*
X150872903Y-106332279D01*
X150829558Y-106227635D01*
X150766632Y-106133459D01*
X150686541Y-106053368D01*
X150592365Y-105990442D01*
X150487721Y-105947097D01*
X150376633Y-105925000D01*
X150263367Y-105925000D01*
X150152279Y-105947097D01*
X150047635Y-105990442D01*
X149953459Y-106053368D01*
X149873368Y-106133459D01*
X149810442Y-106227635D01*
X149767097Y-106332279D01*
X149745000Y-106443367D01*
X146463404Y-106443367D01*
X146403329Y-106353459D01*
X146323238Y-106273368D01*
X146229062Y-106210442D01*
X146124418Y-106167097D01*
X146013330Y-106145000D01*
X145900064Y-106145000D01*
X145788976Y-106167097D01*
X145684332Y-106210442D01*
X145590156Y-106273368D01*
X145510065Y-106353459D01*
X145447139Y-106447635D01*
X145403794Y-106552279D01*
X145381697Y-106663367D01*
X140319087Y-106663367D01*
X140312903Y-106632279D01*
X140269558Y-106527635D01*
X140206632Y-106433459D01*
X140168173Y-106395000D01*
X140246632Y-106316541D01*
X140309558Y-106222365D01*
X140352903Y-106117721D01*
X140375000Y-106006633D01*
X140375000Y-105925379D01*
X140423367Y-105935000D01*
X140536633Y-105935000D01*
X140647721Y-105912903D01*
X140752365Y-105869558D01*
X140846541Y-105806632D01*
X140926632Y-105726541D01*
X140957997Y-105679599D01*
X159908768Y-105679599D01*
X159908768Y-105792865D01*
X159930865Y-105903953D01*
X159974210Y-106008597D01*
X160037136Y-106102773D01*
X160117227Y-106182864D01*
X160211403Y-106245790D01*
X160316047Y-106289135D01*
X160427135Y-106311232D01*
X160540401Y-106311232D01*
X160651489Y-106289135D01*
X160756133Y-106245790D01*
X160850309Y-106182864D01*
X160930400Y-106102773D01*
X160993326Y-106008597D01*
X161036671Y-105903953D01*
X161058768Y-105792865D01*
X161058768Y-105679599D01*
X161036671Y-105568511D01*
X160993326Y-105463867D01*
X160930400Y-105369691D01*
X160850309Y-105289600D01*
X160756133Y-105226674D01*
X160651489Y-105183329D01*
X160540401Y-105161232D01*
X160427135Y-105161232D01*
X160316047Y-105183329D01*
X160211403Y-105226674D01*
X160117227Y-105289600D01*
X160037136Y-105369691D01*
X159974210Y-105463867D01*
X159930865Y-105568511D01*
X159908768Y-105679599D01*
X140957997Y-105679599D01*
X140989558Y-105632365D01*
X141032903Y-105527721D01*
X141055000Y-105416633D01*
X141055000Y-105303367D01*
X141032903Y-105192279D01*
X140989558Y-105087635D01*
X140926632Y-104993459D01*
X140846541Y-104913368D01*
X140752365Y-104850442D01*
X140647721Y-104807097D01*
X140536633Y-104785000D01*
X140423367Y-104785000D01*
X140371441Y-104795329D01*
X140441558Y-104664148D01*
X140484263Y-104523367D01*
X149935000Y-104523367D01*
X149935000Y-104636633D01*
X149957097Y-104747721D01*
X150000442Y-104852365D01*
X150063368Y-104946541D01*
X150143459Y-105026632D01*
X150237635Y-105089558D01*
X150342279Y-105132903D01*
X150453367Y-105155000D01*
X150566633Y-105155000D01*
X150677721Y-105132903D01*
X150782365Y-105089558D01*
X150876541Y-105026632D01*
X150956632Y-104946541D01*
X151019558Y-104852365D01*
X151062903Y-104747721D01*
X151085000Y-104636633D01*
X151085000Y-104523367D01*
X151062903Y-104412279D01*
X151019558Y-104307635D01*
X150956632Y-104213459D01*
X150876541Y-104133368D01*
X150782365Y-104070442D01*
X150677721Y-104027097D01*
X150566633Y-104005000D01*
X150453367Y-104005000D01*
X150342279Y-104027097D01*
X150237635Y-104070442D01*
X150143459Y-104133368D01*
X150063368Y-104213459D01*
X150000442Y-104307635D01*
X149957097Y-104412279D01*
X149935000Y-104523367D01*
X140484263Y-104523367D01*
X140500169Y-104470935D01*
X140515000Y-104320351D01*
X140515000Y-103763367D01*
X145245000Y-103763367D01*
X145245000Y-103876633D01*
X145267097Y-103987721D01*
X145310442Y-104092365D01*
X145373368Y-104186541D01*
X145453459Y-104266632D01*
X145547635Y-104329558D01*
X145652279Y-104372903D01*
X145763367Y-104395000D01*
X145876633Y-104395000D01*
X145987721Y-104372903D01*
X146092365Y-104329558D01*
X146186541Y-104266632D01*
X146266632Y-104186541D01*
X146329558Y-104092365D01*
X146372903Y-103987721D01*
X146395000Y-103876633D01*
X146395000Y-103763367D01*
X146372903Y-103652279D01*
X146329558Y-103547635D01*
X146266632Y-103453459D01*
X146186541Y-103373368D01*
X146092365Y-103310442D01*
X145987721Y-103267097D01*
X145876633Y-103245000D01*
X145763367Y-103245000D01*
X145652279Y-103267097D01*
X145547635Y-103310442D01*
X145453459Y-103373368D01*
X145373368Y-103453459D01*
X145310442Y-103547635D01*
X145267097Y-103652279D01*
X145245000Y-103763367D01*
X140515000Y-103763367D01*
X140515000Y-103019649D01*
X140512642Y-102995698D01*
X142875000Y-102995698D01*
X142875000Y-103108964D01*
X142897097Y-103220052D01*
X142940442Y-103324696D01*
X143003368Y-103418872D01*
X143083459Y-103498963D01*
X143177635Y-103561889D01*
X143282279Y-103605234D01*
X143393367Y-103627331D01*
X143506633Y-103627331D01*
X143617721Y-103605234D01*
X143722365Y-103561889D01*
X143816541Y-103498963D01*
X143896632Y-103418872D01*
X143959558Y-103324696D01*
X144002903Y-103220052D01*
X144025000Y-103108964D01*
X144025000Y-102995698D01*
X144002903Y-102884610D01*
X143960967Y-102783367D01*
X144635000Y-102783367D01*
X144635000Y-102896633D01*
X144657097Y-103007721D01*
X144700442Y-103112365D01*
X144763368Y-103206541D01*
X144843459Y-103286632D01*
X144937635Y-103349558D01*
X145042279Y-103392903D01*
X145153367Y-103415000D01*
X145266633Y-103415000D01*
X145377721Y-103392903D01*
X145482365Y-103349558D01*
X145576541Y-103286632D01*
X145656632Y-103206541D01*
X145719558Y-103112365D01*
X145731569Y-103083367D01*
X160715000Y-103083367D01*
X160715000Y-103196633D01*
X160737097Y-103307721D01*
X160780442Y-103412365D01*
X160843368Y-103506541D01*
X160923459Y-103586632D01*
X161017635Y-103649558D01*
X161122279Y-103692903D01*
X161233367Y-103715000D01*
X161345000Y-103715000D01*
X161345000Y-103776633D01*
X161367097Y-103887721D01*
X161410442Y-103992365D01*
X161473368Y-104086541D01*
X161553459Y-104166632D01*
X161647635Y-104229558D01*
X161752279Y-104272903D01*
X161863367Y-104295000D01*
X161976633Y-104295000D01*
X162087721Y-104272903D01*
X162192365Y-104229558D01*
X162286541Y-104166632D01*
X162366632Y-104086541D01*
X162429558Y-103992365D01*
X162472903Y-103887721D01*
X162495000Y-103776633D01*
X162495000Y-103663367D01*
X162472903Y-103552279D01*
X162429558Y-103447635D01*
X162366632Y-103353459D01*
X162316540Y-103303367D01*
X186655000Y-103303367D01*
X186655000Y-103416633D01*
X186677097Y-103527721D01*
X186720442Y-103632365D01*
X186783368Y-103726541D01*
X186863459Y-103806632D01*
X186957635Y-103869558D01*
X187062279Y-103912903D01*
X187173367Y-103935000D01*
X187286633Y-103935000D01*
X187397721Y-103912903D01*
X187502365Y-103869558D01*
X187596541Y-103806632D01*
X187676632Y-103726541D01*
X187739558Y-103632365D01*
X187782903Y-103527721D01*
X187805000Y-103416633D01*
X187805000Y-103303367D01*
X187803011Y-103293367D01*
X189495000Y-103293367D01*
X189495000Y-103406633D01*
X189517097Y-103517721D01*
X189560442Y-103622365D01*
X189623368Y-103716541D01*
X189703459Y-103796632D01*
X189797635Y-103859558D01*
X189902279Y-103902903D01*
X190013367Y-103925000D01*
X190126633Y-103925000D01*
X190237721Y-103902903D01*
X190342365Y-103859558D01*
X190436541Y-103796632D01*
X190516632Y-103716541D01*
X190579558Y-103622365D01*
X190622903Y-103517721D01*
X190645000Y-103406633D01*
X190645000Y-103293367D01*
X190622903Y-103182279D01*
X190579558Y-103077635D01*
X190516632Y-102983459D01*
X190436541Y-102903368D01*
X190342365Y-102840442D01*
X190237721Y-102797097D01*
X190126633Y-102775000D01*
X190013367Y-102775000D01*
X189902279Y-102797097D01*
X189797635Y-102840442D01*
X189703459Y-102903368D01*
X189623368Y-102983459D01*
X189560442Y-103077635D01*
X189517097Y-103182279D01*
X189495000Y-103293367D01*
X187803011Y-103293367D01*
X187782903Y-103192279D01*
X187739558Y-103087635D01*
X187676632Y-102993459D01*
X187596541Y-102913368D01*
X187502365Y-102850442D01*
X187397721Y-102807097D01*
X187286633Y-102785000D01*
X187173367Y-102785000D01*
X187062279Y-102807097D01*
X186957635Y-102850442D01*
X186863459Y-102913368D01*
X186783368Y-102993459D01*
X186720442Y-103087635D01*
X186677097Y-103192279D01*
X186655000Y-103303367D01*
X162316540Y-103303367D01*
X162286541Y-103273368D01*
X162192365Y-103210442D01*
X162087721Y-103167097D01*
X161976633Y-103145000D01*
X161865000Y-103145000D01*
X161865000Y-103083367D01*
X161842903Y-102972279D01*
X161799558Y-102867635D01*
X161736632Y-102773459D01*
X161656541Y-102693368D01*
X161562365Y-102630442D01*
X161457721Y-102587097D01*
X161346633Y-102565000D01*
X161233367Y-102565000D01*
X161122279Y-102587097D01*
X161017635Y-102630442D01*
X160923459Y-102693368D01*
X160843368Y-102773459D01*
X160780442Y-102867635D01*
X160737097Y-102972279D01*
X160715000Y-103083367D01*
X145731569Y-103083367D01*
X145762903Y-103007721D01*
X145785000Y-102896633D01*
X145785000Y-102783367D01*
X145762903Y-102672279D01*
X145719558Y-102567635D01*
X145656632Y-102473459D01*
X145576541Y-102393368D01*
X145482365Y-102330442D01*
X145377721Y-102287097D01*
X145266633Y-102265000D01*
X145153367Y-102265000D01*
X145042279Y-102287097D01*
X144937635Y-102330442D01*
X144843459Y-102393368D01*
X144763368Y-102473459D01*
X144700442Y-102567635D01*
X144657097Y-102672279D01*
X144635000Y-102783367D01*
X143960967Y-102783367D01*
X143959558Y-102779966D01*
X143896632Y-102685790D01*
X143816541Y-102605699D01*
X143722365Y-102542773D01*
X143617721Y-102499428D01*
X143506633Y-102477331D01*
X143393367Y-102477331D01*
X143282279Y-102499428D01*
X143177635Y-102542773D01*
X143083459Y-102605699D01*
X143003368Y-102685790D01*
X142940442Y-102779966D01*
X142897097Y-102884610D01*
X142875000Y-102995698D01*
X140512642Y-102995698D01*
X140500169Y-102869065D01*
X140441558Y-102675852D01*
X140346380Y-102497785D01*
X140218291Y-102341709D01*
X140062215Y-102213620D01*
X139884147Y-102118442D01*
X139690934Y-102059831D01*
X139490000Y-102040041D01*
X139289065Y-102059831D01*
X139095852Y-102118442D01*
X138917785Y-102213620D01*
X138761709Y-102341709D01*
X138633620Y-102497785D01*
X138538442Y-102675853D01*
X138479831Y-102869066D01*
X138465000Y-103019650D01*
X126015000Y-103019650D01*
X126015000Y-103019649D01*
X126000169Y-102869065D01*
X125941558Y-102675852D01*
X125846380Y-102497785D01*
X125718291Y-102341709D01*
X125562215Y-102213620D01*
X125384147Y-102118442D01*
X125190934Y-102059831D01*
X124990000Y-102040041D01*
X124789065Y-102059831D01*
X124595852Y-102118442D01*
X124417785Y-102213620D01*
X124261709Y-102341709D01*
X124133620Y-102497785D01*
X124038442Y-102675853D01*
X123979831Y-102869066D01*
X123965000Y-103019650D01*
X123125000Y-103019650D01*
X123125000Y-99565000D01*
X191995000Y-99565000D01*
X191995001Y-117535916D01*
M02*
