%FSLAX45Y45*%
G04 Gerber Fmt 4.5, Leading zero omitted, Abs format (unit mm)*
G04 Created by KiCad (PCBNEW 5.1.5+dfsg1-2~bpo10+1) date 2020-03-24 15:05:40*
%MOMM*%
%LPD*%
G04 APERTURE LIST*
%TA.AperFunction,Profile*%
%ADD10C,0.200000*%
%TD*%
%ADD11C,0.200000*%
%ADD12C,0.300000*%
G04 APERTURE END LIST*
D10*
X12275000Y-9919000D02*
X19237000Y-9919000D01*
X12275000Y-12220000D02*
X12275000Y-9919000D01*
X19237000Y-9919000D02*
X19237000Y-12220000D01*
X19237000Y-12220000D02*
X12275000Y-12220000D01*
D11*
D12*
X12551428Y-12695714D02*
X12551428Y-12395714D01*
X12622857Y-12395714D01*
X12665714Y-12410000D01*
X12694286Y-12438571D01*
X12708571Y-12467143D01*
X12722857Y-12524286D01*
X12722857Y-12567143D01*
X12708571Y-12624286D01*
X12694286Y-12652857D01*
X12665714Y-12681429D01*
X12622857Y-12695714D01*
X12551428Y-12695714D01*
X12851428Y-12695714D02*
X12851428Y-12495714D01*
X12851428Y-12552857D02*
X12865714Y-12524286D01*
X12880000Y-12510000D01*
X12908571Y-12495714D01*
X12937143Y-12495714D01*
X13037143Y-12695714D02*
X13037143Y-12495714D01*
X13037143Y-12395714D02*
X13022857Y-12410000D01*
X13037143Y-12424286D01*
X13051428Y-12410000D01*
X13037143Y-12395714D01*
X13037143Y-12424286D01*
X13222857Y-12695714D02*
X13194286Y-12681429D01*
X13180000Y-12652857D01*
X13180000Y-12395714D01*
X13380000Y-12695714D02*
X13351428Y-12681429D01*
X13337143Y-12652857D01*
X13337143Y-12395714D01*
X13722857Y-12695714D02*
X13722857Y-12395714D01*
X13822857Y-12610000D01*
X13922857Y-12395714D01*
X13922857Y-12695714D01*
X14194286Y-12695714D02*
X14194286Y-12538571D01*
X14180000Y-12510000D01*
X14151428Y-12495714D01*
X14094286Y-12495714D01*
X14065714Y-12510000D01*
X14194286Y-12681429D02*
X14165714Y-12695714D01*
X14094286Y-12695714D01*
X14065714Y-12681429D01*
X14051428Y-12652857D01*
X14051428Y-12624286D01*
X14065714Y-12595714D01*
X14094286Y-12581429D01*
X14165714Y-12581429D01*
X14194286Y-12567143D01*
X14337143Y-12495714D02*
X14337143Y-12795714D01*
X14337143Y-12510000D02*
X14365714Y-12495714D01*
X14422857Y-12495714D01*
X14451428Y-12510000D01*
X14465714Y-12524286D01*
X14480000Y-12552857D01*
X14480000Y-12638571D01*
X14465714Y-12667143D01*
X14451428Y-12681429D01*
X14422857Y-12695714D01*
X14365714Y-12695714D01*
X14337143Y-12681429D01*
X14608571Y-12667143D02*
X14622857Y-12681429D01*
X14608571Y-12695714D01*
X14594286Y-12681429D01*
X14608571Y-12667143D01*
X14608571Y-12695714D01*
X14608571Y-12510000D02*
X14622857Y-12524286D01*
X14608571Y-12538571D01*
X14594286Y-12524286D01*
X14608571Y-12510000D01*
X14608571Y-12538571D01*
M02*
