G04 #@! TF.GenerationSoftware,KiCad,Pcbnew,5.1.5+dfsg1-2~bpo10+1*
G04 #@! TF.CreationDate,2020-03-26T22:11:47+01:00*
G04 #@! TF.ProjectId,snickerdoodle-hdmi-breakout,736e6963-6b65-4726-946f-6f646c652d68,rev?*
G04 #@! TF.SameCoordinates,Original*
G04 #@! TF.FileFunction,Paste,Bot*
G04 #@! TF.FilePolarity,Positive*
%FSLAX46Y46*%
G04 Gerber Fmt 4.6, Leading zero omitted, Abs format (unit mm)*
G04 Created by KiCad (PCBNEW 5.1.5+dfsg1-2~bpo10+1) date 2020-03-26 22:11:47*
%MOMM*%
%LPD*%
G04 APERTURE LIST*
%ADD10R,1.200000X2.000000*%
G04 APERTURE END LIST*
D10*
X151760000Y-109082000D03*
X154300000Y-109082000D03*
X182240000Y-109082000D03*
X187320000Y-109082000D03*
X167000000Y-109082000D03*
X144140000Y-109082000D03*
X174620000Y-109082000D03*
X169540000Y-109082000D03*
X146680000Y-109082000D03*
X184780000Y-109082000D03*
X189860000Y-109082000D03*
X164460000Y-109082000D03*
X161920000Y-109082000D03*
X149220000Y-109082000D03*
X177160000Y-109082000D03*
X179700000Y-109082000D03*
X159380000Y-109082000D03*
X156840000Y-109082000D03*
X172080000Y-109082000D03*
X141600000Y-109082000D03*
X141600000Y-105272000D03*
X159380000Y-105272000D03*
X164460000Y-105272000D03*
X144140000Y-105272000D03*
X151760000Y-105272000D03*
X146680000Y-105272000D03*
X161920000Y-105272000D03*
X154300000Y-105272000D03*
X156840000Y-105272000D03*
X149220000Y-105272000D03*
X167000000Y-105272000D03*
X169540000Y-105272000D03*
X172080000Y-105272000D03*
X174620000Y-105272000D03*
X177160000Y-105272000D03*
X179700000Y-105272000D03*
X182240000Y-105272000D03*
X184780000Y-105272000D03*
X187320000Y-105272000D03*
X189860000Y-105272000D03*
M02*
