M48
; DRILL file {KiCad 5.1.4+dfsg1-1~bpo9+1} date Wed 11 Mar 2020 10:42:22 CET
; FORMAT={-:-/ absolute / inch / decimal}
; #@! TF.CreationDate,2020-03-11T10:42:22+01:00
; #@! TF.GenerationSoftware,Kicad,Pcbnew,5.1.4+dfsg1-1~bpo9+1
; #@! TF.FileFunction,Plated,1,4,PTH
FMAT,2
INCH
T1C0.0098
T2C0.0354
%
G90
G05
T1
X5.3575Y-4.2866
X5.3913Y-4.2919
X5.6205Y-4.0572
X5.6268Y-4.3673
X5.6878Y-4.7587
X5.689Y-4.0555
X5.7409Y-4.0874
X5.7463Y-4.2016
X5.7673Y-4.4016
X5.8201Y-4.773
X5.8472Y-4.2139
X5.8748Y-4.3598
X5.8823Y-4.6945
X5.8827Y-4.5295
X5.8882Y-4.3953
X5.9138Y-4.6945
X5.9181Y-4.1929
X5.9197Y-4.3953
X5.9248Y-4.1543
X5.9256Y-4.1173
X5.937Y-4.6087
X5.9534Y-4.4976
X5.9534Y-4.5291
X5.9685Y-4.6087
X6.0937Y-4.6984
X6.1079Y-4.472
X6.1256Y-4.2352
X6.1354Y-4.7323
X6.1764Y-4.7327
X6.185Y-4.2268
X6.2236Y-4.1228
X6.2244Y-4.3098
X6.2594Y-4.6209
X6.2772Y-4.7366
X6.3183Y-4.1628
X6.3244Y-4.3898
X6.35Y-4.0606
X6.3626Y-4.3567
X6.3748Y-4.0835
X6.3752Y-4.3898
X6.3827Y-4.2134
X6.4598Y-4.7732
X6.461Y-4.6232
X6.4752Y-4.363
X6.7748Y-4.3677
X7.0909Y-4.7445
X7.1268Y-4.3252
X7.2105Y-4.5862
X7.2109Y-4.6134
X7.2542Y-4.6898
X7.2598Y-4.3791
X7.3028Y-4.3689
X7.3333Y-4.5949
X7.3713Y-4.0693
X7.4831Y-4.0689
X7.5402Y-4.6402
X7.5402Y-4.6705
X7.5402Y-4.7012
X7.5402Y-4.7315
X7.5402Y-4.7614
T2
G00X5.1803Y-4.1433
M15
G01X5.2276Y-4.1433
M16
G05
G00X5.1803Y-4.7142
M15
G01X5.2276Y-4.7142
M16
G05
G00X5.4047Y-4.1433
M15
G01X5.4756Y-4.1433
M16
G05
G00X5.4047Y-4.7142
M15
G01X5.4756Y-4.7142
M16
G05
T0
M30
