G04 #@! TF.GenerationSoftware,KiCad,Pcbnew,5.1.4+dfsg1-1~bpo9+1*
G04 #@! TF.CreationDate,2020-03-11T10:38:48+01:00*
G04 #@! TF.ProjectId,krtkl-breakybreaky-hdmi-expansion,6b72746b-6c2d-4627-9265-616b79627265,rev?*
G04 #@! TF.SameCoordinates,Original*
G04 #@! TF.FileFunction,Soldermask,Bot*
G04 #@! TF.FilePolarity,Negative*
%FSLAX46Y46*%
G04 Gerber Fmt 4.6, Leading zero omitted, Abs format (unit mm)*
G04 Created by KiCad (PCBNEW 5.1.4+dfsg1-1~bpo9+1) date 2020-03-11 10:38:48*
%MOMM*%
%LPD*%
G04 APERTURE LIST*
%ADD10C,0.100000*%
G04 APERTURE END LIST*
D10*
G36*
X139158571Y-118942863D02*
G01*
X139237023Y-118950590D01*
X139337682Y-118981125D01*
X139388013Y-118996392D01*
X139527165Y-119070771D01*
X139649133Y-119170867D01*
X139749229Y-119292835D01*
X139823608Y-119431987D01*
X139823608Y-119431988D01*
X139869410Y-119582977D01*
X139884875Y-119740000D01*
X139869410Y-119897023D01*
X139838875Y-119997682D01*
X139823608Y-120048013D01*
X139749229Y-120187165D01*
X139649133Y-120309133D01*
X139527165Y-120409229D01*
X139388013Y-120483608D01*
X139337682Y-120498875D01*
X139237023Y-120529410D01*
X139158571Y-120537137D01*
X139119346Y-120541000D01*
X137240654Y-120541000D01*
X137201429Y-120537137D01*
X137122977Y-120529410D01*
X137022318Y-120498875D01*
X136971987Y-120483608D01*
X136832835Y-120409229D01*
X136710867Y-120309133D01*
X136610771Y-120187165D01*
X136536392Y-120048013D01*
X136521125Y-119997682D01*
X136490590Y-119897023D01*
X136475125Y-119740000D01*
X136490590Y-119582977D01*
X136536392Y-119431988D01*
X136536392Y-119431987D01*
X136610771Y-119292835D01*
X136710867Y-119170867D01*
X136832835Y-119070771D01*
X136971987Y-118996392D01*
X137022318Y-118981125D01*
X137122977Y-118950590D01*
X137201429Y-118942863D01*
X137240654Y-118939000D01*
X139119346Y-118939000D01*
X139158571Y-118942863D01*
X139158571Y-118942863D01*
G37*
G36*
X132858571Y-118942863D02*
G01*
X132937023Y-118950590D01*
X133037682Y-118981125D01*
X133088013Y-118996392D01*
X133227165Y-119070771D01*
X133349133Y-119170867D01*
X133449229Y-119292835D01*
X133523608Y-119431987D01*
X133523608Y-119431988D01*
X133569410Y-119582977D01*
X133584875Y-119740000D01*
X133569410Y-119897023D01*
X133538875Y-119997682D01*
X133523608Y-120048013D01*
X133449229Y-120187165D01*
X133349133Y-120309133D01*
X133227165Y-120409229D01*
X133088013Y-120483608D01*
X133037682Y-120498875D01*
X132937023Y-120529410D01*
X132858571Y-120537137D01*
X132819346Y-120541000D01*
X131540654Y-120541000D01*
X131501429Y-120537137D01*
X131422977Y-120529410D01*
X131322318Y-120498875D01*
X131271987Y-120483608D01*
X131132835Y-120409229D01*
X131010867Y-120309133D01*
X130910771Y-120187165D01*
X130836392Y-120048013D01*
X130821125Y-119997682D01*
X130790590Y-119897023D01*
X130775125Y-119740000D01*
X130790590Y-119582977D01*
X130836392Y-119431988D01*
X130836392Y-119431987D01*
X130910771Y-119292835D01*
X131010867Y-119170867D01*
X131132835Y-119070771D01*
X131271987Y-118996392D01*
X131322318Y-118981125D01*
X131422977Y-118950590D01*
X131501429Y-118942863D01*
X131540654Y-118939000D01*
X132819346Y-118939000D01*
X132858571Y-118942863D01*
X132858571Y-118942863D01*
G37*
G36*
X147331000Y-110133000D02*
G01*
X146029000Y-110133000D01*
X146029000Y-108031000D01*
X147331000Y-108031000D01*
X147331000Y-110133000D01*
X147331000Y-110133000D01*
G37*
G36*
X180351000Y-110133000D02*
G01*
X179049000Y-110133000D01*
X179049000Y-108031000D01*
X180351000Y-108031000D01*
X180351000Y-110133000D01*
X180351000Y-110133000D01*
G37*
G36*
X177811000Y-110133000D02*
G01*
X176509000Y-110133000D01*
X176509000Y-108031000D01*
X177811000Y-108031000D01*
X177811000Y-110133000D01*
X177811000Y-110133000D01*
G37*
G36*
X149871000Y-110133000D02*
G01*
X148569000Y-110133000D01*
X148569000Y-108031000D01*
X149871000Y-108031000D01*
X149871000Y-110133000D01*
X149871000Y-110133000D01*
G37*
G36*
X162571000Y-110133000D02*
G01*
X161269000Y-110133000D01*
X161269000Y-108031000D01*
X162571000Y-108031000D01*
X162571000Y-110133000D01*
X162571000Y-110133000D01*
G37*
G36*
X165111000Y-110133000D02*
G01*
X163809000Y-110133000D01*
X163809000Y-108031000D01*
X165111000Y-108031000D01*
X165111000Y-110133000D01*
X165111000Y-110133000D01*
G37*
G36*
X170191000Y-110133000D02*
G01*
X168889000Y-110133000D01*
X168889000Y-108031000D01*
X170191000Y-108031000D01*
X170191000Y-110133000D01*
X170191000Y-110133000D01*
G37*
G36*
X175271000Y-110133000D02*
G01*
X173969000Y-110133000D01*
X173969000Y-108031000D01*
X175271000Y-108031000D01*
X175271000Y-110133000D01*
X175271000Y-110133000D01*
G37*
G36*
X185431000Y-110133000D02*
G01*
X184129000Y-110133000D01*
X184129000Y-108031000D01*
X185431000Y-108031000D01*
X185431000Y-110133000D01*
X185431000Y-110133000D01*
G37*
G36*
X167651000Y-110133000D02*
G01*
X166349000Y-110133000D01*
X166349000Y-108031000D01*
X167651000Y-108031000D01*
X167651000Y-110133000D01*
X167651000Y-110133000D01*
G37*
G36*
X182891000Y-110133000D02*
G01*
X181589000Y-110133000D01*
X181589000Y-108031000D01*
X182891000Y-108031000D01*
X182891000Y-110133000D01*
X182891000Y-110133000D01*
G37*
G36*
X144791000Y-110133000D02*
G01*
X143489000Y-110133000D01*
X143489000Y-108031000D01*
X144791000Y-108031000D01*
X144791000Y-110133000D01*
X144791000Y-110133000D01*
G37*
G36*
X142251000Y-110133000D02*
G01*
X140949000Y-110133000D01*
X140949000Y-108031000D01*
X142251000Y-108031000D01*
X142251000Y-110133000D01*
X142251000Y-110133000D01*
G37*
G36*
X172731000Y-110133000D02*
G01*
X171429000Y-110133000D01*
X171429000Y-108031000D01*
X172731000Y-108031000D01*
X172731000Y-110133000D01*
X172731000Y-110133000D01*
G37*
G36*
X190511000Y-110133000D02*
G01*
X189209000Y-110133000D01*
X189209000Y-108031000D01*
X190511000Y-108031000D01*
X190511000Y-110133000D01*
X190511000Y-110133000D01*
G37*
G36*
X157491000Y-110133000D02*
G01*
X156189000Y-110133000D01*
X156189000Y-108031000D01*
X157491000Y-108031000D01*
X157491000Y-110133000D01*
X157491000Y-110133000D01*
G37*
G36*
X160031000Y-110133000D02*
G01*
X158729000Y-110133000D01*
X158729000Y-108031000D01*
X160031000Y-108031000D01*
X160031000Y-110133000D01*
X160031000Y-110133000D01*
G37*
G36*
X152411000Y-110133000D02*
G01*
X151109000Y-110133000D01*
X151109000Y-108031000D01*
X152411000Y-108031000D01*
X152411000Y-110133000D01*
X152411000Y-110133000D01*
G37*
G36*
X154951000Y-110133000D02*
G01*
X153649000Y-110133000D01*
X153649000Y-108031000D01*
X154951000Y-108031000D01*
X154951000Y-110133000D01*
X154951000Y-110133000D01*
G37*
G36*
X187971000Y-110133000D02*
G01*
X186669000Y-110133000D01*
X186669000Y-108031000D01*
X187971000Y-108031000D01*
X187971000Y-110133000D01*
X187971000Y-110133000D01*
G37*
G36*
X190511000Y-106323000D02*
G01*
X189209000Y-106323000D01*
X189209000Y-104221000D01*
X190511000Y-104221000D01*
X190511000Y-106323000D01*
X190511000Y-106323000D01*
G37*
G36*
X185431000Y-106323000D02*
G01*
X184129000Y-106323000D01*
X184129000Y-104221000D01*
X185431000Y-104221000D01*
X185431000Y-106323000D01*
X185431000Y-106323000D01*
G37*
G36*
X182891000Y-106323000D02*
G01*
X181589000Y-106323000D01*
X181589000Y-104221000D01*
X182891000Y-104221000D01*
X182891000Y-106323000D01*
X182891000Y-106323000D01*
G37*
G36*
X142251000Y-106323000D02*
G01*
X140949000Y-106323000D01*
X140949000Y-104221000D01*
X142251000Y-104221000D01*
X142251000Y-106323000D01*
X142251000Y-106323000D01*
G37*
G36*
X160031000Y-106323000D02*
G01*
X158729000Y-106323000D01*
X158729000Y-104221000D01*
X160031000Y-104221000D01*
X160031000Y-106323000D01*
X160031000Y-106323000D01*
G37*
G36*
X165111000Y-106323000D02*
G01*
X163809000Y-106323000D01*
X163809000Y-104221000D01*
X165111000Y-104221000D01*
X165111000Y-106323000D01*
X165111000Y-106323000D01*
G37*
G36*
X144791000Y-106323000D02*
G01*
X143489000Y-106323000D01*
X143489000Y-104221000D01*
X144791000Y-104221000D01*
X144791000Y-106323000D01*
X144791000Y-106323000D01*
G37*
G36*
X152411000Y-106323000D02*
G01*
X151109000Y-106323000D01*
X151109000Y-104221000D01*
X152411000Y-104221000D01*
X152411000Y-106323000D01*
X152411000Y-106323000D01*
G37*
G36*
X147331000Y-106323000D02*
G01*
X146029000Y-106323000D01*
X146029000Y-104221000D01*
X147331000Y-104221000D01*
X147331000Y-106323000D01*
X147331000Y-106323000D01*
G37*
G36*
X187971000Y-106323000D02*
G01*
X186669000Y-106323000D01*
X186669000Y-104221000D01*
X187971000Y-104221000D01*
X187971000Y-106323000D01*
X187971000Y-106323000D01*
G37*
G36*
X154951000Y-106323000D02*
G01*
X153649000Y-106323000D01*
X153649000Y-104221000D01*
X154951000Y-104221000D01*
X154951000Y-106323000D01*
X154951000Y-106323000D01*
G37*
G36*
X157491000Y-106323000D02*
G01*
X156189000Y-106323000D01*
X156189000Y-104221000D01*
X157491000Y-104221000D01*
X157491000Y-106323000D01*
X157491000Y-106323000D01*
G37*
G36*
X149871000Y-106323000D02*
G01*
X148569000Y-106323000D01*
X148569000Y-104221000D01*
X149871000Y-104221000D01*
X149871000Y-106323000D01*
X149871000Y-106323000D01*
G37*
G36*
X167651000Y-106323000D02*
G01*
X166349000Y-106323000D01*
X166349000Y-104221000D01*
X167651000Y-104221000D01*
X167651000Y-106323000D01*
X167651000Y-106323000D01*
G37*
G36*
X170191000Y-106323000D02*
G01*
X168889000Y-106323000D01*
X168889000Y-104221000D01*
X170191000Y-104221000D01*
X170191000Y-106323000D01*
X170191000Y-106323000D01*
G37*
G36*
X172731000Y-106323000D02*
G01*
X171429000Y-106323000D01*
X171429000Y-104221000D01*
X172731000Y-104221000D01*
X172731000Y-106323000D01*
X172731000Y-106323000D01*
G37*
G36*
X175271000Y-106323000D02*
G01*
X173969000Y-106323000D01*
X173969000Y-104221000D01*
X175271000Y-104221000D01*
X175271000Y-106323000D01*
X175271000Y-106323000D01*
G37*
G36*
X177811000Y-106323000D02*
G01*
X176509000Y-106323000D01*
X176509000Y-104221000D01*
X177811000Y-104221000D01*
X177811000Y-106323000D01*
X177811000Y-106323000D01*
G37*
G36*
X162571000Y-106323000D02*
G01*
X161269000Y-106323000D01*
X161269000Y-104221000D01*
X162571000Y-104221000D01*
X162571000Y-106323000D01*
X162571000Y-106323000D01*
G37*
G36*
X180351000Y-106323000D02*
G01*
X179049000Y-106323000D01*
X179049000Y-104221000D01*
X180351000Y-104221000D01*
X180351000Y-106323000D01*
X180351000Y-106323000D01*
G37*
G36*
X139158571Y-104442863D02*
G01*
X139237023Y-104450590D01*
X139337682Y-104481125D01*
X139388013Y-104496392D01*
X139527165Y-104570771D01*
X139649133Y-104670867D01*
X139749229Y-104792835D01*
X139823608Y-104931987D01*
X139823608Y-104931988D01*
X139869410Y-105082977D01*
X139884875Y-105240000D01*
X139869410Y-105397023D01*
X139838875Y-105497682D01*
X139823608Y-105548013D01*
X139749229Y-105687165D01*
X139649133Y-105809133D01*
X139527165Y-105909229D01*
X139388013Y-105983608D01*
X139337682Y-105998875D01*
X139237023Y-106029410D01*
X139158571Y-106037137D01*
X139119346Y-106041000D01*
X137240654Y-106041000D01*
X137201429Y-106037137D01*
X137122977Y-106029410D01*
X137022318Y-105998875D01*
X136971987Y-105983608D01*
X136832835Y-105909229D01*
X136710867Y-105809133D01*
X136610771Y-105687165D01*
X136536392Y-105548013D01*
X136521125Y-105497682D01*
X136490590Y-105397023D01*
X136475125Y-105240000D01*
X136490590Y-105082977D01*
X136536392Y-104931988D01*
X136536392Y-104931987D01*
X136610771Y-104792835D01*
X136710867Y-104670867D01*
X136832835Y-104570771D01*
X136971987Y-104496392D01*
X137022318Y-104481125D01*
X137122977Y-104450590D01*
X137201429Y-104442863D01*
X137240654Y-104439000D01*
X139119346Y-104439000D01*
X139158571Y-104442863D01*
X139158571Y-104442863D01*
G37*
G36*
X132858571Y-104442863D02*
G01*
X132937023Y-104450590D01*
X133037682Y-104481125D01*
X133088013Y-104496392D01*
X133227165Y-104570771D01*
X133349133Y-104670867D01*
X133449229Y-104792835D01*
X133523608Y-104931987D01*
X133523608Y-104931988D01*
X133569410Y-105082977D01*
X133584875Y-105240000D01*
X133569410Y-105397023D01*
X133538875Y-105497682D01*
X133523608Y-105548013D01*
X133449229Y-105687165D01*
X133349133Y-105809133D01*
X133227165Y-105909229D01*
X133088013Y-105983608D01*
X133037682Y-105998875D01*
X132937023Y-106029410D01*
X132858571Y-106037137D01*
X132819346Y-106041000D01*
X131540654Y-106041000D01*
X131501429Y-106037137D01*
X131422977Y-106029410D01*
X131322318Y-105998875D01*
X131271987Y-105983608D01*
X131132835Y-105909229D01*
X131010867Y-105809133D01*
X130910771Y-105687165D01*
X130836392Y-105548013D01*
X130821125Y-105497682D01*
X130790590Y-105397023D01*
X130775125Y-105240000D01*
X130790590Y-105082977D01*
X130836392Y-104931988D01*
X130836392Y-104931987D01*
X130910771Y-104792835D01*
X131010867Y-104670867D01*
X131132835Y-104570771D01*
X131271987Y-104496392D01*
X131322318Y-104481125D01*
X131422977Y-104450590D01*
X131501429Y-104442863D01*
X131540654Y-104439000D01*
X132819346Y-104439000D01*
X132858571Y-104442863D01*
X132858571Y-104442863D01*
G37*
M02*
