G04 #@! TF.GenerationSoftware,KiCad,Pcbnew,5.1.4+dfsg1-1~bpo9+1*
G04 #@! TF.CreationDate,2020-03-11T10:38:48+01:00*
G04 #@! TF.ProjectId,krtkl-breakybreaky-hdmi-expansion,6b72746b-6c2d-4627-9265-616b79627265,rev?*
G04 #@! TF.SameCoordinates,Original*
G04 #@! TF.FileFunction,Legend,Top*
G04 #@! TF.FilePolarity,Positive*
%FSLAX46Y46*%
G04 Gerber Fmt 4.6, Leading zero omitted, Abs format (unit mm)*
G04 Created by KiCad (PCBNEW 5.1.4+dfsg1-1~bpo9+1) date 2020-03-11 10:38:48*
%MOMM*%
%LPD*%
G04 APERTURE LIST*
%ADD10C,0.120000*%
%ADD11C,0.100000*%
%ADD12C,0.200000*%
%ADD13C,0.150000*%
G04 APERTURE END LIST*
D10*
X143480000Y-119450000D02*
X144080000Y-119450000D01*
X143480000Y-120050000D02*
X144080000Y-120050000D01*
X176610000Y-112200000D02*
X176610000Y-112800000D01*
X176010000Y-112200000D02*
X176010000Y-112800000D01*
X188119475Y-103959474D02*
G75*
G02X188144600Y-102760000I25125J599474D01*
G01*
X188995125Y-102760526D02*
X188144875Y-102760526D01*
X188995125Y-102760526D02*
G75*
G02X188970000Y-103960000I-25125J-599474D01*
G01*
X188970000Y-103960000D02*
X188170000Y-103960000D01*
D11*
X128780000Y-119690000D02*
X127930000Y-119690000D01*
X127930000Y-119690000D02*
X127930000Y-118990000D01*
X127930000Y-105990000D02*
X127930000Y-105290000D01*
X127930000Y-105290000D02*
X128780000Y-105290000D01*
X140530000Y-116740000D02*
X140530000Y-118640000D01*
X140530000Y-118640000D02*
X139580000Y-119590000D01*
X139780000Y-105290000D02*
X140530000Y-105290000D01*
X140530000Y-105290000D02*
X140530000Y-105990000D01*
D10*
X186290000Y-116770000D02*
X186290000Y-118270000D01*
X183070000Y-115270000D02*
X183070000Y-118270000D01*
D12*
X185792956Y-113960000D02*
G75*
G03X185792956Y-113960000I-102956J0D01*
G01*
D10*
X181440000Y-115630000D02*
X180840000Y-115630000D01*
X181440000Y-115030000D02*
X180840000Y-115030000D01*
D11*
X158990000Y-107035000D02*
X159290000Y-107035000D01*
X158990000Y-107410000D02*
X158990000Y-107035000D01*
X162290000Y-107035000D02*
X162290000Y-107485000D01*
X161990000Y-107035000D02*
X162290000Y-107035000D01*
X162065000Y-107035000D02*
X161940000Y-107035000D01*
X162290000Y-108685000D02*
X161940000Y-108685000D01*
X162290000Y-108210000D02*
X162290000Y-108685000D01*
X159315000Y-108685000D02*
X159315000Y-109460000D01*
X159265000Y-108685000D02*
X159315000Y-108685000D01*
X158990000Y-108310000D02*
X159265000Y-108685000D01*
X158990000Y-108035000D02*
X158990000Y-108310000D01*
X159770000Y-106595000D02*
X159470000Y-106595000D01*
X159770000Y-106220000D02*
X159770000Y-106595000D01*
X156470000Y-106595000D02*
X156470000Y-106145000D01*
X156770000Y-106595000D02*
X156470000Y-106595000D01*
X156695000Y-106595000D02*
X156820000Y-106595000D01*
X156470000Y-104945000D02*
X156820000Y-104945000D01*
X156470000Y-105420000D02*
X156470000Y-104945000D01*
X159445000Y-104945000D02*
X159445000Y-104170000D01*
X159495000Y-104945000D02*
X159445000Y-104945000D01*
X159770000Y-105320000D02*
X159495000Y-104945000D01*
X159770000Y-105595000D02*
X159770000Y-105320000D01*
D10*
X148963333Y-103240000D02*
X148963333Y-104940000D01*
X149763333Y-103240000D02*
X148963333Y-103240000D01*
X149963333Y-103240000D02*
X149763333Y-103240000D01*
X149963333Y-103340000D02*
X149963333Y-103240000D01*
X149963333Y-103440000D02*
X149963333Y-103340000D01*
X149963333Y-103440000D02*
X149963333Y-104940000D01*
X146420000Y-103240000D02*
X146420000Y-104940000D01*
X147220000Y-103240000D02*
X146420000Y-103240000D01*
X147420000Y-103240000D02*
X147220000Y-103240000D01*
X147420000Y-103340000D02*
X147420000Y-103240000D01*
X147420000Y-103440000D02*
X147420000Y-103340000D01*
X147420000Y-103440000D02*
X147420000Y-104940000D01*
X154050000Y-103240000D02*
X154050000Y-104940000D01*
X154850000Y-103240000D02*
X154050000Y-103240000D01*
X155050000Y-103240000D02*
X154850000Y-103240000D01*
X155050000Y-103340000D02*
X155050000Y-103240000D01*
X155050000Y-103440000D02*
X155050000Y-103340000D01*
X155050000Y-103440000D02*
X155050000Y-104940000D01*
X151506666Y-103240000D02*
X151506666Y-104940000D01*
X152306666Y-103240000D02*
X151506666Y-103240000D01*
X152506666Y-103240000D02*
X152306666Y-103240000D01*
X152506666Y-103340000D02*
X152506666Y-103240000D01*
X152506666Y-103440000D02*
X152506666Y-103340000D01*
X152506666Y-103440000D02*
X152506666Y-104940000D01*
X181860000Y-112560000D02*
X181860000Y-111960000D01*
X183460000Y-112580000D02*
X183460000Y-111980000D01*
X179710000Y-112560000D02*
X179710000Y-111960000D01*
X181310000Y-112580000D02*
X181310000Y-111980000D01*
X177520000Y-112570000D02*
X177520000Y-111970000D01*
X179120000Y-112590000D02*
X179120000Y-111990000D01*
X186430000Y-119530000D02*
X187030000Y-119530000D01*
X186410000Y-121130000D02*
X187010000Y-121130000D01*
D12*
X155250000Y-118290000D02*
G75*
G03X155250000Y-118290000I-100000J0D01*
G01*
D11*
X160675000Y-119670000D02*
X160675000Y-119370000D01*
X161050000Y-119670000D02*
X160675000Y-119670000D01*
X160675000Y-116370000D02*
X161125000Y-116370000D01*
X160675000Y-116670000D02*
X160675000Y-116370000D01*
X160675000Y-116595000D02*
X160675000Y-116720000D01*
X162325000Y-116370000D02*
X162325000Y-116720000D01*
X161850000Y-116370000D02*
X162325000Y-116370000D01*
X162325000Y-119345000D02*
X163100000Y-119345000D01*
X162325000Y-119395000D02*
X162325000Y-119345000D01*
X161950000Y-119670000D02*
X162325000Y-119395000D01*
X161675000Y-119670000D02*
X161950000Y-119670000D01*
X144850000Y-110640000D02*
X144350000Y-110640000D01*
X144850000Y-110740000D02*
X144350000Y-110740000D01*
X143350000Y-110635000D02*
X143800000Y-110635000D01*
X143350000Y-110735000D02*
X143800000Y-110735000D01*
X143350000Y-108885000D02*
X143600000Y-108885000D01*
X143350000Y-109235000D02*
X143350000Y-108885000D01*
X143350000Y-110835000D02*
X143800000Y-110835000D01*
X143350000Y-110485000D02*
X143350000Y-110835000D01*
X144850000Y-108885000D02*
X144850000Y-109235000D01*
X144500000Y-108885000D02*
X144850000Y-108885000D01*
X144850000Y-110485000D02*
X144850000Y-110835000D01*
X144850000Y-110840000D02*
X144350000Y-110840000D01*
X144350000Y-110840000D02*
X144350000Y-110640000D01*
X143800000Y-110840000D02*
X143800000Y-110640000D01*
D13*
X162176666Y-112496666D02*
X162576666Y-112496666D01*
X162376666Y-113196666D02*
X162376666Y-112496666D01*
X162810000Y-113196666D02*
X162810000Y-112496666D01*
X163076666Y-112496666D01*
X163143333Y-112530000D01*
X163176666Y-112563333D01*
X163210000Y-112630000D01*
X163210000Y-112730000D01*
X163176666Y-112796666D01*
X163143333Y-112830000D01*
X163076666Y-112863333D01*
X162810000Y-112863333D01*
X163810000Y-112496666D02*
X163676666Y-112496666D01*
X163610000Y-112530000D01*
X163576666Y-112563333D01*
X163510000Y-112663333D01*
X163476666Y-112796666D01*
X163476666Y-113063333D01*
X163510000Y-113130000D01*
X163543333Y-113163333D01*
X163610000Y-113196666D01*
X163743333Y-113196666D01*
X163810000Y-113163333D01*
X163843333Y-113130000D01*
X163876666Y-113063333D01*
X163876666Y-112896666D01*
X163843333Y-112830000D01*
X163810000Y-112796666D01*
X163743333Y-112763333D01*
X163610000Y-112763333D01*
X163543333Y-112796666D01*
X163510000Y-112830000D01*
X163476666Y-112896666D01*
X163866666Y-111586666D02*
X164266666Y-111586666D01*
X164066666Y-112286666D02*
X164066666Y-111586666D01*
X164500000Y-112286666D02*
X164500000Y-111586666D01*
X164766666Y-111586666D01*
X164833333Y-111620000D01*
X164866666Y-111653333D01*
X164900000Y-111720000D01*
X164900000Y-111820000D01*
X164866666Y-111886666D01*
X164833333Y-111920000D01*
X164766666Y-111953333D01*
X164500000Y-111953333D01*
X165533333Y-111586666D02*
X165200000Y-111586666D01*
X165166666Y-111920000D01*
X165200000Y-111886666D01*
X165266666Y-111853333D01*
X165433333Y-111853333D01*
X165500000Y-111886666D01*
X165533333Y-111920000D01*
X165566666Y-111986666D01*
X165566666Y-112153333D01*
X165533333Y-112220000D01*
X165500000Y-112253333D01*
X165433333Y-112286666D01*
X165266666Y-112286666D01*
X165200000Y-112253333D01*
X165166666Y-112220000D01*
X141186666Y-107483333D02*
X141186666Y-107083333D01*
X141886666Y-107283333D02*
X141186666Y-107283333D01*
X141886666Y-106850000D02*
X141186666Y-106850000D01*
X141186666Y-106583333D01*
X141220000Y-106516666D01*
X141253333Y-106483333D01*
X141320000Y-106450000D01*
X141420000Y-106450000D01*
X141486666Y-106483333D01*
X141520000Y-106516666D01*
X141553333Y-106583333D01*
X141553333Y-106850000D01*
X141420000Y-105850000D02*
X141886666Y-105850000D01*
X141153333Y-106016666D02*
X141653333Y-106183333D01*
X141653333Y-105750000D01*
X142166666Y-108123333D02*
X142166666Y-107723333D01*
X142866666Y-107923333D02*
X142166666Y-107923333D01*
X142866666Y-107490000D02*
X142166666Y-107490000D01*
X142166666Y-107223333D01*
X142200000Y-107156666D01*
X142233333Y-107123333D01*
X142300000Y-107090000D01*
X142400000Y-107090000D01*
X142466666Y-107123333D01*
X142500000Y-107156666D01*
X142533333Y-107223333D01*
X142533333Y-107490000D01*
X142166666Y-106856666D02*
X142166666Y-106423333D01*
X142433333Y-106656666D01*
X142433333Y-106556666D01*
X142466666Y-106490000D01*
X142500000Y-106456666D01*
X142566666Y-106423333D01*
X142733333Y-106423333D01*
X142800000Y-106456666D01*
X142833333Y-106490000D01*
X142866666Y-106556666D01*
X142866666Y-106756666D01*
X142833333Y-106823333D01*
X142800000Y-106856666D01*
X143166666Y-107483333D02*
X143166666Y-107083333D01*
X143866666Y-107283333D02*
X143166666Y-107283333D01*
X143866666Y-106850000D02*
X143166666Y-106850000D01*
X143166666Y-106583333D01*
X143200000Y-106516666D01*
X143233333Y-106483333D01*
X143300000Y-106450000D01*
X143400000Y-106450000D01*
X143466666Y-106483333D01*
X143500000Y-106516666D01*
X143533333Y-106583333D01*
X143533333Y-106850000D01*
X143233333Y-106183333D02*
X143200000Y-106150000D01*
X143166666Y-106083333D01*
X143166666Y-105916666D01*
X143200000Y-105850000D01*
X143233333Y-105816666D01*
X143300000Y-105783333D01*
X143366666Y-105783333D01*
X143466666Y-105816666D01*
X143866666Y-106216666D01*
X143866666Y-105783333D01*
X144096666Y-108113333D02*
X144096666Y-107713333D01*
X144796666Y-107913333D02*
X144096666Y-107913333D01*
X144796666Y-107480000D02*
X144096666Y-107480000D01*
X144096666Y-107213333D01*
X144130000Y-107146666D01*
X144163333Y-107113333D01*
X144230000Y-107080000D01*
X144330000Y-107080000D01*
X144396666Y-107113333D01*
X144430000Y-107146666D01*
X144463333Y-107213333D01*
X144463333Y-107480000D01*
X144796666Y-106413333D02*
X144796666Y-106813333D01*
X144796666Y-106613333D02*
X144096666Y-106613333D01*
X144196666Y-106680000D01*
X144263333Y-106746666D01*
X144296666Y-106813333D01*
X156181428Y-117535714D02*
X155895714Y-117735714D01*
X156181428Y-117878571D02*
X155581428Y-117878571D01*
X155581428Y-117650000D01*
X155610000Y-117592857D01*
X155638571Y-117564285D01*
X155695714Y-117535714D01*
X155781428Y-117535714D01*
X155838571Y-117564285D01*
X155867142Y-117592857D01*
X155895714Y-117650000D01*
X155895714Y-117878571D01*
X156181428Y-116964285D02*
X156181428Y-117307142D01*
X156181428Y-117135714D02*
X155581428Y-117135714D01*
X155667142Y-117192857D01*
X155724285Y-117250000D01*
X155752857Y-117307142D01*
X155781428Y-116450000D02*
X156181428Y-116450000D01*
X155552857Y-116592857D02*
X155981428Y-116735714D01*
X155981428Y-116364285D01*
X157221428Y-117535714D02*
X156935714Y-117735714D01*
X157221428Y-117878571D02*
X156621428Y-117878571D01*
X156621428Y-117650000D01*
X156650000Y-117592857D01*
X156678571Y-117564285D01*
X156735714Y-117535714D01*
X156821428Y-117535714D01*
X156878571Y-117564285D01*
X156907142Y-117592857D01*
X156935714Y-117650000D01*
X156935714Y-117878571D01*
X157221428Y-116964285D02*
X157221428Y-117307142D01*
X157221428Y-117135714D02*
X156621428Y-117135714D01*
X156707142Y-117192857D01*
X156764285Y-117250000D01*
X156792857Y-117307142D01*
X156621428Y-116764285D02*
X156621428Y-116392857D01*
X156850000Y-116592857D01*
X156850000Y-116507142D01*
X156878571Y-116450000D01*
X156907142Y-116421428D01*
X156964285Y-116392857D01*
X157107142Y-116392857D01*
X157164285Y-116421428D01*
X157192857Y-116450000D01*
X157221428Y-116507142D01*
X157221428Y-116678571D01*
X157192857Y-116735714D01*
X157164285Y-116764285D01*
X143010000Y-118507142D02*
X142810000Y-118507142D01*
X142810000Y-118821428D02*
X142810000Y-118221428D01*
X143095714Y-118221428D01*
X143524285Y-118507142D02*
X143610000Y-118535714D01*
X143638571Y-118564285D01*
X143667142Y-118621428D01*
X143667142Y-118707142D01*
X143638571Y-118764285D01*
X143610000Y-118792857D01*
X143552857Y-118821428D01*
X143324285Y-118821428D01*
X143324285Y-118221428D01*
X143524285Y-118221428D01*
X143581428Y-118250000D01*
X143610000Y-118278571D01*
X143638571Y-118335714D01*
X143638571Y-118392857D01*
X143610000Y-118450000D01*
X143581428Y-118478571D01*
X143524285Y-118507142D01*
X143324285Y-118507142D01*
X144238571Y-118821428D02*
X143895714Y-118821428D01*
X144067142Y-118821428D02*
X144067142Y-118221428D01*
X144010000Y-118307142D01*
X143952857Y-118364285D01*
X143895714Y-118392857D01*
X175311428Y-112895714D02*
X175025714Y-113095714D01*
X175311428Y-113238571D02*
X174711428Y-113238571D01*
X174711428Y-113010000D01*
X174740000Y-112952857D01*
X174768571Y-112924285D01*
X174825714Y-112895714D01*
X174911428Y-112895714D01*
X174968571Y-112924285D01*
X174997142Y-112952857D01*
X175025714Y-113010000D01*
X175025714Y-113238571D01*
X175311428Y-112324285D02*
X175311428Y-112667142D01*
X175311428Y-112495714D02*
X174711428Y-112495714D01*
X174797142Y-112552857D01*
X174854285Y-112610000D01*
X174882857Y-112667142D01*
X174768571Y-112095714D02*
X174740000Y-112067142D01*
X174711428Y-112010000D01*
X174711428Y-111867142D01*
X174740000Y-111810000D01*
X174768571Y-111781428D01*
X174825714Y-111752857D01*
X174882857Y-111752857D01*
X174968571Y-111781428D01*
X175311428Y-112124285D01*
X175311428Y-111752857D01*
X188290000Y-104321428D02*
X188290000Y-104750000D01*
X188261428Y-104835714D01*
X188204285Y-104892857D01*
X188118571Y-104921428D01*
X188061428Y-104921428D01*
X188518571Y-104321428D02*
X188890000Y-104321428D01*
X188690000Y-104550000D01*
X188775714Y-104550000D01*
X188832857Y-104578571D01*
X188861428Y-104607142D01*
X188890000Y-104664285D01*
X188890000Y-104807142D01*
X188861428Y-104864285D01*
X188832857Y-104892857D01*
X188775714Y-104921428D01*
X188604285Y-104921428D01*
X188547142Y-104892857D01*
X188518571Y-104864285D01*
X139920000Y-103631428D02*
X139920000Y-104060000D01*
X139891428Y-104145714D01*
X139834285Y-104202857D01*
X139748571Y-104231428D01*
X139691428Y-104231428D01*
X140177142Y-103688571D02*
X140205714Y-103660000D01*
X140262857Y-103631428D01*
X140405714Y-103631428D01*
X140462857Y-103660000D01*
X140491428Y-103688571D01*
X140520000Y-103745714D01*
X140520000Y-103802857D01*
X140491428Y-103888571D01*
X140148571Y-104231428D01*
X140520000Y-104231428D01*
X181762857Y-117641428D02*
X181762857Y-118127142D01*
X181791428Y-118184285D01*
X181820000Y-118212857D01*
X181877142Y-118241428D01*
X181991428Y-118241428D01*
X182048571Y-118212857D01*
X182077142Y-118184285D01*
X182105714Y-118127142D01*
X182105714Y-117641428D01*
X182362857Y-117698571D02*
X182391428Y-117670000D01*
X182448571Y-117641428D01*
X182591428Y-117641428D01*
X182648571Y-117670000D01*
X182677142Y-117698571D01*
X182705714Y-117755714D01*
X182705714Y-117812857D01*
X182677142Y-117898571D01*
X182334285Y-118241428D01*
X182705714Y-118241428D01*
X182421428Y-120725714D02*
X182135714Y-120925714D01*
X182421428Y-121068571D02*
X181821428Y-121068571D01*
X181821428Y-120840000D01*
X181850000Y-120782857D01*
X181878571Y-120754285D01*
X181935714Y-120725714D01*
X182021428Y-120725714D01*
X182078571Y-120754285D01*
X182107142Y-120782857D01*
X182135714Y-120840000D01*
X182135714Y-121068571D01*
X182421428Y-120154285D02*
X182421428Y-120497142D01*
X182421428Y-120325714D02*
X181821428Y-120325714D01*
X181907142Y-120382857D01*
X181964285Y-120440000D01*
X181992857Y-120497142D01*
X182421428Y-119582857D02*
X182421428Y-119925714D01*
X182421428Y-119754285D02*
X181821428Y-119754285D01*
X181907142Y-119811428D01*
X181964285Y-119868571D01*
X181992857Y-119925714D01*
X185701428Y-112895714D02*
X185415714Y-113095714D01*
X185701428Y-113238571D02*
X185101428Y-113238571D01*
X185101428Y-113010000D01*
X185130000Y-112952857D01*
X185158571Y-112924285D01*
X185215714Y-112895714D01*
X185301428Y-112895714D01*
X185358571Y-112924285D01*
X185387142Y-112952857D01*
X185415714Y-113010000D01*
X185415714Y-113238571D01*
X185701428Y-112324285D02*
X185701428Y-112667142D01*
X185701428Y-112495714D02*
X185101428Y-112495714D01*
X185187142Y-112552857D01*
X185244285Y-112610000D01*
X185272857Y-112667142D01*
X185101428Y-111952857D02*
X185101428Y-111895714D01*
X185130000Y-111838571D01*
X185158571Y-111810000D01*
X185215714Y-111781428D01*
X185330000Y-111752857D01*
X185472857Y-111752857D01*
X185587142Y-111781428D01*
X185644285Y-111810000D01*
X185672857Y-111838571D01*
X185701428Y-111895714D01*
X185701428Y-111952857D01*
X185672857Y-112010000D01*
X185644285Y-112038571D01*
X185587142Y-112067142D01*
X185472857Y-112095714D01*
X185330000Y-112095714D01*
X185215714Y-112067142D01*
X185158571Y-112038571D01*
X185130000Y-112010000D01*
X185101428Y-111952857D01*
X180490000Y-116811428D02*
X180290000Y-116525714D01*
X180147142Y-116811428D02*
X180147142Y-116211428D01*
X180375714Y-116211428D01*
X180432857Y-116240000D01*
X180461428Y-116268571D01*
X180490000Y-116325714D01*
X180490000Y-116411428D01*
X180461428Y-116468571D01*
X180432857Y-116497142D01*
X180375714Y-116525714D01*
X180147142Y-116525714D01*
X180775714Y-116811428D02*
X180890000Y-116811428D01*
X180947142Y-116782857D01*
X180975714Y-116754285D01*
X181032857Y-116668571D01*
X181061428Y-116554285D01*
X181061428Y-116325714D01*
X181032857Y-116268571D01*
X181004285Y-116240000D01*
X180947142Y-116211428D01*
X180832857Y-116211428D01*
X180775714Y-116240000D01*
X180747142Y-116268571D01*
X180718571Y-116325714D01*
X180718571Y-116468571D01*
X180747142Y-116525714D01*
X180775714Y-116554285D01*
X180832857Y-116582857D01*
X180947142Y-116582857D01*
X181004285Y-116554285D01*
X181032857Y-116525714D01*
X181061428Y-116468571D01*
X148711428Y-107510000D02*
X148425714Y-107710000D01*
X148711428Y-107852857D02*
X148111428Y-107852857D01*
X148111428Y-107624285D01*
X148140000Y-107567142D01*
X148168571Y-107538571D01*
X148225714Y-107510000D01*
X148311428Y-107510000D01*
X148368571Y-107538571D01*
X148397142Y-107567142D01*
X148425714Y-107624285D01*
X148425714Y-107852857D01*
X148368571Y-107167142D02*
X148340000Y-107224285D01*
X148311428Y-107252857D01*
X148254285Y-107281428D01*
X148225714Y-107281428D01*
X148168571Y-107252857D01*
X148140000Y-107224285D01*
X148111428Y-107167142D01*
X148111428Y-107052857D01*
X148140000Y-106995714D01*
X148168571Y-106967142D01*
X148225714Y-106938571D01*
X148254285Y-106938571D01*
X148311428Y-106967142D01*
X148340000Y-106995714D01*
X148368571Y-107052857D01*
X148368571Y-107167142D01*
X148397142Y-107224285D01*
X148425714Y-107252857D01*
X148482857Y-107281428D01*
X148597142Y-107281428D01*
X148654285Y-107252857D01*
X148682857Y-107224285D01*
X148711428Y-107167142D01*
X148711428Y-107052857D01*
X148682857Y-106995714D01*
X148654285Y-106967142D01*
X148597142Y-106938571D01*
X148482857Y-106938571D01*
X148425714Y-106967142D01*
X148397142Y-106995714D01*
X148368571Y-107052857D01*
X146111428Y-107500000D02*
X145825714Y-107700000D01*
X146111428Y-107842857D02*
X145511428Y-107842857D01*
X145511428Y-107614285D01*
X145540000Y-107557142D01*
X145568571Y-107528571D01*
X145625714Y-107500000D01*
X145711428Y-107500000D01*
X145768571Y-107528571D01*
X145797142Y-107557142D01*
X145825714Y-107614285D01*
X145825714Y-107842857D01*
X145511428Y-107300000D02*
X145511428Y-106900000D01*
X146111428Y-107157142D01*
X153901428Y-107490000D02*
X153615714Y-107690000D01*
X153901428Y-107832857D02*
X153301428Y-107832857D01*
X153301428Y-107604285D01*
X153330000Y-107547142D01*
X153358571Y-107518571D01*
X153415714Y-107490000D01*
X153501428Y-107490000D01*
X153558571Y-107518571D01*
X153587142Y-107547142D01*
X153615714Y-107604285D01*
X153615714Y-107832857D01*
X153301428Y-106975714D02*
X153301428Y-107090000D01*
X153330000Y-107147142D01*
X153358571Y-107175714D01*
X153444285Y-107232857D01*
X153558571Y-107261428D01*
X153787142Y-107261428D01*
X153844285Y-107232857D01*
X153872857Y-107204285D01*
X153901428Y-107147142D01*
X153901428Y-107032857D01*
X153872857Y-106975714D01*
X153844285Y-106947142D01*
X153787142Y-106918571D01*
X153644285Y-106918571D01*
X153587142Y-106947142D01*
X153558571Y-106975714D01*
X153530000Y-107032857D01*
X153530000Y-107147142D01*
X153558571Y-107204285D01*
X153587142Y-107232857D01*
X153644285Y-107261428D01*
X151321428Y-107510000D02*
X151035714Y-107710000D01*
X151321428Y-107852857D02*
X150721428Y-107852857D01*
X150721428Y-107624285D01*
X150750000Y-107567142D01*
X150778571Y-107538571D01*
X150835714Y-107510000D01*
X150921428Y-107510000D01*
X150978571Y-107538571D01*
X151007142Y-107567142D01*
X151035714Y-107624285D01*
X151035714Y-107852857D01*
X150721428Y-106967142D02*
X150721428Y-107252857D01*
X151007142Y-107281428D01*
X150978571Y-107252857D01*
X150950000Y-107195714D01*
X150950000Y-107052857D01*
X150978571Y-106995714D01*
X151007142Y-106967142D01*
X151064285Y-106938571D01*
X151207142Y-106938571D01*
X151264285Y-106967142D01*
X151292857Y-106995714D01*
X151321428Y-107052857D01*
X151321428Y-107195714D01*
X151292857Y-107252857D01*
X151264285Y-107281428D01*
X158321428Y-118920000D02*
X158035714Y-119120000D01*
X158321428Y-119262857D02*
X157721428Y-119262857D01*
X157721428Y-119034285D01*
X157750000Y-118977142D01*
X157778571Y-118948571D01*
X157835714Y-118920000D01*
X157921428Y-118920000D01*
X157978571Y-118948571D01*
X158007142Y-118977142D01*
X158035714Y-119034285D01*
X158035714Y-119262857D01*
X157721428Y-118720000D02*
X157721428Y-118348571D01*
X157950000Y-118548571D01*
X157950000Y-118462857D01*
X157978571Y-118405714D01*
X158007142Y-118377142D01*
X158064285Y-118348571D01*
X158207142Y-118348571D01*
X158264285Y-118377142D01*
X158292857Y-118405714D01*
X158321428Y-118462857D01*
X158321428Y-118634285D01*
X158292857Y-118691428D01*
X158264285Y-118720000D01*
X157982857Y-108788571D02*
X157925714Y-108760000D01*
X157868571Y-108702857D01*
X157782857Y-108617142D01*
X157725714Y-108588571D01*
X157668571Y-108588571D01*
X157697142Y-108731428D02*
X157640000Y-108702857D01*
X157582857Y-108645714D01*
X157554285Y-108531428D01*
X157554285Y-108331428D01*
X157582857Y-108217142D01*
X157640000Y-108160000D01*
X157697142Y-108131428D01*
X157811428Y-108131428D01*
X157868571Y-108160000D01*
X157925714Y-108217142D01*
X157954285Y-108331428D01*
X157954285Y-108531428D01*
X157925714Y-108645714D01*
X157868571Y-108702857D01*
X157811428Y-108731428D01*
X157697142Y-108731428D01*
X158154285Y-108131428D02*
X158525714Y-108131428D01*
X158325714Y-108360000D01*
X158411428Y-108360000D01*
X158468571Y-108388571D01*
X158497142Y-108417142D01*
X158525714Y-108474285D01*
X158525714Y-108617142D01*
X158497142Y-108674285D01*
X158468571Y-108702857D01*
X158411428Y-108731428D01*
X158240000Y-108731428D01*
X158182857Y-108702857D01*
X158154285Y-108674285D01*
X160642857Y-105278571D02*
X160585714Y-105250000D01*
X160528571Y-105192857D01*
X160442857Y-105107142D01*
X160385714Y-105078571D01*
X160328571Y-105078571D01*
X160357142Y-105221428D02*
X160300000Y-105192857D01*
X160242857Y-105135714D01*
X160214285Y-105021428D01*
X160214285Y-104821428D01*
X160242857Y-104707142D01*
X160300000Y-104650000D01*
X160357142Y-104621428D01*
X160471428Y-104621428D01*
X160528571Y-104650000D01*
X160585714Y-104707142D01*
X160614285Y-104821428D01*
X160614285Y-105021428D01*
X160585714Y-105135714D01*
X160528571Y-105192857D01*
X160471428Y-105221428D01*
X160357142Y-105221428D01*
X160842857Y-104678571D02*
X160871428Y-104650000D01*
X160928571Y-104621428D01*
X161071428Y-104621428D01*
X161128571Y-104650000D01*
X161157142Y-104678571D01*
X161185714Y-104735714D01*
X161185714Y-104792857D01*
X161157142Y-104878571D01*
X160814285Y-105221428D01*
X161185714Y-105221428D01*
X187320000Y-114301428D02*
X187034285Y-114301428D01*
X187034285Y-113701428D01*
X187834285Y-114301428D02*
X187491428Y-114301428D01*
X187662857Y-114301428D02*
X187662857Y-113701428D01*
X187605714Y-113787142D01*
X187548571Y-113844285D01*
X187491428Y-113872857D01*
X148458094Y-104852856D02*
X148458094Y-105138570D01*
X147858094Y-105138570D01*
X148143808Y-104652856D02*
X148143808Y-104452856D01*
X148458094Y-104367142D02*
X148458094Y-104652856D01*
X147858094Y-104652856D01*
X147858094Y-104367142D01*
X148458094Y-104109999D02*
X147858094Y-104109999D01*
X147858094Y-103967142D01*
X147886666Y-103881428D01*
X147943808Y-103824285D01*
X148000951Y-103795713D01*
X148115237Y-103767142D01*
X148200951Y-103767142D01*
X148315237Y-103795713D01*
X148372380Y-103824285D01*
X148429523Y-103881428D01*
X148458094Y-103967142D01*
X148458094Y-104109999D01*
X147915237Y-103538570D02*
X147886666Y-103509999D01*
X147858094Y-103452856D01*
X147858094Y-103309999D01*
X147886666Y-103252856D01*
X147915237Y-103224285D01*
X147972380Y-103195713D01*
X148029523Y-103195713D01*
X148115237Y-103224285D01*
X148458094Y-103567142D01*
X148458094Y-103195713D01*
X145881428Y-104852856D02*
X145881428Y-105138570D01*
X145281428Y-105138570D01*
X145567142Y-104652856D02*
X145567142Y-104452856D01*
X145881428Y-104367142D02*
X145881428Y-104652856D01*
X145281428Y-104652856D01*
X145281428Y-104367142D01*
X145881428Y-104109999D02*
X145281428Y-104109999D01*
X145281428Y-103967142D01*
X145310000Y-103881428D01*
X145367142Y-103824285D01*
X145424285Y-103795713D01*
X145538571Y-103767142D01*
X145624285Y-103767142D01*
X145738571Y-103795713D01*
X145795714Y-103824285D01*
X145852857Y-103881428D01*
X145881428Y-103967142D01*
X145881428Y-104109999D01*
X145881428Y-103195713D02*
X145881428Y-103538570D01*
X145881428Y-103367142D02*
X145281428Y-103367142D01*
X145367142Y-103424285D01*
X145424285Y-103481428D01*
X145452857Y-103538570D01*
X153011428Y-104652857D02*
X153011428Y-104281428D01*
X153240000Y-104481428D01*
X153240000Y-104395714D01*
X153268571Y-104338571D01*
X153297142Y-104310000D01*
X153354285Y-104281428D01*
X153497142Y-104281428D01*
X153554285Y-104310000D01*
X153582857Y-104338571D01*
X153611428Y-104395714D01*
X153611428Y-104567142D01*
X153582857Y-104624285D01*
X153554285Y-104652857D01*
X153011428Y-104110000D02*
X153611428Y-103910000D01*
X153011428Y-103710000D01*
X153011428Y-103567142D02*
X153011428Y-103195714D01*
X153240000Y-103395714D01*
X153240000Y-103310000D01*
X153268571Y-103252857D01*
X153297142Y-103224285D01*
X153354285Y-103195714D01*
X153497142Y-103195714D01*
X153554285Y-103224285D01*
X153582857Y-103252857D01*
X153611428Y-103310000D01*
X153611428Y-103481428D01*
X153582857Y-103538571D01*
X153554285Y-103567142D01*
X150434760Y-104310000D02*
X150434760Y-104595714D01*
X150720474Y-104624285D01*
X150691903Y-104595714D01*
X150663332Y-104538571D01*
X150663332Y-104395714D01*
X150691903Y-104338571D01*
X150720474Y-104310000D01*
X150777617Y-104281428D01*
X150920474Y-104281428D01*
X150977617Y-104310000D01*
X151006189Y-104338571D01*
X151034760Y-104395714D01*
X151034760Y-104538571D01*
X151006189Y-104595714D01*
X150977617Y-104624285D01*
X150434760Y-104110000D02*
X151034760Y-103910000D01*
X150434760Y-103710000D01*
X150434760Y-103395714D02*
X150434760Y-103338571D01*
X150463332Y-103281428D01*
X150491903Y-103252857D01*
X150549046Y-103224285D01*
X150663332Y-103195714D01*
X150806189Y-103195714D01*
X150920474Y-103224285D01*
X150977617Y-103252857D01*
X151006189Y-103281428D01*
X151034760Y-103338571D01*
X151034760Y-103395714D01*
X151006189Y-103452857D01*
X150977617Y-103481428D01*
X150920474Y-103510000D01*
X150806189Y-103538571D01*
X150663332Y-103538571D01*
X150549046Y-103510000D01*
X150491903Y-103481428D01*
X150463332Y-103452857D01*
X150434760Y-103395714D01*
X184394285Y-109690000D02*
X184422857Y-109718571D01*
X184451428Y-109804285D01*
X184451428Y-109861428D01*
X184422857Y-109947142D01*
X184365714Y-110004285D01*
X184308571Y-110032857D01*
X184194285Y-110061428D01*
X184108571Y-110061428D01*
X183994285Y-110032857D01*
X183937142Y-110004285D01*
X183880000Y-109947142D01*
X183851428Y-109861428D01*
X183851428Y-109804285D01*
X183880000Y-109718571D01*
X183908571Y-109690000D01*
X184108571Y-109347142D02*
X184080000Y-109404285D01*
X184051428Y-109432857D01*
X183994285Y-109461428D01*
X183965714Y-109461428D01*
X183908571Y-109432857D01*
X183880000Y-109404285D01*
X183851428Y-109347142D01*
X183851428Y-109232857D01*
X183880000Y-109175714D01*
X183908571Y-109147142D01*
X183965714Y-109118571D01*
X183994285Y-109118571D01*
X184051428Y-109147142D01*
X184080000Y-109175714D01*
X184108571Y-109232857D01*
X184108571Y-109347142D01*
X184137142Y-109404285D01*
X184165714Y-109432857D01*
X184222857Y-109461428D01*
X184337142Y-109461428D01*
X184394285Y-109432857D01*
X184422857Y-109404285D01*
X184451428Y-109347142D01*
X184451428Y-109232857D01*
X184422857Y-109175714D01*
X184394285Y-109147142D01*
X184337142Y-109118571D01*
X184222857Y-109118571D01*
X184165714Y-109147142D01*
X184137142Y-109175714D01*
X184108571Y-109232857D01*
X182609285Y-109690000D02*
X182637857Y-109718571D01*
X182666428Y-109804285D01*
X182666428Y-109861428D01*
X182637857Y-109947142D01*
X182580714Y-110004285D01*
X182523571Y-110032857D01*
X182409285Y-110061428D01*
X182323571Y-110061428D01*
X182209285Y-110032857D01*
X182152142Y-110004285D01*
X182095000Y-109947142D01*
X182066428Y-109861428D01*
X182066428Y-109804285D01*
X182095000Y-109718571D01*
X182123571Y-109690000D01*
X182066428Y-109490000D02*
X182066428Y-109090000D01*
X182666428Y-109347142D01*
X180824285Y-109690000D02*
X180852857Y-109718571D01*
X180881428Y-109804285D01*
X180881428Y-109861428D01*
X180852857Y-109947142D01*
X180795714Y-110004285D01*
X180738571Y-110032857D01*
X180624285Y-110061428D01*
X180538571Y-110061428D01*
X180424285Y-110032857D01*
X180367142Y-110004285D01*
X180310000Y-109947142D01*
X180281428Y-109861428D01*
X180281428Y-109804285D01*
X180310000Y-109718571D01*
X180338571Y-109690000D01*
X180281428Y-109175714D02*
X180281428Y-109290000D01*
X180310000Y-109347142D01*
X180338571Y-109375714D01*
X180424285Y-109432857D01*
X180538571Y-109461428D01*
X180767142Y-109461428D01*
X180824285Y-109432857D01*
X180852857Y-109404285D01*
X180881428Y-109347142D01*
X180881428Y-109232857D01*
X180852857Y-109175714D01*
X180824285Y-109147142D01*
X180767142Y-109118571D01*
X180624285Y-109118571D01*
X180567142Y-109147142D01*
X180538571Y-109175714D01*
X180510000Y-109232857D01*
X180510000Y-109347142D01*
X180538571Y-109404285D01*
X180567142Y-109432857D01*
X180624285Y-109461428D01*
X181414285Y-120710000D02*
X181442857Y-120738571D01*
X181471428Y-120824285D01*
X181471428Y-120881428D01*
X181442857Y-120967142D01*
X181385714Y-121024285D01*
X181328571Y-121052857D01*
X181214285Y-121081428D01*
X181128571Y-121081428D01*
X181014285Y-121052857D01*
X180957142Y-121024285D01*
X180900000Y-120967142D01*
X180871428Y-120881428D01*
X180871428Y-120824285D01*
X180900000Y-120738571D01*
X180928571Y-120710000D01*
X180871428Y-120167142D02*
X180871428Y-120452857D01*
X181157142Y-120481428D01*
X181128571Y-120452857D01*
X181100000Y-120395714D01*
X181100000Y-120252857D01*
X181128571Y-120195714D01*
X181157142Y-120167142D01*
X181214285Y-120138571D01*
X181357142Y-120138571D01*
X181414285Y-120167142D01*
X181442857Y-120195714D01*
X181471428Y-120252857D01*
X181471428Y-120395714D01*
X181442857Y-120452857D01*
X181414285Y-120481428D01*
X189310000Y-120554285D02*
X189281428Y-120582857D01*
X189195714Y-120611428D01*
X189138571Y-120611428D01*
X189052857Y-120582857D01*
X188995714Y-120525714D01*
X188967142Y-120468571D01*
X188938571Y-120354285D01*
X188938571Y-120268571D01*
X188967142Y-120154285D01*
X188995714Y-120097142D01*
X189052857Y-120040000D01*
X189138571Y-120011428D01*
X189195714Y-120011428D01*
X189281428Y-120040000D01*
X189310000Y-120068571D01*
X189824285Y-120211428D02*
X189824285Y-120611428D01*
X189681428Y-119982857D02*
X189538571Y-120411428D01*
X189910000Y-120411428D01*
X146892857Y-118981428D02*
X146892857Y-119467142D01*
X146921428Y-119524285D01*
X146950000Y-119552857D01*
X147007142Y-119581428D01*
X147121428Y-119581428D01*
X147178571Y-119552857D01*
X147207142Y-119524285D01*
X147235714Y-119467142D01*
X147235714Y-118981428D01*
X147835714Y-119581428D02*
X147492857Y-119581428D01*
X147664285Y-119581428D02*
X147664285Y-118981428D01*
X147607142Y-119067142D01*
X147550000Y-119124285D01*
X147492857Y-119152857D01*
X152921428Y-120680000D02*
X152635714Y-120880000D01*
X152921428Y-121022857D02*
X152321428Y-121022857D01*
X152321428Y-120794285D01*
X152350000Y-120737142D01*
X152378571Y-120708571D01*
X152435714Y-120680000D01*
X152521428Y-120680000D01*
X152578571Y-120708571D01*
X152607142Y-120737142D01*
X152635714Y-120794285D01*
X152635714Y-121022857D01*
X152521428Y-120165714D02*
X152921428Y-120165714D01*
X152292857Y-120308571D02*
X152721428Y-120451428D01*
X152721428Y-120080000D01*
X163010000Y-115631428D02*
X162810000Y-115345714D01*
X162667142Y-115631428D02*
X162667142Y-115031428D01*
X162895714Y-115031428D01*
X162952857Y-115060000D01*
X162981428Y-115088571D01*
X163010000Y-115145714D01*
X163010000Y-115231428D01*
X162981428Y-115288571D01*
X162952857Y-115317142D01*
X162895714Y-115345714D01*
X162667142Y-115345714D01*
X163238571Y-115088571D02*
X163267142Y-115060000D01*
X163324285Y-115031428D01*
X163467142Y-115031428D01*
X163524285Y-115060000D01*
X163552857Y-115088571D01*
X163581428Y-115145714D01*
X163581428Y-115202857D01*
X163552857Y-115288571D01*
X163210000Y-115631428D01*
X163581428Y-115631428D01*
X163050000Y-121021428D02*
X162850000Y-120735714D01*
X162707142Y-121021428D02*
X162707142Y-120421428D01*
X162935714Y-120421428D01*
X162992857Y-120450000D01*
X163021428Y-120478571D01*
X163050000Y-120535714D01*
X163050000Y-120621428D01*
X163021428Y-120678571D01*
X162992857Y-120707142D01*
X162935714Y-120735714D01*
X162707142Y-120735714D01*
X163621428Y-121021428D02*
X163278571Y-121021428D01*
X163450000Y-121021428D02*
X163450000Y-120421428D01*
X163392857Y-120507142D01*
X163335714Y-120564285D01*
X163278571Y-120592857D01*
X164082857Y-119648571D02*
X164025714Y-119620000D01*
X163968571Y-119562857D01*
X163882857Y-119477142D01*
X163825714Y-119448571D01*
X163768571Y-119448571D01*
X163797142Y-119591428D02*
X163740000Y-119562857D01*
X163682857Y-119505714D01*
X163654285Y-119391428D01*
X163654285Y-119191428D01*
X163682857Y-119077142D01*
X163740000Y-119020000D01*
X163797142Y-118991428D01*
X163911428Y-118991428D01*
X163968571Y-119020000D01*
X164025714Y-119077142D01*
X164054285Y-119191428D01*
X164054285Y-119391428D01*
X164025714Y-119505714D01*
X163968571Y-119562857D01*
X163911428Y-119591428D01*
X163797142Y-119591428D01*
X164625714Y-119591428D02*
X164282857Y-119591428D01*
X164454285Y-119591428D02*
X164454285Y-118991428D01*
X164397142Y-119077142D01*
X164340000Y-119134285D01*
X164282857Y-119162857D01*
X142971428Y-109792857D02*
X142371428Y-109792857D01*
X142371428Y-109650000D01*
X142400000Y-109564285D01*
X142457142Y-109507142D01*
X142514285Y-109478571D01*
X142628571Y-109450000D01*
X142714285Y-109450000D01*
X142828571Y-109478571D01*
X142885714Y-109507142D01*
X142942857Y-109564285D01*
X142971428Y-109650000D01*
X142971428Y-109792857D01*
X142971428Y-108878571D02*
X142971428Y-109221428D01*
X142971428Y-109050000D02*
X142371428Y-109050000D01*
X142457142Y-109107142D01*
X142514285Y-109164285D01*
X142542857Y-109221428D01*
X146964285Y-110100000D02*
X146992857Y-110128571D01*
X147021428Y-110214285D01*
X147021428Y-110271428D01*
X146992857Y-110357142D01*
X146935714Y-110414285D01*
X146878571Y-110442857D01*
X146764285Y-110471428D01*
X146678571Y-110471428D01*
X146564285Y-110442857D01*
X146507142Y-110414285D01*
X146450000Y-110357142D01*
X146421428Y-110271428D01*
X146421428Y-110214285D01*
X146450000Y-110128571D01*
X146478571Y-110100000D01*
X146421428Y-109900000D02*
X146421428Y-109528571D01*
X146650000Y-109728571D01*
X146650000Y-109642857D01*
X146678571Y-109585714D01*
X146707142Y-109557142D01*
X146764285Y-109528571D01*
X146907142Y-109528571D01*
X146964285Y-109557142D01*
X146992857Y-109585714D01*
X147021428Y-109642857D01*
X147021428Y-109814285D01*
X146992857Y-109871428D01*
X146964285Y-109900000D01*
X157634285Y-110360000D02*
X157662857Y-110388571D01*
X157691428Y-110474285D01*
X157691428Y-110531428D01*
X157662857Y-110617142D01*
X157605714Y-110674285D01*
X157548571Y-110702857D01*
X157434285Y-110731428D01*
X157348571Y-110731428D01*
X157234285Y-110702857D01*
X157177142Y-110674285D01*
X157120000Y-110617142D01*
X157091428Y-110531428D01*
X157091428Y-110474285D01*
X157120000Y-110388571D01*
X157148571Y-110360000D01*
X157148571Y-110131428D02*
X157120000Y-110102857D01*
X157091428Y-110045714D01*
X157091428Y-109902857D01*
X157120000Y-109845714D01*
X157148571Y-109817142D01*
X157205714Y-109788571D01*
X157262857Y-109788571D01*
X157348571Y-109817142D01*
X157691428Y-110160000D01*
X157691428Y-109788571D01*
X157614285Y-112630000D02*
X157642857Y-112658571D01*
X157671428Y-112744285D01*
X157671428Y-112801428D01*
X157642857Y-112887142D01*
X157585714Y-112944285D01*
X157528571Y-112972857D01*
X157414285Y-113001428D01*
X157328571Y-113001428D01*
X157214285Y-112972857D01*
X157157142Y-112944285D01*
X157100000Y-112887142D01*
X157071428Y-112801428D01*
X157071428Y-112744285D01*
X157100000Y-112658571D01*
X157128571Y-112630000D01*
X157671428Y-112058571D02*
X157671428Y-112401428D01*
X157671428Y-112230000D02*
X157071428Y-112230000D01*
X157157142Y-112287142D01*
X157214285Y-112344285D01*
X157242857Y-112401428D01*
M02*
